<?xml version="1.0" encoding="us-ascii" standalone="no"?><svg xmlns="http://www.w3.org/2000/svg" xmlns:xlink="http://www.w3.org/1999/xlink" contentStyleType="text/css" height="527px" preserveAspectRatio="none" style="width:448px;height:527px;background:#FFFFFF;" version="1.1" viewBox="0 0 448 527" width="448px" zoomAndPan="magnify"><defs/><g><!--cluster N_1--><g id="cluster_N_1"><path d="M123.19,257 L422.19,257 A12.5,12.5 0 0 1 434.69,269.5 L434.69,279.6094 L110.69,279.6094 L110.69,269.5 A12.5,12.5 0 0 1 123.19,257 " fill="#F1F1F1" style="stroke:#F1F1F1;stroke-width:1.0;"/><rect fill="none" height="264" rx="12.5" ry="12.5" style="stroke:#000000;stroke-width:0.5;" width="324" x="110.69" y="257"/><line style="stroke:#000000;stroke-width:0.5;" x1="110.69" x2="434.69" y1="279.6094" y2="279.6094"/><text fill="#000000" font-family="sans-serif" font-size="14" lengthAdjust="spacing" textLength="9" x="260.19" y="275.5332">A</text></g><g id="N_1.N_1_1"><rect fill="#F1F1F1" height="50" rx="12.5" ry="12.5" style="stroke:#000000;stroke-width:0.5;" width="50" x="341.69" y="319"/><line style="stroke:#000000;stroke-width:0.5;" x1="341.69" x2="391.69" y1="346.6094" y2="346.6094"/><text fill="#000000" font-family="sans-serif" font-size="14" lengthAdjust="spacing" textLength="9" x="362.19" y="338.5332">F</text></g><g id="N_1.N_1_2"><rect fill="#F1F1F1" height="50" rx="12.5" ry="12.5" style="stroke:#000000;stroke-width:0.5;" width="50" x="256.69" y="319"/><line style="stroke:#000000;stroke-width:0.5;" x1="256.69" x2="306.69" y1="346.6094" y2="346.6094"/><text fill="#000000" font-family="sans-serif" font-size="14" lengthAdjust="spacing" textLength="11" x="276.19" y="338.5332">G</text></g><g id="N_1.N_1_3"><rect fill="#F1F1F1" height="50" rx="12.5" ry="12.5" style="stroke:#000000;stroke-width:0.5;" width="50" x="188.69" y="447"/><line style="stroke:#000000;stroke-width:0.5;" x1="188.69" x2="238.69" y1="474.6094" y2="474.6094"/><text fill="#000000" font-family="sans-serif" font-size="14" lengthAdjust="spacing" textLength="9" x="209.19" y="466.5332">H</text></g><g id="N_1.N_1_4"><rect fill="#F1F1F1" height="50" rx="12.5" ry="12.5" style="stroke:#000000;stroke-width:0.5;" width="50" x="134.69" y="319"/><line style="stroke:#000000;stroke-width:0.5;" x1="134.69" x2="184.69" y1="346.6094" y2="346.6094"/><text fill="#000000" font-family="sans-serif" font-size="14" lengthAdjust="spacing" textLength="3" x="158.19" y="338.5332">I</text></g><g id="N_2"><rect fill="#F1F1F1" height="50" rx="12.5" ry="12.5" style="stroke:#000000;stroke-width:0.5;" width="50" x="224.69" y="7"/><line style="stroke:#000000;stroke-width:0.5;" x1="224.69" x2="274.69" y1="34.6094" y2="34.6094"/><text fill="#000000" font-family="sans-serif" font-size="14" lengthAdjust="spacing" textLength="9" x="245.19" y="26.5332">B</text></g><g id="N_3"><rect fill="#F1F1F1" height="50" rx="12.5" ry="12.5" style="stroke:#000000;stroke-width:0.5;" width="50" x="23.69" y="135"/><line style="stroke:#000000;stroke-width:0.5;" x1="23.69" x2="73.69" y1="162.6094" y2="162.6094"/><text fill="#000000" font-family="sans-serif" font-size="14" lengthAdjust="spacing" textLength="10" x="43.69" y="154.5332">C</text></g><g id="N_4"><rect fill="#F1F1F1" height="50" rx="12.5" ry="12.5" style="stroke:#000000;stroke-width:0.5;" width="50" x="134.69" y="135"/><line style="stroke:#000000;stroke-width:0.5;" x1="134.69" x2="184.69" y1="162.6094" y2="162.6094"/><text fill="#000000" font-family="sans-serif" font-size="14" lengthAdjust="spacing" textLength="10" x="154.69" y="154.5332">D</text></g><g id="N_5"><rect fill="#F1F1F1" height="50" rx="12.5" ry="12.5" style="stroke:#000000;stroke-width:0.5;" width="50" x="219.69" y="135"/><line style="stroke:#000000;stroke-width:0.5;" x1="219.69" x2="269.69" y1="162.6094" y2="162.6094"/><text fill="#000000" font-family="sans-serif" font-size="14" lengthAdjust="spacing" textLength="9" x="240.19" y="154.5332">E</text></g><ellipse cx="76.69" cy="344" fill="#222222" rx="10" ry="10" style="stroke:#222222;stroke-width:1.0;"/><!--link N_1_1 to N_1_3--><g id="link_N_1_1_N_1_3"><path d="M341.42,365.81 C312.99,389.22 271.7115,423.2156 243.3715,446.5556 " fill="none" id="N_1_1-to-N_1_3" style="stroke:#181818;stroke-width:1.0;"/><polygon fill="#181818" points="238.74,450.37,248.2301,447.7361,242.5996,447.1914,243.1443,441.5608,238.74,450.37" style="stroke:#181818;stroke-width:1.0;"/><text fill="#000000" font-family="sans-serif" font-size="13" lengthAdjust="spacing" textLength="7" x="299.69" y="413.4951">a</text></g><!--link N_1_4 to N_1_4--><g id="link_N_1_4_N_1_4"><path d="M184.96,333.17 C202.46,329.89 219.69,333.5 219.69,344 C219.69,354.5 208.3573,359.2153 190.8573,355.9353 " fill="none" id="N_1_4-to-N_1_4" style="stroke:#181818;stroke-width:1.0;"/><polygon fill="#181818" points="184.96,354.83,193.0691,360.4195,189.8744,355.7511,194.5428,352.5564,184.96,354.83" style="stroke:#181818;stroke-width:1.0;"/><text fill="#000000" font-family="sans-serif" font-size="13" lengthAdjust="spacing" textLength="7" x="225.69" y="349.4951">e</text></g><!--link *start* to N_1_1--><g id="link_*start*_N_1_1"><path d="M77.46,333.81 C80.08,307.57 91.18,237.94 136.19,213 C202.66,176.16 240.71,176.16 307.19,213 C345.2,234.07 358.1057,281.0916 363.0557,312.8416 " fill="none" id="*start*-to-N_1_1" style="stroke:#181818;stroke-width:1.0;"/><polygon fill="#181818" points="363.98,318.77,366.5459,309.2612,363.2098,313.8297,358.6413,310.4936,363.98,318.77" style="stroke:#181818;stroke-width:1.0;"/></g><!--link N_1 to N_5--><g id="link_N_1_N_5"><path d="M416.8407,256.658 C416.6942,256.3305 416.5459,256.004 416.3958,255.6785 C413.9936,250.4698 411.12,245.5188 407.69,241 C403.14,235.01 320.0819,195.9471 275.4419,175.2171 " fill="none" id="N_1-to-N_5" style="stroke:#181818;stroke-width:1.0;"/><polygon fill="#181818" points="270,172.69,276.478,180.1085,274.5349,174.7959,279.8475,172.8527,270,172.69" style="stroke:#181818;stroke-width:1.0;"/><text fill="#000000" font-family="sans-serif" font-size="13" lengthAdjust="spacing" textLength="7" x="394.69" y="229.4951">b</text></g><!--link N_1_2 to N_2--><g id="link_N_1_2_N_2"><path d="M295.37,318.79 C308.15,293.28 324.34,251.8 317.69,215 C307.04,156.08 281.0841,96.7706 264.5541,62.6206 " fill="none" id="N_1_2-to-N_2" style="stroke:#181818;stroke-width:1.0;"/><polygon fill="#181818" points="261.94,57.22,262.2608,67.0636,264.1184,61.7205,269.4616,63.5782,261.94,57.22" style="stroke:#181818;stroke-width:1.0;"/><text fill="#000000" font-family="sans-serif" font-size="13" lengthAdjust="spacing" textLength="7" x="310.69" y="165.4951">c</text></g><!--link N_1_3 to N_3--><g id="link_N_1_3_N_3"><path d="M188.39,464.79 C148.42,453.45 71.89,425.21 39.69,369 C6,310.2 24.6132,231.6522 37.9932,190.7822 " fill="none" id="N_1_3-to-N_3" style="stroke:#181818;stroke-width:1.0;"/><polygon fill="#181818" points="39.86,185.08,33.2584,192.3888,38.3043,189.8318,40.8613,194.8778,39.86,185.08" style="stroke:#181818;stroke-width:1.0;"/><text fill="#000000" font-family="sans-serif" font-size="13" lengthAdjust="spacing" textLength="7" x="40.69" y="349.4951">d</text></g><!--link N_2 to N_4--><g id="link_N_2_N_4"><path d="M232.33,57.29 C216.4,79.61 196.3972,107.6075 180.4772,129.8975 " fill="none" id="N_2-to-N_4" style="stroke:#181818;stroke-width:1.0;"/><polygon fill="#181818" points="176.99,134.78,185.4759,129.781,179.896,130.7112,178.9658,125.1314,176.99,134.78" style="stroke:#181818;stroke-width:1.0;"/><text fill="#000000" font-family="sans-serif" font-size="13" lengthAdjust="spacing" textLength="3" x="210.69" y="101.4951">f</text></g><!--link N_3 to N_1_4--><g id="link_N_3_N_1_4"><path d="M66.59,185.02 C77.98,200.65 92.76,221.66 104.69,241 C120.63,266.86 134.177,292.3535 144.847,313.3035 " fill="none" id="N_3-to-N_1_4" style="stroke:#181818;stroke-width:1.0;"/><polygon fill="#181818" points="147.57,318.65,147.0498,308.8149,145.3008,314.1946,139.9211,312.4456,147.57,318.65" style="stroke:#181818;stroke-width:1.0;"/><text fill="#000000" font-family="sans-serif" font-size="13" lengthAdjust="spacing" textLength="7" x="99.69" y="229.4951">g</text></g><!--link N_4 to N_1_4--><g id="link_N_4_N_1_4"><path d="M159.69,185.17 C159.69,219.98 159.69,277.87 159.69,312.73 " fill="none" id="N_4-to-N_1_4" style="stroke:#181818;stroke-width:1.0;"/><polygon fill="#181818" points="159.69,318.73,163.69,309.73,159.69,313.73,155.69,309.73,159.69,318.73" style="stroke:#181818;stroke-width:1.0;"/><text fill="#000000" font-family="sans-serif" font-size="13" lengthAdjust="spacing" textLength="3" x="160.69" y="229.4951">i</text></g><!--link N_5 to N_1_2--><g id="link_N_5_N_1_2"><path d="M248.34,185.06 C250.55,199.08 253.55,217.08 256.69,233 C262.51,262.59 268.9661,290.5566 274.3161,312.7866 " fill="none" id="N_5-to-N_1_2" style="stroke:#181818;stroke-width:1.0;"/><polygon fill="#181818" points="275.72,318.62,277.5031,308.9339,274.5501,313.7588,269.7252,310.8058,275.72,318.62" style="stroke:#181818;stroke-width:1.0;"/><text fill="#000000" font-family="sans-serif" font-size="13" lengthAdjust="spacing" textLength="7" x="257.69" y="229.4951">h</text></g><!--link N_5 to N_1_4--><g id="link_N_5_N_1_4"><path d="M233.4,185.17 C217.14,219.98 189.8388,278.4336 173.5588,313.2936 " fill="none" id="N_5-to-N_1_4" style="stroke:#181818;stroke-width:1.0;"/><polygon fill="#181818" points="171.02,318.73,178.4525,312.268,173.1357,314.1997,171.204,308.8829,171.02,318.73" style="stroke:#181818;stroke-width:1.0;"/><text fill="#000000" font-family="sans-serif" font-size="13" lengthAdjust="spacing" textLength="3" x="217.69" y="229.4951">j</text></g></g></svg>