<?xml version="1.0" encoding="us-ascii" standalone="no"?><svg xmlns="http://www.w3.org/2000/svg" xmlns:xlink="http://www.w3.org/1999/xlink" contentStyleType="text/css" height="423px" preserveAspectRatio="none" style="width:551px;height:423px;background:#FFFFFF;" version="1.1" viewBox="0 0 551 423" width="551px" zoomAndPan="magnify"><defs/><g><!--cluster N_1--><g id="cluster_N_1"><path d="M178.5,129 L525.5,129 A12.5,12.5 0 0 1 538,141.5 L538,151.6094 L166,151.6094 L166,141.5 A12.5,12.5 0 0 1 178.5,129 " fill="#F1F1F1" style="stroke:#F1F1F1;stroke-width:1.0;"/><rect fill="none" height="288" rx="12.5" ry="12.5" style="stroke:#000000;stroke-width:0.5;" width="372" x="166" y="129"/><line style="stroke:#000000;stroke-width:0.5;" x1="166" x2="538" y1="151.6094" y2="151.6094"/><text fill="#000000" font-family="sans-serif" font-size="14" lengthAdjust="spacing" textLength="9" x="339.5" y="147.5332">A</text></g><ellipse cx="379" cy="382" fill="none" rx="11" ry="11" style="stroke:#222222;stroke-width:1.0;"/><ellipse cx="379" cy="382" fill="#222222" rx="6" ry="6" style="stroke:#222222;stroke-width:1.0;"/><g id="N_1.N_1_2"><rect fill="#F1F1F1" height="50" rx="12.5" ry="12.5" style="stroke:#000000;stroke-width:0.5;" width="50" x="464" y="229"/><line style="stroke:#000000;stroke-width:0.5;" x1="464" x2="514" y1="256.6094" y2="256.6094"/><text fill="#000000" font-family="sans-serif" font-size="14" lengthAdjust="spacing" textLength="9" x="484.5" y="248.5332">F</text></g><g id="N_1.N_1_3"><rect fill="#F1F1F1" height="50" rx="12.5" ry="12.5" style="stroke:#000000;stroke-width:0.5;" width="50" x="209" y="229"/><line style="stroke:#000000;stroke-width:0.5;" x1="209" x2="259" y1="256.6094" y2="256.6094"/><text fill="#000000" font-family="sans-serif" font-size="14" lengthAdjust="spacing" textLength="11" x="228.5" y="248.5332">G</text></g><g id="N_1.N_1_4"><rect fill="#F1F1F1" height="50" rx="12.5" ry="12.5" style="stroke:#000000;stroke-width:0.5;" width="50" x="294" y="229"/><line style="stroke:#000000;stroke-width:0.5;" x1="294" x2="344" y1="256.6094" y2="256.6094"/><text fill="#000000" font-family="sans-serif" font-size="14" lengthAdjust="spacing" textLength="9" x="314.5" y="248.5332">H</text></g><g id="N_1.N_1_5"><rect fill="#F1F1F1" height="50" rx="12.5" ry="12.5" style="stroke:#000000;stroke-width:0.5;" width="50" x="379" y="229"/><line style="stroke:#000000;stroke-width:0.5;" x1="379" x2="429" y1="256.6094" y2="256.6094"/><text fill="#000000" font-family="sans-serif" font-size="14" lengthAdjust="spacing" textLength="3" x="402.5" y="248.5332">I</text></g><g id="N_2"><rect fill="#F1F1F1" height="50" rx="12.5" ry="12.5" style="stroke:#000000;stroke-width:0.5;" width="50" x="336" y="7"/><line style="stroke:#000000;stroke-width:0.5;" x1="336" x2="386" y1="34.6094" y2="34.6094"/><text fill="#000000" font-family="sans-serif" font-size="14" lengthAdjust="spacing" textLength="9" x="356.5" y="26.5332">B</text></g><g id="N_3"><rect fill="#F1F1F1" height="50" rx="12.5" ry="12.5" style="stroke:#000000;stroke-width:0.5;" width="50" x="92" y="357"/><line style="stroke:#000000;stroke-width:0.5;" x1="92" x2="142" y1="384.6094" y2="384.6094"/><text fill="#000000" font-family="sans-serif" font-size="14" lengthAdjust="spacing" textLength="10" x="112" y="376.5332">C</text></g><g id="N_4"><rect fill="#F1F1F1" height="50" rx="12.5" ry="12.5" style="stroke:#000000;stroke-width:0.5;" width="50" x="34" y="229"/><line style="stroke:#000000;stroke-width:0.5;" x1="34" x2="84" y1="256.6094" y2="256.6094"/><text fill="#000000" font-family="sans-serif" font-size="14" lengthAdjust="spacing" textLength="10" x="54" y="248.5332">D</text></g><g id="N_5"><rect fill="#F1F1F1" height="50" rx="12.5" ry="12.5" style="stroke:#000000;stroke-width:0.5;" width="50" x="7" y="357"/><line style="stroke:#000000;stroke-width:0.5;" x1="7" x2="57" y1="384.6094" y2="384.6094"/><text fill="#000000" font-family="sans-serif" font-size="14" lengthAdjust="spacing" textLength="9" x="27.5" y="376.5332">E</text></g><ellipse cx="129" cy="254" fill="#222222" rx="10" ry="10" style="stroke:#222222;stroke-width:1.0;"/><!--link N_1_2 to N_1_1--><g id="link_N_1_2_N_1_1"><path d="M467.79,279.29 C442.57,308.18 405.8165,350.2906 389.7665,368.6706 " fill="none" id="N_1_2-to-N_1_1" style="stroke:#181818;stroke-width:1.0;"/><polygon fill="#181818" points="385.82,373.19,394.7527,369.0419,389.1087,369.4238,388.7268,363.7799,385.82,373.19" style="stroke:#181818;stroke-width:1.0;"/><text fill="#000000" font-family="sans-serif" font-size="13" lengthAdjust="spacing" textLength="7" x="441" y="323.4951">b</text></g><!--link N_1_4 to N_1_1--><g id="link_N_1_4_N_1_1"><path d="M330.57,279.29 C343.99,307.47 362.8484,347.0938 372.0284,366.3538 " fill="none" id="N_1_4-to-N_1_1" style="stroke:#181818;stroke-width:1.0;"/><polygon fill="#181818" points="374.61,371.77,374.3485,361.9246,372.4587,367.2565,367.1268,365.3667,374.61,371.77" style="stroke:#181818;stroke-width:1.0;"/><text fill="#000000" font-family="sans-serif" font-size="13" lengthAdjust="spacing" textLength="3" x="353" y="323.4951">f</text></g><!--link *start* to N_1_5--><g id="link_*start*_N_1_5"><path d="M127.7,243.96 C124.26,212.55 118.81,116.42 175.5,85 C241.2,48.59 278.8,48.59 344.5,85 C394.97,112.97 403.406,183.1415 404.296,222.9715 " fill="none" id="*start*-to-N_1_5" style="stroke:#181818;stroke-width:1.0;"/><polygon fill="#181818" points="404.43,228.97,408.2279,219.8829,404.3183,223.9712,400.2299,220.0616,404.43,228.97" style="stroke:#181818;stroke-width:1.0;"/></g><!--link N_1 to N_5--><g id="link_N_1_N_5"><path d="M165.9519,267.9176 C165.9248,267.9564 165.8976,267.9952 165.8704,268.0341 C165,269.2773 164.0805,270.5444 163.1227,271.8031 C161.2069,274.3206 159.1375,276.805 157,279 C141.5,294.93 134.37,295.15 117,309 C96.59,325.28 78.6108,340.4881 61.8808,354.9381 " fill="none" id="N_1-to-N_5" style="stroke:#181818;stroke-width:1.0;"/><polygon fill="#181818" points="57.34,358.86,66.7658,356.0043,61.124,355.5917,61.5365,349.9499,57.34,358.86" style="stroke:#181818;stroke-width:1.0;"/><text fill="#000000" font-family="sans-serif" font-size="13" lengthAdjust="spacing" textLength="7" x="118" y="323.4951">a</text></g><!--link N_1_3 to N_2--><g id="link_N_1_3_N_2"><path d="M237.55,228.92 C242.69,199.73 254.2,149.87 277,113 C292.36,88.16 312.5557,69.5115 331.2657,54.7815 " fill="none" id="N_1_3-to-N_2" style="stroke:#181818;stroke-width:1.0;"/><polygon fill="#181818" points="335.98,51.07,326.4342,53.4944,332.0514,54.1629,331.3828,59.7801,335.98,51.07" style="stroke:#181818;stroke-width:1.0;"/><text fill="#000000" font-family="sans-serif" font-size="13" lengthAdjust="spacing" textLength="7" x="297" y="101.4951">c</text></g><!--link N_1_5 to N_3--><g id="link_N_1_5_N_3"><path d="M378.96,269.99 C373.44,273.1 367.58,276.26 362,279 C283.64,317.51 192.6585,352.7948 147.7685,369.6148 " fill="none" id="N_1_5-to-N_3" style="stroke:#181818;stroke-width:1.0;"/><polygon fill="#181818" points="142.15,371.72,151.9813,372.3078,146.8321,369.9656,149.1743,364.8165,142.15,371.72" style="stroke:#181818;stroke-width:1.0;"/><text fill="#000000" font-family="sans-serif" font-size="13" lengthAdjust="spacing" textLength="3" x="296" y="323.4951">j</text></g><!--link N_1_5 to N_4--><g id="link_N_1_5_N_4"><path d="M403.42,228.92 C401.25,200.11 392.82,153.98 362,132 C314.78,98.32 148.22,98.32 101,132 C70.18,153.98 62.2006,194.1269 60.0306,222.9369 " fill="none" id="N_1_5-to-N_4" style="stroke:#181818;stroke-width:1.0;"/><polygon fill="#181818" points="59.58,228.92,64.2447,220.2459,59.9555,223.9341,56.2673,219.645,59.58,228.92" style="stroke:#181818;stroke-width:1.0;"/><text fill="#000000" font-family="sans-serif" font-size="13" lengthAdjust="spacing" textLength="3" x="205.5" y="101.4951">i</text></g><!--link N_2 to N_1_2--><g id="link_N_2_N_1_2"><path d="M386.28,50.62 C405.51,65.25 431.27,87.72 447,113 C469.85,149.74 479.9241,193.7199 484.7441,222.9599 " fill="none" id="N_2-to-N_1_2" style="stroke:#181818;stroke-width:1.0;"/><polygon fill="#181818" points="485.72,228.88,488.2029,219.3493,484.9068,223.9466,480.3094,220.6504,485.72,228.88" style="stroke:#181818;stroke-width:1.0;"/><text fill="#000000" font-family="sans-serif" font-size="13" lengthAdjust="spacing" textLength="7" x="440" y="101.4951">d</text></g><!--link N_3 to N_1_3--><g id="link_N_3_N_1_3"><path d="M142.23,364.24 C156.05,354.36 172.97,341.06 186,327 C199.48,312.45 208.7392,298.9187 217.5292,284.2287 " fill="none" id="N_3-to-N_1_3" style="stroke:#181818;stroke-width:1.0;"/><polygon fill="#181818" points="220.61,279.08,212.5564,284.7491,218.0427,283.3706,219.4213,288.8569,220.61,279.08" style="stroke:#181818;stroke-width:1.0;"/><text fill="#000000" font-family="sans-serif" font-size="13" lengthAdjust="spacing" textLength="7" x="200" y="323.4951">e</text></g><!--link N_4 to N_5--><g id="link_N_4_N_5"><path d="M53.79,279.29 C49.01,301.61 43.2281,328.6234 38.4481,350.9134 " fill="none" id="N_4-to-N_5" style="stroke:#181818;stroke-width:1.0;"/><polygon fill="#181818" points="37.19,356.78,42.9882,348.8188,38.2384,351.8911,35.166,347.1414,37.19,356.78" style="stroke:#181818;stroke-width:1.0;"/><text fill="#000000" font-family="sans-serif" font-size="13" lengthAdjust="spacing" textLength="7" x="49" y="323.4951">g</text></g><!--link N_5 to N_1_4--><g id="link_N_5_N_1_4"><path d="M57.19,366.3 C62.7,363.17 68.52,359.93 74,357 C95.03,345.75 147.75,317.59 170,309 C216.07,291.21 231.44,298.06 277,279 C282.58,276.67 283.0909,276.6564 288.4909,273.6664 " fill="none" id="N_5-to-N_1_4" style="stroke:#181818;stroke-width:1.0;"/><polygon fill="#181818" points="293.74,270.76,283.9288,271.6203,289.3658,273.182,287.804,278.619,293.74,270.76" style="stroke:#181818;stroke-width:1.0;"/><text fill="#000000" font-family="sans-serif" font-size="13" lengthAdjust="spacing" textLength="7" x="171" y="323.4951">h</text></g></g></svg>