<?xml version="1.0" encoding="us-ascii" standalone="no"?><svg xmlns="http://www.w3.org/2000/svg" xmlns:xlink="http://www.w3.org/1999/xlink" contentStyleType="text/css" height="777px" preserveAspectRatio="none" style="width:299px;height:777px;background:#FFFFFF;" version="1.1" viewBox="0 0 299 777" width="299px" zoomAndPan="magnify"><defs/><g><!--cluster N_1--><g id="cluster_N_1"><path d="M49.5,257 L263.5,257 A12.5,12.5 0 0 1 276,269.5 L276,279.6094 L37,279.6094 L37,269.5 A12.5,12.5 0 0 1 49.5,257 " fill="#F1F1F1" style="stroke:#F1F1F1;stroke-width:1.0;"/><rect fill="none" height="392" rx="12.5" ry="12.5" style="stroke:#000000;stroke-width:0.5;" width="239" x="37" y="257"/><line style="stroke:#000000;stroke-width:0.5;" x1="37" x2="276" y1="279.6094" y2="279.6094"/><text fill="#000000" font-family="sans-serif" font-size="14" lengthAdjust="spacing" textLength="9" x="144" y="275.5332">A</text></g><g id="N_1.N_1_1"><rect fill="#F1F1F1" height="50" rx="12.5" ry="12.5" style="stroke:#000000;stroke-width:0.5;" width="50" x="138" y="447"/><line style="stroke:#000000;stroke-width:0.5;" x1="138" x2="188" y1="474.6094" y2="474.6094"/><text fill="#000000" font-family="sans-serif" font-size="14" lengthAdjust="spacing" textLength="9" x="158.5" y="466.5332">F</text></g><g id="N_1.N_1_2"><rect fill="#F1F1F1" height="50" rx="12.5" ry="12.5" style="stroke:#000000;stroke-width:0.5;" width="50" x="183" y="319"/><line style="stroke:#000000;stroke-width:0.5;" x1="183" x2="233" y1="346.6094" y2="346.6094"/><text fill="#000000" font-family="sans-serif" font-size="14" lengthAdjust="spacing" textLength="11" x="202.5" y="338.5332">G</text></g><g id="N_1.N_1_3"><rect fill="#F1F1F1" height="50" rx="12.5" ry="12.5" style="stroke:#000000;stroke-width:0.5;" width="50" x="138" y="575"/><line style="stroke:#000000;stroke-width:0.5;" x1="138" x2="188" y1="602.6094" y2="602.6094"/><text fill="#000000" font-family="sans-serif" font-size="14" lengthAdjust="spacing" textLength="9" x="158.5" y="594.5332">H</text></g><g id="N_1.N_1_4"><rect fill="#F1F1F1" height="50" rx="12.5" ry="12.5" style="stroke:#000000;stroke-width:0.5;" width="50" x="61" y="319"/><line style="stroke:#000000;stroke-width:0.5;" x1="61" x2="111" y1="346.6094" y2="346.6094"/><text fill="#000000" font-family="sans-serif" font-size="14" lengthAdjust="spacing" textLength="3" x="84.5" y="338.5332">I</text></g><ellipse cx="93" cy="600" fill="#222222" rx="10" ry="10" style="stroke:#222222;stroke-width:1.0;"/><g id="N_2"><rect fill="#F1F1F1" height="50" rx="12.5" ry="12.5" style="stroke:#000000;stroke-width:0.5;" width="50" x="61" y="7"/><line style="stroke:#000000;stroke-width:0.5;" x1="61" x2="111" y1="34.6094" y2="34.6094"/><text fill="#000000" font-family="sans-serif" font-size="14" lengthAdjust="spacing" textLength="9" x="81.5" y="26.5332">B</text></g><g id="N_3"><rect fill="#F1F1F1" height="50" rx="12.5" ry="12.5" style="stroke:#000000;stroke-width:0.5;" width="50" x="61" y="135"/><line style="stroke:#000000;stroke-width:0.5;" x1="61" x2="111" y1="162.6094" y2="162.6094"/><text fill="#000000" font-family="sans-serif" font-size="14" lengthAdjust="spacing" textLength="10" x="81" y="154.5332">C</text></g><g id="N_4"><rect fill="#F1F1F1" height="50" rx="12.5" ry="12.5" style="stroke:#000000;stroke-width:0.5;" width="50" x="177" y="721"/><line style="stroke:#000000;stroke-width:0.5;" x1="177" x2="227" y1="748.6094" y2="748.6094"/><text fill="#000000" font-family="sans-serif" font-size="14" lengthAdjust="spacing" textLength="10" x="197" y="740.5332">D</text></g><g id="N_5"><rect fill="#F1F1F1" height="50" rx="12.5" ry="12.5" style="stroke:#000000;stroke-width:0.5;" width="50" x="242" y="135"/><line style="stroke:#000000;stroke-width:0.5;" x1="242" x2="292" y1="162.6094" y2="162.6094"/><text fill="#000000" font-family="sans-serif" font-size="14" lengthAdjust="spacing" textLength="9" x="262.5" y="154.5332">E</text></g><ellipse cx="16" cy="32" fill="#222222" rx="10" ry="10" style="stroke:#222222;stroke-width:1.0;"/><!--link *start*N_1 to N_1_3--><g id="link_*start*N_1_N_1_3"><path d="M103.12,600 C114.66,600 120.2,600 131.74,600 " fill="none" id="*start*N_1-to-N_1_3" style="stroke:#181818;stroke-width:1.0;"/><polygon fill="#181818" points="137.74,600,128.74,596,132.74,600,128.74,604,137.74,600" style="stroke:#181818;stroke-width:1.0;"/></g><!--link N_1_1 to N_1_3--><g id="link_N_1_1_N_1_3"><path d="M163,497.29 C163,519.61 163,546.49 163,568.78 " fill="none" id="N_1_1-to-N_1_3" style="stroke:#181818;stroke-width:1.0;"/><polygon fill="#181818" points="163,574.78,167,565.78,163,569.78,159,565.78,163,574.78" style="stroke:#181818;stroke-width:1.0;"/><text fill="#000000" font-family="sans-serif" font-size="13" lengthAdjust="spacing" textLength="7" x="164" y="541.4951">b</text></g><!--link N_1_2 to N_1_1--><g id="link_N_1_2_N_1_1"><path d="M199.32,369.29 C191.36,391.61 181.6279,418.8395 173.6679,441.1295 " fill="none" id="N_1_2-to-N_1_1" style="stroke:#181818;stroke-width:1.0;"/><polygon fill="#181818" points="171.65,446.78,178.4438,439.6495,173.3315,442.0712,170.9098,436.959,171.65,446.78" style="stroke:#181818;stroke-width:1.0;"/><text fill="#000000" font-family="sans-serif" font-size="13" lengthAdjust="spacing" textLength="7" x="189" y="413.4951">e</text></g><!--link N_1_4 to N_1_4--><g id="link_N_1_4_N_1_4"><path d="M111.28,333.17 C128.77,329.89 146,333.5 146,344 C146,354.5 134.6672,359.2159 117.1772,355.9359 " fill="none" id="N_1_4-to-N_1_4" style="stroke:#181818;stroke-width:1.0;"/><polygon fill="#181818" points="111.28,354.83,119.3885,360.4204,116.1943,355.7516,120.8631,352.5574,111.28,354.83" style="stroke:#181818;stroke-width:1.0;"/><text fill="#000000" font-family="sans-serif" font-size="13" lengthAdjust="spacing" textLength="7" x="152" y="349.4951">g</text></g><!--link *start* to N_2--><g id="link_*start*_N_2"><path d="M26.12,32 C37.66,32 43.2,32 54.74,32 " fill="none" id="*start*-to-N_2" style="stroke:#181818;stroke-width:1.0;"/><polygon fill="#181818" points="60.74,32,51.74,28,55.74,32,51.74,36,60.74,32" style="stroke:#181818;stroke-width:1.0;"/></g><!--link N_1 to N_5--><g id="link_N_1_N_5"><path d="M267.5231,256.4393 C267.5216,256.1696 267.5201,255.8999 267.5187,255.6302 C267.4711,246.9978 267.4234,238.3219 267.377,229.9137 C267.2844,213.0975 267.2307,203.3524 267.1632,191.1699 " fill="none" id="N_1-to-N_5" style="stroke:#181818;stroke-width:1.0;"/><polygon fill="#181818" points="267.13,185.17,263.1799,194.192,267.1577,190.1699,271.1798,194.1477,267.13,185.17" style="stroke:#181818;stroke-width:1.0;"/><text fill="#000000" font-family="sans-serif" font-size="13" lengthAdjust="spacing" textLength="3" x="268" y="229.4951">i</text></g><!--link N_5 to N_1--><g id="link_N_5_N_1"><path d="M257.69,185.09 C254.59,194.3 251.54,204.99 250,215 C248.925,221.9875 249.4694,233.2875 250.9011,246.3544 C251.259,249.6211 250.8833,247.0504 251.3407,250.4982 " fill="none" id="N_5-to-N_1" style="stroke:#181818;stroke-width:1.0;"/><polygon fill="#181818" points="252.1298,256.446,254.9114,246.9982,251.4722,251.4895,246.9809,248.0503,252.1298,256.446" style="stroke:#181818;stroke-width:1.0;"/><text fill="#000000" font-family="sans-serif" font-size="13" lengthAdjust="spacing" textLength="7" x="251" y="229.4951">h</text></g><!--link N_1_3 to N_4--><g id="link_N_1_3_N_4"><path d="M169.53,625.1 C176.73,651.68 186.6709,688.4188 193.8809,715.0288 " fill="none" id="N_1_3-to-N_4" style="stroke:#181818;stroke-width:1.0;"/><polygon fill="#181818" points="195.45,720.82,196.9571,711.0871,194.1424,715.994,189.2355,713.1793,195.45,720.82" style="stroke:#181818;stroke-width:1.0;"/><text fill="#000000" font-family="sans-serif" font-size="13" lengthAdjust="spacing" textLength="3" x="188" y="687.4951">f</text></g><!--link N_2 to N_3--><g id="link_N_2_N_3"><path d="M86,57.29 C86,79.61 86,106.49 86,128.78 " fill="none" id="N_2-to-N_3" style="stroke:#181818;stroke-width:1.0;"/><polygon fill="#181818" points="86,134.78,90,125.78,86,129.78,82,125.78,86,134.78" style="stroke:#181818;stroke-width:1.0;"/><text fill="#000000" font-family="sans-serif" font-size="13" lengthAdjust="spacing" textLength="7" x="87" y="101.4951">a</text></g><!--link N_3 to N_1_4--><g id="link_N_3_N_1_4"><path d="M86,185.17 C86,219.98 86,277.87 86,312.73 " fill="none" id="N_3-to-N_1_4" style="stroke:#181818;stroke-width:1.0;"/><polygon fill="#181818" points="86,318.73,90,309.73,86,313.73,82,309.73,86,318.73" style="stroke:#181818;stroke-width:1.0;"/><text fill="#000000" font-family="sans-serif" font-size="13" lengthAdjust="spacing" textLength="7" x="87" y="229.4951">c</text></g><!--link N_4 to N_1_2--><g id="link_N_4_N_1_2"><path d="M203.48,720.86 C204.39,704.99 205.47,683.77 206,665 C209.11,554.49 208.6328,428.4198 208.2528,375.0898 " fill="none" id="N_4-to-N_1_2" style="stroke:#181818;stroke-width:1.0;"/><polygon fill="#181818" points="208.21,369.09,204.2742,378.1183,208.2456,374.0899,212.274,378.0613,208.21,369.09" style="stroke:#181818;stroke-width:1.0;"/><text fill="#000000" font-family="sans-serif" font-size="13" lengthAdjust="spacing" textLength="7" x="209" y="541.4951">d</text></g></g></svg>