<?xml version="1.0" encoding="us-ascii" standalone="no"?><svg xmlns="http://www.w3.org/2000/svg" xmlns:xlink="http://www.w3.org/1999/xlink" contentStyleType="text/css" height="649px" preserveAspectRatio="none" style="width:449px;height:649px;background:#FFFFFF;" version="1.1" viewBox="0 0 449 649" width="449px" zoomAndPan="magnify"><defs/><g><!--cluster N_1--><g id="cluster_N_1"><path d="M49.5,129 L311.5,129 A12.5,12.5 0 0 1 324,141.5 L324,151.6094 L37,151.6094 L37,141.5 A12.5,12.5 0 0 1 49.5,129 " fill="#F1F1F1" style="stroke:#F1F1F1;stroke-width:1.0;"/><rect fill="none" height="264" rx="12.5" ry="12.5" style="stroke:#55EE1D;stroke-width:0.5;" width="287" x="37" y="129"/><line style="stroke:#55EE1D;stroke-width:0.5;" x1="37" x2="324" y1="151.6094" y2="151.6094"/><text fill="#55EE1D" font-family="sans-serif" font-size="14" lengthAdjust="spacing" textLength="9" x="168" y="147.5332">A</text></g><g id="N_1.N_1_1"><rect fill="#F1F1F1" height="50" rx="12.5" ry="12.5" style="stroke:#8D0256;stroke-width:0.5;" width="50" x="146" y="191"/><line style="stroke:#8D0256;stroke-width:0.5;" x1="146" x2="196" y1="218.6094" y2="218.6094"/><text fill="#8D0256" font-family="sans-serif" font-size="14" lengthAdjust="spacing" textLength="9" x="166.5" y="210.5332">F</text></g><g id="N_1.N_1_2"><rect fill="#F1F1F1" height="50" rx="12.5" ry="12.5" style="stroke:#E978E3;stroke-width:0.5;" width="50" x="71" y="319"/><line style="stroke:#E978E3;stroke-width:0.5;" x1="71" x2="121" y1="346.6094" y2="346.6094"/><text fill="#E978E3" font-family="sans-serif" font-size="14" lengthAdjust="spacing" textLength="11" x="90.5" y="338.5332">G</text></g><g id="N_1.N_1_3"><rect fill="#F1F1F1" height="50" rx="12.5" ry="12.5" style="stroke:#9D85EF;stroke-width:0.5;" width="50" x="61" y="191"/><line style="stroke:#9D85EF;stroke-width:0.5;" x1="61" x2="111" y1="218.6094" y2="218.6094"/><text fill="#9D85EF" font-family="sans-serif" font-size="14" lengthAdjust="spacing" textLength="9" x="81.5" y="210.5332">H</text></g><g id="N_1.N_1_4"><rect fill="#F1F1F1" height="50" rx="12.5" ry="12.5" style="stroke:#729071;stroke-width:0.5;" width="50" x="231" y="191"/><line style="stroke:#729071;stroke-width:0.5;" x1="231" x2="281" y1="218.6094" y2="218.6094"/><text fill="#729071" font-family="sans-serif" font-size="14" lengthAdjust="spacing" textLength="3" x="254.5" y="210.5332">I</text></g><g id="N_2"><rect fill="#F1F1F1" height="50" rx="12.5" ry="12.5" style="stroke:#F771E2;stroke-width:0.5;" width="50" x="61" y="7"/><line style="stroke:#F771E2;stroke-width:0.5;" x1="61" x2="111" y1="34.6094" y2="34.6094"/><text fill="#F771E2" font-family="sans-serif" font-size="14" lengthAdjust="spacing" textLength="9" x="81.5" y="26.5332">B</text></g><g id="N_3"><rect fill="#F1F1F1" height="50" rx="12.5" ry="12.5" style="stroke:#9C56BD;stroke-width:0.5;" width="50" x="190" y="593"/><line style="stroke:#9C56BD;stroke-width:0.5;" x1="190" x2="240" y1="620.6094" y2="620.6094"/><text fill="#9C56BD" font-family="sans-serif" font-size="14" lengthAdjust="spacing" textLength="10" x="210" y="612.5332">C</text></g><g id="N_4"><rect fill="#F1F1F1" height="50" rx="12.5" ry="12.5" style="stroke:#DC34DF;stroke-width:0.5;" width="50" x="348" y="319"/><line style="stroke:#DC34DF;stroke-width:0.5;" x1="348" x2="398" y1="346.6094" y2="346.6094"/><text fill="#DC34DF" font-family="sans-serif" font-size="14" lengthAdjust="spacing" textLength="10" x="368" y="338.5332">D</text></g><g id="N_5"><rect fill="#F1F1F1" height="50" rx="12.5" ry="12.5" style="stroke:#1EBF75;stroke-width:0.5;" width="50" x="348" y="465"/><line style="stroke:#1EBF75;stroke-width:0.5;" x1="348" x2="398" y1="492.6094" y2="492.6094"/><text fill="#1EBF75" font-family="sans-serif" font-size="14" lengthAdjust="spacing" textLength="9" x="368.5" y="484.5332">E</text></g><ellipse cx="16" cy="32" fill="#222222" rx="10" ry="10" style="stroke:#222222;stroke-width:1.0;"/><!--link N_1_3 to N_1_2--><g id="link_N_1_3_N_1_2"><path d="M87.93,241.29 C89.7,263.61 91.835,290.5088 93.605,312.7988 " fill="none" id="N_1_3-to-N_1_2" style="stroke:#181818;stroke-width:1.0;"/><polygon fill="#181818" points="94.08,318.78,97.355,309.4916,93.6842,313.7957,89.3801,310.1249,94.08,318.78" style="stroke:#181818;stroke-width:1.0;"/><text fill="#000000" font-family="sans-serif" font-size="13" lengthAdjust="spacing" textLength="7" x="93" y="285.4951">h</text></g><!--link *start* to N_2--><g id="link_*start*_N_2"><path d="M26.12,32 C37.66,32 43.2,32 54.74,32 " fill="none" id="*start*-to-N_2" style="stroke:#181818;stroke-width:1.0;"/><polygon fill="#181818" points="60.74,32,51.74,28,55.74,32,51.74,36,60.74,32" style="stroke:#181818;stroke-width:1.0;"/></g><!--link N_1 to N_4--><g id="link_N_1_N_4"><path d="M324.063,221.3542 C324.2026,221.435 324.3437,221.5169 324.4861,221.5998 C329.0441,224.2547 335.0194,228.0019 341.3463,232.6938 C354,242.0775 368.06,255.24 375,271 C381.6,285.99 381.832,298.5597 379.602,313.0597 " fill="none" id="N_1-to-N_4" style="stroke:#181818;stroke-width:1.0;"/><polygon fill="#181818" points="378.69,318.99,384.0116,310.7026,379.45,314.0481,376.1045,309.4866,378.69,318.99" style="stroke:#181818;stroke-width:1.0;"/><text fill="#000000" font-family="sans-serif" font-size="13" lengthAdjust="spacing" textLength="7" x="380" y="285.4951">b</text></g><!--link N_1_1 to N_4--><g id="link_N_1_1_N_4"><path d="M196.18,232.7 C234.99,256.91 303.9189,299.915 342.7389,324.125 " fill="none" id="N_1_1-to-N_4" style="stroke:#181818;stroke-width:1.0;"/><polygon fill="#181818" points="347.83,327.3,342.3101,319.1434,343.5874,324.6541,338.0767,325.9315,347.83,327.3" style="stroke:#181818;stroke-width:1.0;"/><text fill="#000000" font-family="sans-serif" font-size="13" lengthAdjust="spacing" textLength="7" x="285" y="285.4951">a</text></g><!--link N_1_2 to N_4--><g id="link_N_1_2_N_4"><path d="M121.07,344 C173.67,344 289.06,344 341.79,344 " fill="none" id="N_1_2-to-N_4" style="stroke:#181818;stroke-width:1.0;"/><polygon fill="#181818" points="347.79,344,338.79,340,342.79,344,338.79,348,347.79,344" style="stroke:#181818;stroke-width:1.0;"/><text fill="#000000" font-family="sans-serif" font-size="13" lengthAdjust="spacing" textLength="7" x="231" y="337.4951">c</text></g><!--link N_1_4 to N_4--><g id="link_N_1_4_N_4"><path d="M278.93,241.12 C287.73,250.43 297.86,261.18 307,271 C321.79,286.89 334.2461,300.4575 347.0461,314.4875 " fill="none" id="N_1_4-to-N_4" style="stroke:#181818;stroke-width:1.0;"/><polygon fill="#181818" points="351.09,318.92,347.9792,309.5753,347.7201,315.2263,342.0692,314.9672,351.09,318.92" style="stroke:#181818;stroke-width:1.0;"/><text fill="#000000" font-family="sans-serif" font-size="13" lengthAdjust="spacing" textLength="3" x="324" y="285.4951">i</text></g><!--link N_2 to N_1_3--><g id="link_N_2_N_1_3"><path d="M86,57.17 C86,91.98 86,149.87 86,184.73 " fill="none" id="N_2-to-N_1_3" style="stroke:#181818;stroke-width:1.0;"/><polygon fill="#181818" points="86,190.73,90,181.73,86,185.73,82,181.73,86,190.73" style="stroke:#181818;stroke-width:1.0;"/><text fill="#000000" font-family="sans-serif" font-size="13" lengthAdjust="spacing" textLength="7" x="87" y="101.4951">d</text></g><!--link N_3 to N_1_1--><g id="link_N_3_N_1_1"><path d="M212.34,592.85 C204.5,521.53 182.146,318.364 174.306,247.084 " fill="none" id="N_3-to-N_1_1" style="stroke:#181818;stroke-width:1.0;"/><polygon fill="#181818" points="173.65,241.12,170.6579,250.5034,174.1966,246.09,178.61,249.6287,173.65,241.12" style="stroke:#181818;stroke-width:1.0;"/><text fill="#000000" font-family="sans-serif" font-size="13" lengthAdjust="spacing" textLength="3" x="196" y="431.4951">f</text></g><!--link N_4 to N_5--><g id="link_N_4_N_5"><path d="M373,369.1 C373,395.68 373,432.21 373,458.82 " fill="none" id="N_4-to-N_5" style="stroke:#181818;stroke-width:1.0;"/><polygon fill="#181818" points="373,464.82,377,455.82,373,459.82,369,455.82,373,464.82" style="stroke:#181818;stroke-width:1.0;"/><text fill="#000000" font-family="sans-serif" font-size="13" lengthAdjust="spacing" textLength="7" x="374" y="431.4951">g</text></g><!--link N_5 to N_1_4--><g id="link_N_5_N_1_4"><path d="M389.62,464.98 C411.13,430.64 442.85,366.42 416,319 C382.61,260.03 340.48,279.9 285,241 C283.72,240.1 287.2289,242.7482 285.9289,241.7782 " fill="none" id="N_5-to-N_1_4" style="stroke:#181818;stroke-width:1.0;"/><polygon fill="#181818" points="281.12,238.19,285.9412,246.7781,285.1274,241.1801,290.7254,240.3663,281.12,238.19" style="stroke:#181818;stroke-width:1.0;"/><text fill="#000000" font-family="sans-serif" font-size="13" lengthAdjust="spacing" textLength="3" x="427" y="349.4951">j</text></g><!--link N_5 to N_3--><g id="link_N_5_N_3"><path d="M347.96,510.97 C318.47,534.49 274.4312,569.6094 244.8712,593.1794 " fill="none" id="N_5-to-N_3" style="stroke:#181818;stroke-width:1.0;"/><polygon fill="#181818" points="240.18,596.92,249.7106,594.4366,244.0894,593.8028,244.7231,588.1816,240.18,596.92" style="stroke:#181818;stroke-width:1.0;"/><text fill="#000000" font-family="sans-serif" font-size="13" lengthAdjust="spacing" textLength="7" x="304" y="559.4951">e</text></g></g></svg>