<?xml version="1.0" encoding="us-ascii" standalone="no"?><svg xmlns="http://www.w3.org/2000/svg" xmlns:xlink="http://www.w3.org/1999/xlink" contentStyleType="text/css" height="451px" preserveAspectRatio="none" style="width:600px;height:451px;background:#FFFFFF;" version="1.1" viewBox="0 0 600 451" width="600px" zoomAndPan="magnify"><defs/><g><!--cluster N_1--><g id="cluster_N_1"><path d="M19.5,53.9 L336.5,53.9 A12.5,12.5 0 0 1 349,66.4 L349,76.5094 L7,76.5094 L7,66.4 A12.5,12.5 0 0 1 19.5,53.9 " fill="#F1F1F1" style="stroke:#F1F1F1;stroke-width:1.0;"/><rect fill="none" height="392" rx="12.5" ry="12.5" style="stroke:#000000;stroke-width:0.5;" width="342" x="7" y="53.9"/><line style="stroke:#000000;stroke-width:0.5;" x1="7" x2="349" y1="76.5094" y2="76.5094"/><text fill="#000000" font-family="sans-serif" font-size="14" lengthAdjust="spacing" textLength="9" x="165.5" y="72.4332">A</text></g><g id="N_1.N_1_1"><rect fill="#F1F1F1" height="50" rx="12.5" ry="12.5" style="stroke:#000000;stroke-width:0.5;" width="50" x="256" y="115.9"/><line style="stroke:#000000;stroke-width:0.5;" x1="256" x2="306" y1="143.5094" y2="143.5094"/><text fill="#000000" font-family="sans-serif" font-size="14" lengthAdjust="spacing" textLength="9" x="276.5" y="135.4332">E</text></g><g id="N_1.N_1_2"><rect fill="#F1F1F1" height="50" rx="12.5" ry="12.5" style="stroke:#000000;stroke-width:0.5;" width="50" x="86" y="115.9"/><line style="stroke:#000000;stroke-width:0.5;" x1="86" x2="136" y1="143.5094" y2="143.5094"/><text fill="#000000" font-family="sans-serif" font-size="14" lengthAdjust="spacing" textLength="9" x="106.5" y="135.4332">F</text></g><g id="N_1.N_1_3"><rect fill="#F1F1F1" height="50" rx="12.5" ry="12.5" style="stroke:#000000;stroke-width:0.5;" width="50" x="171" y="115.9"/><line style="stroke:#000000;stroke-width:0.5;" x1="171" x2="221" y1="143.5094" y2="143.5094"/><text fill="#000000" font-family="sans-serif" font-size="14" lengthAdjust="spacing" textLength="11" x="190.5" y="135.4332">G</text></g><g id="N_1.N_1_4"><rect fill="#F1F1F1" height="50" rx="12.5" ry="12.5" style="stroke:#000000;stroke-width:0.5;" width="50" x="111" y="243.9"/><line style="stroke:#000000;stroke-width:0.5;" x1="111" x2="161" y1="271.5094" y2="271.5094"/><text fill="#000000" font-family="sans-serif" font-size="14" lengthAdjust="spacing" textLength="9" x="131.5" y="263.4332">H</text></g><g id="N_1.N_1_5"><rect fill="#F1F1F1" height="50" rx="12.5" ry="12.5" style="stroke:#000000;stroke-width:0.5;" width="50" x="210" y="371.9"/><line style="stroke:#000000;stroke-width:0.5;" x1="210" x2="260" y1="399.5094" y2="399.5094"/><text fill="#000000" font-family="sans-serif" font-size="14" lengthAdjust="spacing" textLength="3" x="233.5" y="391.4332">I</text></g><ellipse cx="41" cy="140.9" fill="#222222" rx="10" ry="10" style="stroke:#222222;stroke-width:1.0;"/><g id="N_2"><rect fill="#F1F1F1" height="50" rx="12.5" ry="12.5" style="stroke:#000000;stroke-width:0.5;" width="50" x="373" y="243.9"/><line style="stroke:#000000;stroke-width:0.5;" x1="373" x2="423" y1="271.5094" y2="271.5094"/><text fill="#000000" font-family="sans-serif" font-size="14" lengthAdjust="spacing" textLength="9" x="393.5" y="263.4332">B</text></g><g id="N_3"><rect fill="#F1F1F1" height="50" rx="12.5" ry="12.5" style="stroke:#000000;stroke-width:0.5;" width="50" x="543" y="243.9"/><line style="stroke:#000000;stroke-width:0.5;" x1="543" x2="593" y1="271.5094" y2="271.5094"/><text fill="#000000" font-family="sans-serif" font-size="14" lengthAdjust="spacing" textLength="10" x="563" y="263.4332">C</text></g><g id="N_4"><rect fill="#F1F1F1" height="50" rx="12.5" ry="12.5" style="stroke:#000000;stroke-width:0.5;" width="50" x="458" y="243.9"/><line style="stroke:#000000;stroke-width:0.5;" x1="458" x2="508" y1="271.5094" y2="271.5094"/><text fill="#000000" font-family="sans-serif" font-size="14" lengthAdjust="spacing" textLength="10" x="478" y="263.4332">D</text></g><ellipse cx="386" cy="140.9" fill="#222222" rx="10" ry="10" style="stroke:#222222;stroke-width:1.0;"/><!--link *start*N_1 to N_1_3--><g id="link_*start*N_1_N_1_3"><path d="M40.58,130.57 C40.19,104.77 43.4,38.47 85.5,22.9 C114.32,12.24 134.92,13.05 153,37.9 C170.32,61.72 180.4614,87.8397 187.2714,109.7797 " fill="none" id="*start*N_1-to-N_1_3" style="stroke:#181818;stroke-width:1.0;"/><polygon fill="#181818" points="189.05,115.51,190.2022,105.7288,187.5678,110.7347,182.5618,108.1003,189.05,115.51" style="stroke:#181818;stroke-width:1.0;"/></g><!--link N_1_2 to N_1_4--><g id="link_N_1_2_N_1_4"><path d="M115.82,166.19 C120.25,188.51 125.603,215.5046 130.023,237.7946 " fill="none" id="N_1_2-to-N_1_4" style="stroke:#181818;stroke-width:1.0;"/><polygon fill="#181818" points="131.19,243.68,133.363,234.0739,130.2175,238.7755,125.5158,235.6299,131.19,243.68" style="stroke:#181818;stroke-width:1.0;"/><text fill="#000000" font-family="sans-serif" font-size="13" lengthAdjust="spacing" textLength="7" x="126" y="210.3951">c</text></g><!--link N_1_4 to N_1_5--><g id="link_N_1_4_N_1_5"><path d="M155.09,294.19 C172.62,316.51 194.7535,344.6717 212.2635,366.9617 " fill="none" id="N_1_4-to-N_1_5" style="stroke:#181818;stroke-width:1.0;"/><polygon fill="#181818" points="215.97,371.68,213.5558,362.1316,212.8813,367.7481,207.2648,367.0736,215.97,371.68" style="stroke:#181818;stroke-width:1.0;"/><text fill="#000000" font-family="sans-serif" font-size="13" lengthAdjust="spacing" textLength="3" x="193" y="338.3951">f</text></g><!--link N_1_5 to N_1_5--><g id="link_N_1_5_N_1_5"><path d="M260.28,386.07 C277.77,382.79 295,386.4 295,396.9 C295,407.4 283.6672,412.1159 266.1772,408.8359 " fill="none" id="N_1_5-to-N_1_5" style="stroke:#181818;stroke-width:1.0;"/><polygon fill="#181818" points="260.28,407.73,268.3885,413.3204,265.1943,408.6516,269.8631,405.4574,260.28,407.73" style="stroke:#181818;stroke-width:1.0;"/><text fill="#000000" font-family="sans-serif" font-size="13" lengthAdjust="spacing" textLength="7" x="301" y="402.3951">g</text></g><!--link *start* to N_1_1--><g id="link_*start*_N_1_1"><path d="M385.47,130.6 C383.34,98.91 373.18,6 327.5,22.9 C291.77,36.12 283.4667,79.3712 281.5967,109.9112 " fill="none" id="*start*-to-N_1_1" style="stroke:#181818;stroke-width:1.0;"/><polygon fill="#181818" points="281.23,115.9,285.7726,107.1613,281.5356,110.9093,277.7875,106.6724,281.23,115.9" style="stroke:#181818;stroke-width:1.0;"/></g><!--link N_1 to N_3--><g id="link_N_1_N_3"><path d="M349.0131,155.8934 C349.0415,155.9338 349.0701,155.9741 349.0987,156.0145 C349.3275,156.3374 349.5605,156.6605 349.7974,156.9832 C350.2712,157.6286 350.761,158.2723 351.2659,158.9094 C353.2856,161.4575 355.5475,163.8975 358,165.9 C383.58,186.8 396,182.08 426,195.9 C470.78,216.52 482.35,220.99 526,243.9 C531.5,246.79 532.113,247.0464 537.623,250.1764 " fill="none" id="N_1-to-N_3" style="stroke:#181818;stroke-width:1.0;"/><polygon fill="#181818" points="542.84,253.14,536.9902,245.2166,538.4925,250.6704,533.0388,252.1727,542.84,253.14" style="stroke:#181818;stroke-width:1.0;"/><text fill="#000000" font-family="sans-serif" font-size="13" lengthAdjust="spacing" textLength="3" x="465" y="210.3951">i</text></g><!--link N_1_1 to N_4--><g id="link_N_1_1_N_4"><path d="M306.27,162.89 C307.53,163.91 308.78,164.92 310,165.9 C337.2,187.68 342.01,196.15 372,213.9 C400.78,230.93 411.11,228.92 441,243.9 C446.56,246.68 447.1889,246.9036 452.6989,250.0236 " fill="none" id="N_1_1-to-N_4" style="stroke:#181818;stroke-width:1.0;"/><polygon fill="#181818" points="457.92,252.98,452.0593,245.0647,453.5691,250.5163,448.1174,252.0261,457.92,252.98" style="stroke:#181818;stroke-width:1.0;"/><text fill="#000000" font-family="sans-serif" font-size="13" lengthAdjust="spacing" textLength="7" x="373" y="210.3951">a</text></g><!--link N_1_3 to N_2--><g id="link_N_1_3_N_2"><path d="M221.18,157.6 C259.99,181.81 328.9189,224.815 367.7389,249.025 " fill="none" id="N_1_3-to-N_2" style="stroke:#181818;stroke-width:1.0;"/><polygon fill="#181818" points="372.83,252.2,367.3101,244.0434,368.5874,249.5541,363.0767,250.8315,372.83,252.2" style="stroke:#181818;stroke-width:1.0;"/><text fill="#000000" font-family="sans-serif" font-size="13" lengthAdjust="spacing" textLength="7" x="311" y="210.3951">d</text></g><!--link N_2 to N_1_2--><g id="link_N_2_N_1_2"><path d="M372.85,258.63 C327.95,241.82 231.34,204.45 153,165.9 C147.42,163.16 146.7851,162.9392 141.2751,159.8292 " fill="none" id="N_2-to-N_1_2" style="stroke:#181818;stroke-width:1.0;"/><polygon fill="#181818" points="136.05,156.88,141.9216,164.7873,140.4043,159.3377,145.8539,157.8204,136.05,156.88" style="stroke:#181818;stroke-width:1.0;"/><text fill="#000000" font-family="sans-serif" font-size="13" lengthAdjust="spacing" textLength="7" x="261" y="210.3951">b</text></g><!--link N_3 to N_1_5--><g id="link_N_3_N_1_5"><path d="M542.62,285.38 C537.23,288.39 531.5,291.39 526,293.9 C430.79,337.35 317.052,372.2467 265.882,387.1067 " fill="none" id="N_3-to-N_1_5" style="stroke:#181818;stroke-width:1.0;"/><polygon fill="#181818" points="260.12,388.78,269.8785,390.1114,264.9216,387.3856,267.6474,382.4288,260.12,388.78" style="stroke:#181818;stroke-width:1.0;"/><text fill="#000000" font-family="sans-serif" font-size="13" lengthAdjust="spacing" textLength="7" x="448" y="338.3951">e</text></g><!--link N_4 to N_1--><g id="link_N_4_N_1"><path d="M457.83,250.51 C431.32,231.49 389.17,199.26 358,165.9 C355.9075,163.66 353.8619,161.1519 351.9561,158.6242 C351.0032,157.3604 350.0853,156.0917 349.2139,154.8492 C349.1595,154.7715 352.5409,159.6129 352.4868,159.5354 " fill="none" id="N_4-to-N_1" style="stroke:#181818;stroke-width:1.0;"/><polygon fill="#181818" points="349.0511,154.6165,350.9253,164.2854,351.9142,158.7156,357.4839,159.7045,349.0511,154.6165" style="stroke:#181818;stroke-width:1.0;"/><text fill="#000000" font-family="sans-serif" font-size="13" lengthAdjust="spacing" textLength="7" x="410" y="210.3951">h</text></g></g></svg>