<?xml version="1.0" encoding="us-ascii" standalone="no"?><svg xmlns="http://www.w3.org/2000/svg" xmlns:xlink="http://www.w3.org/1999/xlink" contentStyleType="text/css" height="439px" preserveAspectRatio="none" style="width:578px;height:439px;background:#FFFFFF;" version="1.1" viewBox="0 0 578 439" width="578px" zoomAndPan="magnify"><defs/><g><!--cluster N_1--><g id="cluster_N_1"><path d="M62.5,47.33 L324.5,47.33 A12.5,12.5 0 0 1 337,59.83 L337,69.9394 L50,69.9394 L50,59.83 A12.5,12.5 0 0 1 62.5,47.33 " fill="#F1F1F1" style="stroke:#F1F1F1;stroke-width:1.0;"/><rect fill="none" height="264" rx="12.5" ry="12.5" style="stroke:#000000;stroke-width:0.5;" width="287" x="50" y="47.33"/><line style="stroke:#000000;stroke-width:0.5;" x1="50" x2="337" y1="69.9394" y2="69.9394"/><text fill="#000000" font-family="sans-serif" font-size="14" lengthAdjust="spacing" textLength="9" x="181" y="65.8632">A</text></g><g id="N_1.N_1_1"><rect fill="#F1F1F1" height="50" rx="12.5" ry="12.5" style="stroke:#000000;stroke-width:0.5;" width="50" x="74" y="109.33"/><line style="stroke:#000000;stroke-width:0.5;" x1="74" x2="124" y1="136.9394" y2="136.9394"/><text fill="#000000" font-family="sans-serif" font-size="14" lengthAdjust="spacing" textLength="9" x="94.5" y="128.8632">F</text></g><g id="N_1.N_1_2"><rect fill="#F1F1F1" height="50" rx="12.5" ry="12.5" style="stroke:#000000;stroke-width:0.5;" width="50" x="244" y="109.33"/><line style="stroke:#000000;stroke-width:0.5;" x1="244" x2="294" y1="136.9394" y2="136.9394"/><text fill="#000000" font-family="sans-serif" font-size="14" lengthAdjust="spacing" textLength="11" x="263.5" y="128.8632">G</text></g><g id="N_1.N_1_3"><rect fill="#F1F1F1" height="50" rx="12.5" ry="12.5" style="stroke:#000000;stroke-width:0.5;" width="50" x="159" y="109.33"/><line style="stroke:#000000;stroke-width:0.5;" x1="159" x2="209" y1="136.9394" y2="136.9394"/><text fill="#000000" font-family="sans-serif" font-size="14" lengthAdjust="spacing" textLength="9" x="179.5" y="128.8632">H</text></g><g id="N_1.N_1_4"><rect fill="#F1F1F1" height="50" rx="12.5" ry="12.5" style="stroke:#000000;stroke-width:0.5;" width="50" x="84" y="237.33"/><line style="stroke:#000000;stroke-width:0.5;" x1="84" x2="134" y1="264.9394" y2="264.9394"/><text fill="#000000" font-family="sans-serif" font-size="14" lengthAdjust="spacing" textLength="3" x="107.5" y="256.8632">I</text></g><g id="N_2"><rect fill="#F1F1F1" height="50" rx="12.5" ry="12.5" style="stroke:#000000;stroke-width:0.5;" width="50" x="361" y="237.33"/><line style="stroke:#000000;stroke-width:0.5;" x1="361" x2="411" y1="264.9394" y2="264.9394"/><text fill="#000000" font-family="sans-serif" font-size="14" lengthAdjust="spacing" textLength="9" x="381.5" y="256.8632">B</text></g><g id="N_3"><rect fill="#F1F1F1" height="50" rx="12.5" ry="12.5" style="stroke:#000000;stroke-width:0.5;" width="50" x="456" y="383.33"/><line style="stroke:#000000;stroke-width:0.5;" x1="456" x2="506" y1="410.9394" y2="410.9394"/><text fill="#000000" font-family="sans-serif" font-size="14" lengthAdjust="spacing" textLength="10" x="476" y="402.8632">C</text></g><g id="N_4"><rect fill="#F1F1F1" height="50" rx="12.5" ry="12.5" style="stroke:#000000;stroke-width:0.5;" width="50" x="148" y="383.33"/><line style="stroke:#000000;stroke-width:0.5;" x1="148" x2="198" y1="410.9394" y2="410.9394"/><text fill="#000000" font-family="sans-serif" font-size="14" lengthAdjust="spacing" textLength="10" x="168" y="402.8632">D</text></g><g id="N_5"><rect fill="#F1F1F1" height="50" rx="12.5" ry="12.5" style="stroke:#000000;stroke-width:0.5;" width="50" x="521" y="237.33"/><line style="stroke:#000000;stroke-width:0.5;" x1="521" x2="571" y1="264.9394" y2="264.9394"/><text fill="#000000" font-family="sans-serif" font-size="14" lengthAdjust="spacing" textLength="9" x="541.5" y="256.8632">E</text></g><ellipse cx="16" cy="134.33" fill="#222222" rx="10" ry="10" style="stroke:#222222;stroke-width:1.0;"/><!--link N_1_1 to N_1_4--><g id="link_N_1_1_N_1_4"><path d="M100.93,159.62 C102.7,181.94 104.835,208.8388 106.605,231.1288 " fill="none" id="N_1_1-to-N_1_4" style="stroke:#181818;stroke-width:1.0;"/><polygon fill="#181818" points="107.08,237.11,110.355,227.8216,106.6842,232.1257,102.3801,228.4549,107.08,237.11" style="stroke:#181818;stroke-width:1.0;"/><text fill="#000000" font-family="sans-serif" font-size="13" lengthAdjust="spacing" textLength="7" x="105" y="203.8251">b</text></g><!--link N_1_4 to N_1_1--><g id="link_N_1_4_N_1_1"><path d="M116.14,237.26 C119.35,223.23 121.85,205.23 119,189.33 C117.2,179.29 115.8662,174.2597 112.2562,165.1297 " fill="none" id="N_1_4-to-N_1_1" style="stroke:#181818;stroke-width:1.0;"/><polygon fill="#181818" points="110.05,159.55,109.6395,169.3903,111.8885,164.1997,117.0791,166.4487,110.05,159.55" style="stroke:#181818;stroke-width:1.0;"/><text fill="#000000" font-family="sans-serif" font-size="13" lengthAdjust="spacing" textLength="7" x="121" y="203.8251">e</text></g><!--link *start* to N_1_2--><g id="link_*start*_N_1_2"><path d="M16.89,124.09 C19.77,98.5 31.39,32.65 75.5,16.33 C103.43,6 181.57,6 209.5,16.33 C246.62,30.06 259.7064,72.948 264.9664,103.328 " fill="none" id="*start*-to-N_1_2" style="stroke:#181818;stroke-width:1.0;"/><polygon fill="#181818" points="265.99,109.24,268.3959,99.6895,265.137,104.3133,260.5132,101.0543,265.99,109.24" style="stroke:#181818;stroke-width:1.0;"/></g><!--link N_1 to N_5--><g id="link_N_1_N_5"><path d="M337.3659,135.8416 C337.4899,135.851 337.6151,135.8607 337.7416,135.8704 C338.7534,135.9487 339.8444,136.0374 341.0101,136.1378 C343.3415,136.3387 345.9716,136.5865 348.8638,136.8909 C360.4325,138.1088 376.195,140.2338 393.81,143.895 C429.04,151.2175 471.68,164.685 503,189.33 C518.68,201.66 527.4351,215.9452 534.4751,231.6452 " fill="none" id="N_1-to-N_5" style="stroke:#181818;stroke-width:1.0;"/><polygon fill="#181818" points="536.93,237.12,536.8975,227.2712,534.8842,232.5577,529.5977,230.5444,536.93,237.12" style="stroke:#181818;stroke-width:1.0;"/><text fill="#000000" font-family="sans-serif" font-size="13" lengthAdjust="spacing" textLength="7" x="519" y="203.8251">a</text></g><!--link N_1_2 to N_3--><g id="link_N_1_2_N_3"><path d="M294.12,156.51 C295.42,157.48 296.72,158.43 298,159.33 C353.38,198.38 387.17,184.02 429,237.33 C463.39,281.15 474.4787,341.7266 478.4087,377.1666 " fill="none" id="N_1_2-to-N_3" style="stroke:#181818;stroke-width:1.0;"/><polygon fill="#181818" points="479.07,383.13,482.0537,373.744,478.5189,378.1605,474.1024,374.6257,479.07,383.13" style="stroke:#181818;stroke-width:1.0;"/><text fill="#000000" font-family="sans-serif" font-size="13" lengthAdjust="spacing" textLength="3" x="470" y="267.8251">f</text></g><!--link N_1_3 to N_2--><g id="link_N_1_3_N_2"><path d="M209.18,151.03 C247.99,175.24 316.9189,218.245 355.7389,242.455 " fill="none" id="N_1_3-to-N_2" style="stroke:#181818;stroke-width:1.0;"/><polygon fill="#181818" points="360.83,245.63,355.3101,237.4734,356.5874,242.9841,351.0767,244.2615,360.83,245.63" style="stroke:#181818;stroke-width:1.0;"/><text fill="#000000" font-family="sans-serif" font-size="13" lengthAdjust="spacing" textLength="7" x="298" y="203.8251">g</text></g><!--link N_1_4 to N_4--><g id="link_N_1_4_N_4"><path d="M119.71,287.43 C131.53,314.01 147.9826,351.0574 159.8126,377.6674 " fill="none" id="N_1_4-to-N_4" style="stroke:#181818;stroke-width:1.0;"/><polygon fill="#181818" points="162.25,383.15,162.249,373.3011,160.2188,378.5812,154.9388,376.551,162.25,383.15" style="stroke:#181818;stroke-width:1.0;"/><text fill="#000000" font-family="sans-serif" font-size="13" lengthAdjust="spacing" textLength="7" x="149" y="349.8251">h</text></g><!--link N_2 to N_3--><g id="link_N_2_N_3"><path d="M401.9,287.43 C419.44,314.01 444.1853,351.5321 461.7453,378.1421 " fill="none" id="N_2-to-N_3" style="stroke:#181818;stroke-width:1.0;"/><polygon fill="#181818" points="465.05,383.15,463.4315,373.435,462.2961,378.9768,456.7543,377.8413,465.05,383.15" style="stroke:#181818;stroke-width:1.0;"/><text fill="#000000" font-family="sans-serif" font-size="13" lengthAdjust="spacing" textLength="7" x="445" y="349.8251">c</text></g><!--link N_3 to N_3--><g id="link_N_3_N_3"><path d="M506.28,397.5 C523.77,394.22 541,397.83 541,408.33 C541,418.83 529.6672,423.5459 512.1772,420.2659 " fill="none" id="N_3-to-N_3" style="stroke:#181818;stroke-width:1.0;"/><polygon fill="#181818" points="506.28,419.16,514.3885,424.7504,511.1943,420.0816,515.8631,416.8874,506.28,419.16" style="stroke:#181818;stroke-width:1.0;"/><text fill="#000000" font-family="sans-serif" font-size="13" lengthAdjust="spacing" textLength="7" x="547" y="413.8251">d</text></g><!--link N_4 to N_1_3--><g id="link_N_4_N_1_3"><path d="M173.97,383.25 C176.06,331.68 180.6984,217.0751 182.7784,165.4651 " fill="none" id="N_4-to-N_1_3" style="stroke:#181818;stroke-width:1.0;"/><polygon fill="#181818" points="183.02,159.47,178.6608,168.3016,182.8187,164.4659,186.6543,168.6238,183.02,159.47" style="stroke:#181818;stroke-width:1.0;"/><text fill="#000000" font-family="sans-serif" font-size="13" lengthAdjust="spacing" textLength="3" x="180" y="267.8251">i</text></g><!--link N_5 to N_3--><g id="link_N_5_N_3"><path d="M535.12,287.43 C523.12,314.01 506.3983,351.0712 494.3883,377.6812 " fill="none" id="N_5-to-N_3" style="stroke:#181818;stroke-width:1.0;"/><polygon fill="#181818" points="491.92,383.15,499.2682,376.5923,493.9769,378.5927,491.9765,373.3013,491.92,383.15" style="stroke:#181818;stroke-width:1.0;"/><text fill="#000000" font-family="sans-serif" font-size="13" lengthAdjust="spacing" textLength="3" x="514" y="349.8251">j</text></g></g></svg>