<?xml version="1.0" encoding="us-ascii" standalone="no"?><svg xmlns="http://www.w3.org/2000/svg" xmlns:xlink="http://www.w3.org/1999/xlink" contentStyleType="text/css" height="565px" preserveAspectRatio="none" style="width:558px;height:565px;background:#FFFFFF;" version="1.1" viewBox="0 0 558 565" width="558px" zoomAndPan="magnify"><defs/><g><!--cluster N_1--><g id="cluster_N_1"><path d="M237.5,257 L532.5,257 A12.5,12.5 0 0 1 545,269.5 L545,279.6094 L225,279.6094 L225,269.5 A12.5,12.5 0 0 1 237.5,257 " fill="#F1F1F1" style="stroke:#F1F1F1;stroke-width:1.0;"/><rect fill="none" height="302" rx="12.5" ry="12.5" style="stroke:#000000;stroke-width:0.5;" width="320" x="225" y="257"/><line style="stroke:#000000;stroke-width:0.5;" x1="225" x2="545" y1="279.6094" y2="279.6094"/><text fill="#000000" font-family="sans-serif" font-size="14" lengthAdjust="spacing" textLength="9" x="372.5" y="275.5332">A</text></g><ellipse cx="309" cy="510" fill="none" rx="11" ry="11" style="stroke:#222222;stroke-width:1.0;"/><ellipse cx="309" cy="510" fill="#222222" rx="6" ry="6" style="stroke:#222222;stroke-width:1.0;"/><g id="N_1.N_1_2"><rect fill="#F1F1F1" height="50" rx="12.5" ry="12.5" style="stroke:#000000;stroke-width:0.5;" width="50" x="268" y="357"/><line style="stroke:#000000;stroke-width:0.5;" x1="268" x2="318" y1="384.6094" y2="384.6094"/><text fill="#000000" font-family="sans-serif" font-size="14" lengthAdjust="spacing" textLength="9" x="288.5" y="376.5332">F</text></g><g id="N_1.N_1_3"><rect fill="#F1F1F1" height="50" rx="12.5" ry="12.5" style="stroke:#000000;stroke-width:0.5;" width="50" x="353" y="357"/><line style="stroke:#000000;stroke-width:0.5;" x1="353" x2="403" y1="384.6094" y2="384.6094"/><text fill="#000000" font-family="sans-serif" font-size="14" lengthAdjust="spacing" textLength="11" x="372.5" y="376.5332">G</text></g><g id="N_1.N_1_4"><rect fill="#F1F1F1" height="50" rx="12.5" ry="12.5" style="stroke:#000000;stroke-width:0.5;" width="50" x="378" y="485"/><line style="stroke:#000000;stroke-width:0.5;" x1="378" x2="428" y1="512.6094" y2="512.6094"/><text fill="#000000" font-family="sans-serif" font-size="14" lengthAdjust="spacing" textLength="9" x="398.5" y="504.5332">H</text></g><g id="N_1.N_1_5"><rect fill="#F1F1F1" height="50" rx="12.5" ry="12.5" style="stroke:#000000;stroke-width:0.5;" width="50" x="438" y="357"/><line style="stroke:#000000;stroke-width:0.5;" x1="438" x2="488" y1="384.6094" y2="384.6094"/><text fill="#000000" font-family="sans-serif" font-size="14" lengthAdjust="spacing" textLength="3" x="461.5" y="376.5332">I</text></g><g id="N_2"><rect fill="#F1F1F1" height="50" rx="12.5" ry="12.5" style="stroke:#000000;stroke-width:0.5;" width="50" x="145" y="7"/><line style="stroke:#000000;stroke-width:0.5;" x1="145" x2="195" y1="34.6094" y2="34.6094"/><text fill="#000000" font-family="sans-serif" font-size="14" lengthAdjust="spacing" textLength="9" x="165.5" y="26.5332">B</text></g><g id="N_3"><rect fill="#F1F1F1" height="50" rx="12.5" ry="12.5" style="stroke:#000000;stroke-width:0.5;" width="50" x="220" y="135"/><line style="stroke:#000000;stroke-width:0.5;" x1="220" x2="270" y1="162.6094" y2="162.6094"/><text fill="#000000" font-family="sans-serif" font-size="14" lengthAdjust="spacing" textLength="10" x="240" y="154.5332">C</text></g><g id="N_4"><rect fill="#F1F1F1" height="50" rx="12.5" ry="12.5" style="stroke:#000000;stroke-width:0.5;" width="50" x="323" y="135"/><line style="stroke:#000000;stroke-width:0.5;" x1="323" x2="373" y1="162.6094" y2="162.6094"/><text fill="#000000" font-family="sans-serif" font-size="14" lengthAdjust="spacing" textLength="10" x="343" y="154.5332">D</text></g><g id="N_5"><rect fill="#F1F1F1" height="50" rx="12.5" ry="12.5" style="stroke:#000000;stroke-width:0.5;" width="50" x="7" y="357"/><line style="stroke:#000000;stroke-width:0.5;" x1="7" x2="57" y1="384.6094" y2="384.6094"/><text fill="#000000" font-family="sans-serif" font-size="14" lengthAdjust="spacing" textLength="9" x="27.5" y="376.5332">E</text></g><ellipse cx="188" cy="382" fill="#222222" rx="10" ry="10" style="stroke:#222222;stroke-width:1.0;"/><!--link N_1_3 to N_1_1--><g id="link_N_1_3_N_1_1"><path d="M364.7,407.29 C349.19,435.61 327.2331,475.7081 316.7731,494.7981 " fill="none" id="N_1_3-to-N_1_1" style="stroke:#181818;stroke-width:1.0;"/><polygon fill="#181818" points="313.89,500.06,321.7226,494.0893,316.2926,495.6751,314.7068,490.2451,313.89,500.06" style="stroke:#181818;stroke-width:1.0;"/><text fill="#000000" font-family="sans-serif" font-size="13" lengthAdjust="spacing" textLength="7" x="348" y="451.4951">g</text></g><!--link N_1_5 to N_1_4--><g id="link_N_1_5_N_1_4"><path d="M451.43,407.29 C440.81,429.61 427.7307,457.0734 417.1107,479.3634 " fill="none" id="N_1_5-to-N_1_4" style="stroke:#181818;stroke-width:1.0;"/><polygon fill="#181818" points="414.53,484.78,422.0122,478.3756,416.6806,480.2661,414.79,474.9346,414.53,484.78" style="stroke:#181818;stroke-width:1.0;"/><text fill="#000000" font-family="sans-serif" font-size="13" lengthAdjust="spacing" textLength="3" x="437" y="451.4951">j</text></g><!--link N_1_5 to N_1_5--><g id="link_N_1_5_N_1_5"><path d="M488.28,371.17 C505.77,367.89 523,371.5 523,382 C523,392.5 511.6672,397.2159 494.1772,393.9359 " fill="none" id="N_1_5-to-N_1_5" style="stroke:#181818;stroke-width:1.0;"/><polygon fill="#181818" points="488.28,392.83,496.3885,398.4204,493.1943,393.7516,497.8631,390.5574,488.28,392.83" style="stroke:#181818;stroke-width:1.0;"/><text fill="#000000" font-family="sans-serif" font-size="13" lengthAdjust="spacing" textLength="3" x="529" y="387.4951">f</text></g><!--link *start* to N_1_5--><g id="link_*start*_N_1_5"><path d="M186.7,371.96 C183.26,340.55 177.81,244.42 234.5,213 C300.2,176.59 337.8,176.59 403.5,213 C453.97,240.97 462.406,311.1415 463.296,350.9715 " fill="none" id="*start*-to-N_1_5" style="stroke:#181818;stroke-width:1.0;"/><polygon fill="#181818" points="463.43,356.97,467.2279,347.8829,463.3183,351.9712,459.2299,348.0616,463.43,356.97" style="stroke:#181818;stroke-width:1.0;"/></g><!--link N_1 to N_3--><g id="link_N_1_N_3"><path d="M235.3934,256.9681 C235.6173,252.2465 235.8613,247.5184 236.1273,242.8099 C236.6592,233.3928 237.2788,224.0538 238,215 C238.78,205.2 239.269,200.3949 240.539,191.0849 " fill="none" id="N_1-to-N_3" style="stroke:#181818;stroke-width:1.0;"/><polygon fill="#181818" points="241.35,185.14,236.1703,193.5168,240.6742,190.0941,244.0968,194.5981,241.35,185.14" style="stroke:#181818;stroke-width:1.0;"/><text fill="#000000" font-family="sans-serif" font-size="13" lengthAdjust="spacing" textLength="7" x="239" y="229.4951">e</text></g><!--link N_1_2 to N_5--><g id="link_N_1_2_N_5"><path d="M295.24,356.96 C296.24,328.4 292.78,282.74 264,260 C227.73,231.34 202.91,242.83 160,260 C111.41,279.45 74.306,322.27 52.576,351.93 " fill="none" id="N_1_2-to-N_5" style="stroke:#181818;stroke-width:1.0;"/><polygon fill="#181818" points="49.03,356.77,57.5757,351.8739,51.985,352.7366,51.1223,347.146,49.03,356.77" style="stroke:#181818;stroke-width:1.0;"/><text fill="#000000" font-family="sans-serif" font-size="13" lengthAdjust="spacing" textLength="7" x="92.5" y="229.4951">a</text></g><!--link N_1_4 to N_2--><g id="link_N_1_4_N_2"><path d="M377.79,499.29 C316.93,475.72 166.46,416.72 160,407 C85.74,295.3 135.7528,126.0936 158.6528,62.6536 " fill="none" id="N_1_4-to-N_2" style="stroke:#181818;stroke-width:1.0;"/><polygon fill="#181818" points="160.69,57.01,153.8719,64.1173,158.9924,61.713,161.3966,66.8335,160.69,57.01" style="stroke:#181818;stroke-width:1.0;"/><text fill="#000000" font-family="sans-serif" font-size="13" lengthAdjust="spacing" textLength="3" x="125" y="229.4951">i</text></g><!--link N_2 to N_4--><g id="link_N_2_N_4"><path d="M195.13,50.79 C228.95,74.73 283.9025,113.6338 317.8125,137.6338 " fill="none" id="N_2-to-N_4" style="stroke:#181818;stroke-width:1.0;"/><polygon fill="#181818" points="322.71,141.1,317.6746,132.6357,318.6288,138.2115,313.053,139.1657,322.71,141.1" style="stroke:#181818;stroke-width:1.0;"/><text fill="#000000" font-family="sans-serif" font-size="13" lengthAdjust="spacing" textLength="7" x="270" y="101.4951">b</text></g><!--link N_3 to N_1_2--><g id="link_N_3_N_1_2"><path d="M250.92,185.11 C254.76,200.97 259.82,222.19 264,241 C273.02,281.59 281.4745,323.1163 287.0545,351.0463 " fill="none" id="N_3-to-N_1_2" style="stroke:#181818;stroke-width:1.0;"/><polygon fill="#181818" points="288.23,356.93,290.3893,347.3208,287.2504,352.0269,282.5443,348.8881,288.23,356.93" style="stroke:#181818;stroke-width:1.0;"/><text fill="#000000" font-family="sans-serif" font-size="13" lengthAdjust="spacing" textLength="7" x="263" y="229.4951">c</text></g><!--link N_4 to N_1_3--><g id="link_N_4_N_1_3"><path d="M351.33,185.38 C357.11,227.78 368.1393,308.655 373.8993,350.895 " fill="none" id="N_4-to-N_1_3" style="stroke:#181818;stroke-width:1.0;"/><polygon fill="#181818" points="374.71,356.84,377.4573,347.3821,374.0344,351.8858,369.5307,348.463,374.71,356.84" style="stroke:#181818;stroke-width:1.0;"/><text fill="#000000" font-family="sans-serif" font-size="13" lengthAdjust="spacing" textLength="7" x="358" y="229.4951">d</text></g><!--link N_5 to N_1_1--><g id="link_N_5_N_1_1"><path d="M45.7,407.2 C55.92,423.11 71.32,443.1 90,455 C160.02,499.6 258.2648,507.1303 292.0248,508.4803 " fill="none" id="N_5-to-N_1_1" style="stroke:#181818;stroke-width:1.0;"/><polygon fill="#181818" points="298.02,508.72,289.187,504.3636,293.024,508.5202,288.8674,512.3572,298.02,508.72" style="stroke:#181818;stroke-width:1.0;"/><text fill="#000000" font-family="sans-serif" font-size="13" lengthAdjust="spacing" textLength="7" x="91" y="451.4951">h</text></g></g></svg>