<?xml version="1.0" encoding="us-ascii" standalone="no"?><svg xmlns="http://www.w3.org/2000/svg" xmlns:xlink="http://www.w3.org/1999/xlink" contentStyleType="text/css" height="559px" preserveAspectRatio="none" style="width:460px;height:559px;background:#FFFFFF;" version="1.1" viewBox="0 0 460 559" width="460px" zoomAndPan="magnify"><defs/><g><!--cluster N_1--><g id="cluster_N_1"><path d="M19.5,129 L281.5,129 A12.5,12.5 0 0 1 294,141.5 L294,151.6094 L7,151.6094 L7,141.5 A12.5,12.5 0 0 1 19.5,129 " fill="#F1F1F1" style="stroke:#F1F1F1;stroke-width:1.0;"/><rect fill="none" height="302" rx="12.5" ry="12.5" style="stroke:#000000;stroke-width:0.5;" width="287" x="7" y="129"/><line style="stroke:#000000;stroke-width:0.5;" x1="7" x2="294" y1="151.6094" y2="151.6094"/><text fill="#000000" font-family="sans-serif" font-size="14" lengthAdjust="spacing" textLength="9" x="138" y="147.5332">A</text></g><g id="N_1.N_1_1"><rect fill="#F1F1F1" height="50" rx="12.5" ry="12.5" style="stroke:#000000;stroke-width:0.5;" width="50" x="201" y="229"/><line style="stroke:#000000;stroke-width:0.5;" x1="201" x2="251" y1="256.6094" y2="256.6094"/><text fill="#000000" font-family="sans-serif" font-size="14" lengthAdjust="spacing" textLength="9" x="221.5" y="248.5332">F</text></g><g id="N_1.N_1_2"><rect fill="#F1F1F1" height="50" rx="12.5" ry="12.5" style="stroke:#000000;stroke-width:0.5;" width="50" x="41" y="357"/><line style="stroke:#000000;stroke-width:0.5;" x1="41" x2="91" y1="384.6094" y2="384.6094"/><text fill="#000000" font-family="sans-serif" font-size="14" lengthAdjust="spacing" textLength="11" x="60.5" y="376.5332">G</text></g><g id="N_1.N_1_3"><rect fill="#F1F1F1" height="50" rx="12.5" ry="12.5" style="stroke:#000000;stroke-width:0.5;" width="50" x="31" y="229"/><line style="stroke:#000000;stroke-width:0.5;" x1="31" x2="81" y1="256.6094" y2="256.6094"/><text fill="#000000" font-family="sans-serif" font-size="14" lengthAdjust="spacing" textLength="9" x="51.5" y="248.5332">H</text></g><g id="N_1.N_1_4"><rect fill="#F1F1F1" height="50" rx="12.5" ry="12.5" style="stroke:#000000;stroke-width:0.5;" width="50" x="116" y="229"/><line style="stroke:#000000;stroke-width:0.5;" x1="116" x2="166" y1="256.6094" y2="256.6094"/><text fill="#000000" font-family="sans-serif" font-size="14" lengthAdjust="spacing" textLength="3" x="139.5" y="248.5332">I</text></g><g id="N_2"><rect fill="#F1F1F1" height="50" rx="12.5" ry="12.5" style="stroke:#000000;stroke-width:0.5;" width="50" x="201" y="7"/><line style="stroke:#000000;stroke-width:0.5;" x1="201" x2="251" y1="34.6094" y2="34.6094"/><text fill="#000000" font-family="sans-serif" font-size="14" lengthAdjust="spacing" textLength="9" x="221.5" y="26.5332">B</text></g><g id="N_3"><rect fill="#F1F1F1" height="50" rx="12.5" ry="12.5" style="stroke:#000000;stroke-width:0.5;" width="50" x="165" y="503"/><line style="stroke:#000000;stroke-width:0.5;" x1="165" x2="215" y1="530.6094" y2="530.6094"/><text fill="#000000" font-family="sans-serif" font-size="14" lengthAdjust="spacing" textLength="10" x="185" y="522.5332">C</text></g><g id="N_4"><rect fill="#F1F1F1" height="50" rx="12.5" ry="12.5" style="stroke:#000000;stroke-width:0.5;" width="50" x="318" y="357"/><line style="stroke:#000000;stroke-width:0.5;" x1="318" x2="368" y1="384.6094" y2="384.6094"/><text fill="#000000" font-family="sans-serif" font-size="14" lengthAdjust="spacing" textLength="10" x="338" y="376.5332">D</text></g><g id="N_5"><rect fill="#F1F1F1" height="50" rx="12.5" ry="12.5" style="stroke:#000000;stroke-width:0.5;" width="50" x="403" y="357"/><line style="stroke:#000000;stroke-width:0.5;" x1="403" x2="453" y1="384.6094" y2="384.6094"/><text fill="#000000" font-family="sans-serif" font-size="14" lengthAdjust="spacing" textLength="9" x="423.5" y="376.5332">E</text></g><ellipse cx="156" cy="32" fill="#222222" rx="10" ry="10" style="stroke:#222222;stroke-width:1.0;"/><!--link N_1_3 to N_1_2--><g id="link_N_1_3_N_1_2"><path d="M57.93,279.29 C59.7,301.61 61.835,328.5088 63.605,350.7988 " fill="none" id="N_1_3-to-N_1_2" style="stroke:#181818;stroke-width:1.0;"/><polygon fill="#181818" points="64.08,356.78,67.355,347.4916,63.6842,351.7957,59.3801,348.1249,64.08,356.78" style="stroke:#181818;stroke-width:1.0;"/><text fill="#000000" font-family="sans-serif" font-size="13" lengthAdjust="spacing" textLength="3" x="63" y="323.4951">i</text></g><!--link *start* to N_2--><g id="link_*start*_N_2"><path d="M166.12,32 C177.66,32 183.2,32 194.74,32 " fill="none" id="*start*-to-N_2" style="stroke:#181818;stroke-width:1.0;"/><polygon fill="#181818" points="200.74,32,191.74,28,195.74,32,191.74,36,200.74,32" style="stroke:#181818;stroke-width:1.0;"/></g><!--link N_1 to N_4--><g id="link_N_1_N_4"><path d="M294.0054,256.4282 C295.5445,256.7394 297.2732,257.1072 299.1628,257.5369 C306.7213,259.2556 316.8538,261.965 327.72,266.0075 C349.4525,274.0925 374.12,287.51 387,309 C397.62,326.72 387.5278,342.6147 372.4278,357.0447 " fill="none" id="N_1-to-N_4" style="stroke:#181818;stroke-width:1.0;"/><polygon fill="#181818" points="368.09,361.19,377.3602,357.8639,371.7048,357.7356,371.8331,352.0802,368.09,361.19" style="stroke:#181818;stroke-width:1.0;"/><text fill="#000000" font-family="sans-serif" font-size="13" lengthAdjust="spacing" textLength="7" x="391" y="323.4951">e</text></g><!--link N_1_1 to N_5--><g id="link_N_1_1_N_5"><path d="M251.27,276.71 C252.5,277.52 253.75,278.29 255,279 C289.06,298.46 303.78,289.82 338,309 C361.74,322.3 381.1835,337.7949 398.3835,353.1449 " fill="none" id="N_1_1-to-N_5" style="stroke:#181818;stroke-width:1.0;"/><polygon fill="#181818" points="402.86,357.14,398.8085,348.163,399.1295,353.8108,393.4818,354.1318,402.86,357.14" style="stroke:#181818;stroke-width:1.0;"/><text fill="#000000" font-family="sans-serif" font-size="13" lengthAdjust="spacing" textLength="7" x="365" y="323.4951">b</text></g><!--link N_1_2 to N_4--><g id="link_N_1_2_N_4"><path d="M91.08,362.37 C113.95,345.81 149.43,323.35 184.5,314 C233.54,300.93 282.4457,331.2307 313.0557,355.7307 " fill="none" id="N_1_2-to-N_4" style="stroke:#181818;stroke-width:1.0;"/><polygon fill="#181818" points="317.74,359.48,313.2131,350.7332,313.8364,356.3556,308.214,356.9789,317.74,359.48" style="stroke:#181818;stroke-width:1.0;"/><text fill="#000000" font-family="sans-serif" font-size="13" lengthAdjust="spacing" textLength="7" x="185.5" y="323.4951">c</text></g><!--link N_1_3 to N_4--><g id="link_N_1_3_N_4"><path d="M81.31,270.64 C86.7,273.64 92.45,276.59 98,279 C139.39,296.97 153.03,292.41 195,309 C218.92,318.45 277.0177,347.4985 312.5877,365.5185 " fill="none" id="N_1_3-to-N_4" style="stroke:#181818;stroke-width:1.0;"/><polygon fill="#181818" points="317.94,368.23,311.7192,360.5945,313.4797,365.9704,308.1038,367.7309,317.94,368.23" style="stroke:#181818;stroke-width:1.0;"/><text fill="#000000" font-family="sans-serif" font-size="13" lengthAdjust="spacing" textLength="7" x="236" y="323.4951">a</text></g><!--link N_1_4 to N_4--><g id="link_N_1_4_N_4"><path d="M166.24,270.79 C171.65,273.78 177.41,276.69 183,279 C229.82,298.39 251.61,279.76 293,309 C310.15,321.12 320.4978,335.8059 329.0178,351.6459 " fill="none" id="N_1_4-to-N_4" style="stroke:#181818;stroke-width:1.0;"/><polygon fill="#181818" points="331.86,356.93,331.1194,347.109,329.4915,352.5266,324.0739,350.8986,331.86,356.93" style="stroke:#181818;stroke-width:1.0;"/><text fill="#000000" font-family="sans-serif" font-size="13" lengthAdjust="spacing" textLength="3" x="312" y="323.4951">j</text></g><!--link N_4 to N_1_4--><g id="link_N_4_N_1_4"><path d="M317.78,360.79 C298.25,345.62 270.2,324.81 244,309 C218.13,293.39 209.68,293.17 183,279 C177.51,276.09 176.907,275.8136 171.397,272.6836 " fill="none" id="N_4-to-N_1_4" style="stroke:#181818;stroke-width:1.0;"/><polygon fill="#181818" points="166.18,269.72,172.0298,277.6434,170.5275,272.1896,175.9812,270.6873,166.18,269.72" style="stroke:#181818;stroke-width:1.0;"/><text fill="#000000" font-family="sans-serif" font-size="13" lengthAdjust="spacing" textLength="7" x="270" y="323.4951">g</text></g><!--link N_2 to N_1_1--><g id="link_N_2_N_1_1"><path d="M226,57.38 C226,99.78 226,180.6 226,222.84 " fill="none" id="N_2-to-N_1_1" style="stroke:#181818;stroke-width:1.0;"/><polygon fill="#181818" points="226,228.84,230,219.84,226,223.84,222,219.84,226,228.84" style="stroke:#181818;stroke-width:1.0;"/><text fill="#000000" font-family="sans-serif" font-size="13" lengthAdjust="spacing" textLength="7" x="227" y="101.4951">d</text></g><!--link N_3 to N_1_3--><g id="link_N_3_N_1_3"><path d="M178.62,502.99 C162.94,469.99 133.7,408.81 108,357 C94.75,330.29 81.9293,305.193 71.2993,284.573 " fill="none" id="N_3-to-N_1_3" style="stroke:#181818;stroke-width:1.0;"/><polygon fill="#181818" points="68.55,279.24,69.1186,289.0724,70.8411,283.6842,76.2293,285.4067,68.55,279.24" style="stroke:#181818;stroke-width:1.0;"/><text fill="#000000" font-family="sans-serif" font-size="13" lengthAdjust="spacing" textLength="3" x="153" y="387.4951">f</text></g><!--link N_5 to N_3--><g id="link_N_5_N_3"><path d="M416.68,407.2 C409.47,420.44 399.03,436.27 386,447 C333.65,490.1 260.7957,511.2782 220.9257,520.4982 " fill="none" id="N_5-to-N_3" style="stroke:#181818;stroke-width:1.0;"/><polygon fill="#181818" points="215.08,521.85,224.7498,523.7194,219.9514,520.7235,222.9474,515.9251,215.08,521.85" style="stroke:#181818;stroke-width:1.0;"/><text fill="#000000" font-family="sans-serif" font-size="13" lengthAdjust="spacing" textLength="7" x="373" y="469.4951">h</text></g></g></svg>