<?xml version="1.0" encoding="us-ascii" standalone="no"?><svg xmlns="http://www.w3.org/2000/svg" xmlns:xlink="http://www.w3.org/1999/xlink" contentStyleType="text/css" height="450px" preserveAspectRatio="none" style="width:466px;height:450px;background:#FFFFFF;" version="1.1" viewBox="0 0 466 450" width="466px" zoomAndPan="magnify"><defs/><g><!--cluster N_1--><g id="cluster_N_1"><path d="M178.5,58.99 L440.5,58.99 A12.5,12.5 0 0 1 453,71.49 L453,81.5994 L166,81.5994 L166,71.49 A12.5,12.5 0 0 1 178.5,58.99 " fill="#F1F1F1" style="stroke:#F1F1F1;stroke-width:1.0;"/><rect fill="none" height="264" rx="12.5" ry="12.5" style="stroke:#E080F9;stroke-width:0.5;" width="287" x="166" y="58.99"/><line style="stroke:#E080F9;stroke-width:0.5;" x1="166" x2="453" y1="81.5994" y2="81.5994"/><text fill="#E080F9" font-family="sans-serif" font-size="14" lengthAdjust="spacing" textLength="9" x="297" y="77.5232">A</text></g><g id="N_1.N_1_1"><rect fill="#F1F1F1" height="50" rx="12.5" ry="12.5" style="stroke:#C72C53;stroke-width:0.5;" width="50" x="209" y="120.99"/><line style="stroke:#C72C53;stroke-width:0.5;" x1="209" x2="259" y1="148.5994" y2="148.5994"/><text fill="#C72C53" font-family="sans-serif" font-size="14" lengthAdjust="spacing" textLength="9" x="229.5" y="140.5232">F</text></g><g id="N_1.N_1_2"><rect fill="#F1F1F1" height="50" rx="12.5" ry="12.5" style="stroke:#579454;stroke-width:0.5;" width="50" x="294" y="120.99"/><line style="stroke:#579454;stroke-width:0.5;" x1="294" x2="344" y1="148.5994" y2="148.5994"/><text fill="#579454" font-family="sans-serif" font-size="14" lengthAdjust="spacing" textLength="11" x="313.5" y="140.5232">G</text></g><g id="N_1.N_1_3"><rect fill="#F1F1F1" height="50" rx="12.5" ry="12.5" style="stroke:#828714;stroke-width:0.5;" width="50" x="379" y="120.99"/><line style="stroke:#828714;stroke-width:0.5;" x1="379" x2="429" y1="148.5994" y2="148.5994"/><text fill="#828714" font-family="sans-serif" font-size="14" lengthAdjust="spacing" textLength="9" x="399.5" y="140.5232">H</text></g><g id="N_1.N_1_4"><rect fill="#F1F1F1" height="50" rx="12.5" ry="12.5" style="stroke:#318992;stroke-width:0.5;" width="50" x="251" y="248.99"/><line style="stroke:#318992;stroke-width:0.5;" x1="251" x2="301" y1="276.5994" y2="276.5994"/><text fill="#318992" font-family="sans-serif" font-size="14" lengthAdjust="spacing" textLength="3" x="274.5" y="268.5232">I</text></g><g id="N_2"><rect fill="#F1F1F1" height="50" rx="12.5" ry="12.5" style="stroke:#E638B6;stroke-width:0.5;" width="50" x="92" y="248.99"/><line style="stroke:#E638B6;stroke-width:0.5;" x1="92" x2="142" y1="276.5994" y2="276.5994"/><text fill="#E638B6" font-family="sans-serif" font-size="14" lengthAdjust="spacing" textLength="9" x="112.5" y="268.5232">B</text></g><g id="N_3"><rect fill="#F1F1F1" height="50" rx="12.5" ry="12.5" style="stroke:#AF89CD;stroke-width:0.5;" width="50" x="295" y="394.99"/><line style="stroke:#AF89CD;stroke-width:0.5;" x1="295" x2="345" y1="422.5994" y2="422.5994"/><text fill="#AF89CD" font-family="sans-serif" font-size="14" lengthAdjust="spacing" textLength="10" x="315" y="414.5232">C</text></g><g id="N_4"><rect fill="#F1F1F1" height="50" rx="12.5" ry="12.5" style="stroke:#02E800;stroke-width:0.5;" width="50" x="206" y="394.99"/><line style="stroke:#02E800;stroke-width:0.5;" x1="206" x2="256" y1="422.5994" y2="422.5994"/><text fill="#02E800" font-family="sans-serif" font-size="14" lengthAdjust="spacing" textLength="10" x="226" y="414.5232">D</text></g><g id="N_5"><rect fill="#F1F1F1" height="50" rx="12.5" ry="12.5" style="stroke:#434197;stroke-width:0.5;" width="50" x="7" y="248.99"/><line style="stroke:#434197;stroke-width:0.5;" x1="7" x2="57" y1="276.5994" y2="276.5994"/><text fill="#434197" font-family="sans-serif" font-size="14" lengthAdjust="spacing" textLength="9" x="27.5" y="268.5232">E</text></g><ellipse cx="129" cy="145.99" fill="#222222" rx="10" ry="10" style="stroke:#222222;stroke-width:1.0;"/><!--link N_1_3 to N_1_4--><g id="link_N_1_3_N_1_4"><path d="M379.32,171.28 C356.65,193.6 327.5265,222.2715 304.8765,244.5615 " fill="none" id="N_1_3-to-N_1_4" style="stroke:#181818;stroke-width:1.0;"/><polygon fill="#181818" points="300.6,248.77,309.8204,245.3082,304.1637,245.2629,304.2091,239.6062,300.6,248.77" style="stroke:#181818;stroke-width:1.0;"/><text fill="#000000" font-family="sans-serif" font-size="13" lengthAdjust="spacing" textLength="3" x="348" y="215.4851">i</text></g><!--link N_1_4 to N_1_4--><g id="link_N_1_4_N_1_4"><path d="M301.28,263.16 C318.77,259.88 336,263.49 336,273.99 C336,284.49 324.6672,289.2059 307.1772,285.9259 " fill="none" id="N_1_4-to-N_1_4" style="stroke:#181818;stroke-width:1.0;"/><polygon fill="#181818" points="301.28,284.82,309.3885,290.4104,306.1943,285.7416,310.8631,282.5474,301.28,284.82" style="stroke:#181818;stroke-width:1.0;"/><text fill="#000000" font-family="sans-serif" font-size="13" lengthAdjust="spacing" textLength="3" x="342" y="279.4851">j</text></g><!--link *start* to N_1_2--><g id="link_*start*_N_1_2"><path d="M128.76,135.67 C128.81,109.9 133.16,43.65 175.5,27.99 C218.27,12.17 250.33,6 277,42.99 C294.17,66.8 304.024,92.9036 310.614,114.8436 " fill="none" id="*start*-to-N_1_2" style="stroke:#181818;stroke-width:1.0;"/><polygon fill="#181818" points="312.34,120.59,313.5819,110.8198,310.9017,115.8013,305.9201,113.1211,312.34,120.59" style="stroke:#181818;stroke-width:1.0;"/></g><!--link N_1 to N_5--><g id="link_N_1_N_5"><path d="M165.9489,159.7065 C165.8948,159.7839 165.8405,159.8615 165.7861,159.9392 C164.9147,161.1817 163.9968,162.4504 163.0439,163.7142 C161.1381,166.2419 159.0925,168.75 157,170.99 C148.47,180.12 95.7564,222.3758 61.7864,249.3858 " fill="none" id="N_1-to-N_5" style="stroke:#181818;stroke-width:1.0;"/><polygon fill="#181818" points="57.09,253.12,66.624,250.6497,61.0037,250.0082,61.6451,244.3878,57.09,253.12" style="stroke:#181818;stroke-width:1.0;"/><text fill="#000000" font-family="sans-serif" font-size="13" lengthAdjust="spacing" textLength="7" x="123" y="215.4851">c</text></g><!--link N_1_1 to N_2--><g id="link_N_1_1_N_2"><path d="M211.44,171.28 C190.72,193.6 164.2729,222.0834 143.5729,244.3734 " fill="none" id="N_1_1-to-N_2" style="stroke:#181818;stroke-width:1.0;"/><polygon fill="#181818" points="139.49,248.77,148.5454,244.8971,142.8924,245.1062,142.6834,239.4532,139.49,248.77" style="stroke:#181818;stroke-width:1.0;"/><text fill="#000000" font-family="sans-serif" font-size="13" lengthAdjust="spacing" textLength="7" x="183" y="215.4851">d</text></g><!--link N_2 to N_1_1--><g id="link_N_2_N_1_1"><path d="M124.18,248.73 C129.62,233.61 138.34,214.51 151,200.99 C169.76,180.95 182.33,186.47 205,170.99 C206.3,170.11 202.7604,172.7266 204.0704,171.7666 " fill="none" id="N_2-to-N_1_1" style="stroke:#181818;stroke-width:1.0;"/><polygon fill="#181818" points="208.91,168.22,199.2862,170.3135,204.877,171.1755,204.015,176.7663,208.91,168.22" style="stroke:#181818;stroke-width:1.0;"/><text fill="#000000" font-family="sans-serif" font-size="13" lengthAdjust="spacing" textLength="7" x="152" y="215.4851">a</text></g><!--link N_1_2 to N_2--><g id="link_N_1_2_N_2"><path d="M293.82,162.69 C255.01,186.9 186.0811,229.905 147.2611,254.115 " fill="none" id="N_1_2-to-N_2" style="stroke:#181818;stroke-width:1.0;"/><polygon fill="#181818" points="142.17,257.29,151.9233,255.9215,146.4126,254.6441,147.6899,249.1334,142.17,257.29" style="stroke:#181818;stroke-width:1.0;"/><text fill="#000000" font-family="sans-serif" font-size="13" lengthAdjust="spacing" textLength="7" x="231" y="215.4851">e</text></g><!--link N_1_4 to N_3--><g id="link_N_1_4_N_3"><path d="M283.36,299.09 C291.49,325.67 302.7269,362.4618 310.8569,389.0718 " fill="none" id="N_1_4-to-N_3" style="stroke:#181818;stroke-width:1.0;"/><polygon fill="#181818" points="312.61,394.81,313.8057,385.034,311.149,390.0282,306.1548,387.3715,312.61,394.81" style="stroke:#181818;stroke-width:1.0;"/><text fill="#000000" font-family="sans-serif" font-size="13" lengthAdjust="spacing" textLength="7" x="304" y="361.4851">h</text></g><!--link N_3 to N_1_3--><g id="link_N_3_N_1_3"><path d="M330.55,394.75 C337.18,379.03 345.65,358 352,338.99 C371.87,279.54 388.3153,213.718 397.0153,177.038 " fill="none" id="N_3-to-N_1_3" style="stroke:#181818;stroke-width:1.0;"/><polygon fill="#181818" points="398.4,171.2,392.4309,179.0339,397.2461,176.065,400.215,180.8802,398.4,171.2" style="stroke:#181818;stroke-width:1.0;"/><text fill="#000000" font-family="sans-serif" font-size="13" lengthAdjust="spacing" textLength="7" x="379" y="279.4851">b</text></g><!--link N_4 to N_1_4--><g id="link_N_4_N_1_4"><path d="M238.56,394.81 C246.87,368.2 258.3696,331.3966 266.6796,304.8166 " fill="none" id="N_4-to-N_1_4" style="stroke:#181818;stroke-width:1.0;"/><polygon fill="#181818" points="268.47,299.09,261.9667,306.4864,266.978,303.8622,269.6022,308.8736,268.47,299.09" style="stroke:#181818;stroke-width:1.0;"/><text fill="#000000" font-family="sans-serif" font-size="13" lengthAdjust="spacing" textLength="3" x="254" y="361.4851">f</text></g><!--link N_5 to N_4--><g id="link_N_5_N_4"><path d="M43.84,299.09 C51.16,312.14 61.53,327.81 74,338.99 C113.87,374.72 166.946,396.972 200.116,408.752 " fill="none" id="N_5-to-N_4" style="stroke:#181818;stroke-width:1.0;"/><polygon fill="#181818" points="205.77,410.76,198.6276,403.9787,201.0583,409.0867,195.9503,411.5174,205.77,410.76" style="stroke:#181818;stroke-width:1.0;"/><text fill="#000000" font-family="sans-serif" font-size="13" lengthAdjust="spacing" textLength="7" x="110" y="361.4851">g</text></g></g></svg>