<?xml version="1.0" encoding="us-ascii" standalone="no"?><svg xmlns="http://www.w3.org/2000/svg" xmlns:xlink="http://www.w3.org/1999/xlink" contentStyleType="text/css" height="456px" preserveAspectRatio="none" style="width:467px;height:456px;background:#FFFFFF;" version="1.1" viewBox="0 0 467 456" width="467px" zoomAndPan="magnify"><defs/><g><!--cluster N_1--><g id="cluster_N_1"><path d="M19.5,58.99 L240.5,58.99 A12.5,12.5 0 0 1 253,71.49 L253,81.5994 L7,81.5994 L7,71.49 A12.5,12.5 0 0 1 19.5,58.99 " fill="#F1F1F1" style="stroke:#F1F1F1;stroke-width:1.0;"/><rect fill="none" height="392" rx="12.5" ry="12.5" style="stroke:#CD70FC;stroke-width:0.5;" width="246" x="7" y="58.99"/><line style="stroke:#CD70FC;stroke-width:0.5;" x1="7" x2="253" y1="81.5994" y2="81.5994"/><text fill="#CD70FC" font-family="sans-serif" font-size="14" lengthAdjust="spacing" textLength="9" x="117.5" y="77.5232">A</text></g><g id="N_1.N_1_1"><rect fill="#F1F1F1" height="50" rx="12.5" ry="12.5" style="stroke:#043DBA;stroke-width:0.5;" width="50" x="81" y="376.99"/><line style="stroke:#043DBA;stroke-width:0.5;" x1="81" x2="131" y1="404.5994" y2="404.5994"/><text fill="#043DBA" font-family="sans-serif" font-size="14" lengthAdjust="spacing" textLength="9" x="101.5" y="396.5232">E</text></g><g id="N_1.N_1_2"><rect fill="#F1F1F1" height="50" rx="12.5" ry="12.5" style="stroke:#F753EB;stroke-width:0.5;" width="50" x="171" y="248.99"/><line style="stroke:#F753EB;stroke-width:0.5;" x1="171" x2="221" y1="276.5994" y2="276.5994"/><text fill="#F753EB" font-family="sans-serif" font-size="14" lengthAdjust="spacing" textLength="9" x="191.5" y="268.5232">F</text></g><g id="N_1.N_1_3"><rect fill="#F1F1F1" height="50" rx="12.5" ry="12.5" style="stroke:#5C89A7;stroke-width:0.5;" width="50" x="75" y="120.99"/><line style="stroke:#5C89A7;stroke-width:0.5;" x1="75" x2="125" y1="148.5994" y2="148.5994"/><text fill="#5C89A7" font-family="sans-serif" font-size="14" lengthAdjust="spacing" textLength="11" x="94.5" y="140.5232">G</text></g><g id="N_1.N_1_4"><rect fill="#F1F1F1" height="50" rx="12.5" ry="12.5" style="stroke:#C768C6;stroke-width:0.5;" width="50" x="160" y="120.99"/><line style="stroke:#C768C6;stroke-width:0.5;" x1="160" x2="210" y1="148.5994" y2="148.5994"/><text fill="#C768C6" font-family="sans-serif" font-size="14" lengthAdjust="spacing" textLength="9" x="180.5" y="140.5232">H</text></g><g id="N_1.N_1_5"><rect fill="#F1F1F1" height="50" rx="12.5" ry="12.5" style="stroke:#C3F640;stroke-width:0.5;" width="50" x="86" y="248.99"/><line style="stroke:#C3F640;stroke-width:0.5;" x1="86" x2="136" y1="276.5994" y2="276.5994"/><text fill="#C3F640" font-family="sans-serif" font-size="14" lengthAdjust="spacing" textLength="3" x="109.5" y="268.5232">I</text></g><ellipse cx="41" cy="273.99" fill="#222222" rx="10" ry="10" style="stroke:#222222;stroke-width:1.0;"/><g id="N_2"><rect fill="#F1F1F1" height="50" rx="12.5" ry="12.5" style="stroke:#5D5AB8;stroke-width:0.5;" width="50" x="410" y="248.99"/><line style="stroke:#5D5AB8;stroke-width:0.5;" x1="410" x2="460" y1="276.5994" y2="276.5994"/><text fill="#5D5AB8" font-family="sans-serif" font-size="14" lengthAdjust="spacing" textLength="9" x="430.5" y="268.5232">B</text></g><g id="N_3"><rect fill="#F1F1F1" height="50" rx="12.5" ry="12.5" style="stroke:#7D2A66;stroke-width:0.5;" width="50" x="383" y="376.99"/><line style="stroke:#7D2A66;stroke-width:0.5;" x1="383" x2="433" y1="404.5994" y2="404.5994"/><text fill="#7D2A66" font-family="sans-serif" font-size="14" lengthAdjust="spacing" textLength="10" x="403" y="396.5232">C</text></g><g id="N_4"><rect fill="#F1F1F1" height="50" rx="12.5" ry="12.5" style="stroke:#670F1C;stroke-width:0.5;" width="50" x="277" y="376.99"/><line style="stroke:#670F1C;stroke-width:0.5;" x1="277" x2="327" y1="404.5994" y2="404.5994"/><text fill="#670F1C" font-family="sans-serif" font-size="14" lengthAdjust="spacing" textLength="10" x="297" y="396.5232">D</text></g><ellipse cx="290" cy="145.99" fill="#222222" rx="10" ry="10" style="stroke:#222222;stroke-width:1.0;"/><!--link *start*N_1 to N_1_5--><g id="link_*start*N_1_N_1_5"><path d="M51.12,273.99 C62.66,273.99 68.2,273.99 79.74,273.99 " fill="none" id="*start*N_1-to-N_1_5" style="stroke:#181818;stroke-width:1.0;"/><polygon fill="#181818" points="85.74,273.99,76.74,269.99,80.74,273.99,76.74,277.99,85.74,273.99" style="stroke:#181818;stroke-width:1.0;"/></g><!--link N_1_1 to N_1_5--><g id="link_N_1_1_N_1_5"><path d="M106.96,376.77 C107.85,354.48 108.9109,327.5952 109.8009,305.2752 " fill="none" id="N_1_1-to-N_1_5" style="stroke:#181818;stroke-width:1.0;"/><polygon fill="#181818" points="110.04,299.28,105.6846,308.1135,109.8408,304.276,113.6782,308.4322,110.04,299.28" style="stroke:#181818;stroke-width:1.0;"/><text fill="#000000" font-family="sans-serif" font-size="13" lengthAdjust="spacing" textLength="7" x="110" y="343.4851">a</text></g><!--link N_1_5 to N_1_1--><g id="link_N_1_5_N_1_1"><path d="M100.5,299.26 C97.07,308.4 93.71,319 92,328.99 C89.28,344.93 90.9907,357.0286 95.1307,370.9586 " fill="none" id="N_1_5-to-N_1_1" style="stroke:#181818;stroke-width:1.0;"/><polygon fill="#181818" points="96.84,376.71,98.1103,366.9434,95.4156,371.9172,90.4418,369.2225,96.84,376.71" style="stroke:#181818;stroke-width:1.0;"/><text fill="#000000" font-family="sans-serif" font-size="13" lengthAdjust="spacing" textLength="7" x="93" y="343.4851">h</text></g><!--link N_1_3 to N_1_2--><g id="link_N_1_3_N_1_2"><path d="M118.51,171.28 C135.51,193.6 156.9341,221.7071 173.9141,243.9971 " fill="none" id="N_1_3-to-N_1_2" style="stroke:#181818;stroke-width:1.0;"/><polygon fill="#181818" points="177.55,248.77,175.2781,239.1868,174.5201,244.7926,168.9143,244.0346,177.55,248.77" style="stroke:#181818;stroke-width:1.0;"/><text fill="#000000" font-family="sans-serif" font-size="13" lengthAdjust="spacing" textLength="7" x="155" y="215.4851">c</text></g><!--link N_1_4 to N_1_5--><g id="link_N_1_4_N_1_5"><path d="M159.87,165.24 C148.54,174.7 135.95,187.17 128,200.99 C119.61,215.57 116.2241,228.154 114.0741,242.754 " fill="none" id="N_1_4-to-N_1_5" style="stroke:#181818;stroke-width:1.0;"/><polygon fill="#181818" points="113.2,248.69,118.4685,240.3688,113.9284,243.7433,110.5539,239.2033,113.2,248.69" style="stroke:#181818;stroke-width:1.0;"/><text fill="#000000" font-family="sans-serif" font-size="13" lengthAdjust="spacing" textLength="3" x="129" y="215.4851">f</text></g><!--link *start* to N_1_3--><g id="link_*start*_N_1_3"><path d="M290.24,135.67 C290.19,109.9 285.84,43.65 243.5,27.99 C200.73,12.17 168.67,6 142,42.99 C124.83,66.8 114.976,92.9036 108.386,114.8436 " fill="none" id="*start*-to-N_1_3" style="stroke:#181818;stroke-width:1.0;"/><polygon fill="#181818" points="106.66,120.59,113.0799,113.1211,108.0983,115.8013,105.4181,110.8198,106.66,120.59" style="stroke:#181818;stroke-width:1.0;"/></g><!--link N_1 to N_2--><g id="link_N_1_N_2"><path d="M253.0379,161.8966 C253.067,161.9369 253.0961,161.9772 253.1253,162.0174 C253.2421,162.1785 253.36,162.3393 253.4792,162.4998 C253.9557,163.1416 254.4511,163.7779 254.965,164.403 C257.0206,166.9031 259.3725,169.2225 262,170.99 C310.48,203.61 342.49,166.98 390,200.99 C406.54,212.83 415.8178,227.3812 423.1578,243.3012 " fill="none" id="N_1-to-N_2" style="stroke:#181818;stroke-width:1.0;"/><polygon fill="#181818" points="425.67,248.75,425.5342,238.9021,423.5765,244.2094,418.2692,242.2516,425.67,248.75" style="stroke:#181818;stroke-width:1.0;"/><text fill="#000000" font-family="sans-serif" font-size="13" lengthAdjust="spacing" textLength="7" x="408" y="215.4851">d</text></g><!--link N_1_2 to N_4--><g id="link_N_1_2_N_4"><path d="M215.94,299.04 C227.58,313.06 242.58,331.06 256,346.99 C264.25,356.78 269.4937,362.9672 277.4437,372.2772 " fill="none" id="N_1_2-to-N_4" style="stroke:#181818;stroke-width:1.0;"/><polygon fill="#181818" points="281.34,376.84,278.5375,367.3983,278.0931,373.0377,272.4537,372.5933,281.34,376.84" style="stroke:#181818;stroke-width:1.0;"/><text fill="#000000" font-family="sans-serif" font-size="13" lengthAdjust="spacing" textLength="7" x="257" y="343.4851">b</text></g><!--link N_2 to N_3--><g id="link_N_2_N_3"><path d="M429.79,299.28 C425.01,321.6 419.2281,348.6134 414.4481,370.9034 " fill="none" id="N_2-to-N_3" style="stroke:#181818;stroke-width:1.0;"/><polygon fill="#181818" points="413.19,376.77,418.9882,368.8088,414.2384,371.8811,411.166,367.1314,413.19,376.77" style="stroke:#181818;stroke-width:1.0;"/><text fill="#000000" font-family="sans-serif" font-size="13" lengthAdjust="spacing" textLength="7" x="424" y="343.4851">e</text></g><!--link N_3 to N_1_4--><g id="link_N_3_N_1_4"><path d="M390.29,376.91 C361.5,338.31 301.99,260.84 245,200.99 C234.08,189.52 225.6285,181.6076 214.5485,171.9276 " fill="none" id="N_3-to-N_1_4" style="stroke:#181818;stroke-width:1.0;"/><polygon fill="#181818" points="210.03,167.98,214.176,176.9137,213.7954,171.2696,219.4394,170.889,210.03,167.98" style="stroke:#181818;stroke-width:1.0;"/><text fill="#000000" font-family="sans-serif" font-size="13" lengthAdjust="spacing" textLength="7" x="330" y="279.4851">g</text></g><!--link N_4 to N_1_4--><g id="link_N_4_N_1_4"><path d="M292.5,376.77 C280.5,346.55 258.87,293.44 238,248.99 C225.28,221.89 212.1229,196.8084 201.0429,176.3084 " fill="none" id="N_4-to-N_1_4" style="stroke:#181818;stroke-width:1.0;"/><polygon fill="#181818" points="198.19,171.03,198.9504,180.8495,200.5674,175.4286,205.9882,177.0456,198.19,171.03" style="stroke:#181818;stroke-width:1.0;"/><text fill="#000000" font-family="sans-serif" font-size="13" lengthAdjust="spacing" textLength="3" x="261" y="279.4851">i</text></g></g></svg>