<?xml version="1.0" encoding="UTF-8" standalone="no"?><svg xmlns="http://www.w3.org/2000/svg" xmlns:xlink="http://www.w3.org/1999/xlink" contentStyleType="text/css" height="639px" preserveAspectRatio="none" style="width:299px;height:639px;background:#FFFFFF;" version="1.1" viewBox="0 0 299 639" width="299px" zoomAndPan="magnify"><defs/><g><g id="N_1"><rect fill="#F1F1F1" height="50" rx="12.5" ry="12.5" style="stroke:#F611AC;stroke-width:0.5;" width="50" x="165.5" y="7"/><line style="stroke:#F611AC;stroke-width:0.5;" x1="165.5" x2="215.5" y1="34.6094" y2="34.6094"/><text fill="#F611AC" font-family="sans-serif" font-size="14" lengthAdjust="spacing" textLength="22" x="179.5" y="26.5332">idle</text></g><g id="N_2"><rect fill="#F1F1F1" height="50" rx="12.5" ry="12.5" style="stroke:#5774B3;stroke-width:0.5;" width="143" x="119" y="118"/><line style="stroke:#5774B3;stroke-width:0.5;" x1="119" x2="262" y1="145.6094" y2="145.6094"/><text fill="#5774B3" font-family="sans-serif" font-size="14" lengthAdjust="spacing" textLength="123" x="129" y="137.5332">Send order request</text></g><g id="N_3"><rect fill="#F1F1F1" height="50" rx="12.5" ry="12.5" style="stroke:#76BBAF;stroke-width:0.5;" width="209" x="7" y="246"/><line style="stroke:#76BBAF;stroke-width:0.5;" x1="7" x2="216" y1="273.6094" y2="273.6094"/><text fill="#76BBAF" font-family="sans-serif" font-size="14" lengthAdjust="spacing" textLength="189" x="17" y="265.5332">Select normal or special order</text></g><g id="N_4"><rect fill="#F1F1F1" height="50" rx="12.5" ry="12.5" style="stroke:#915A53;stroke-width:0.5;" width="138" x="56.5" y="374"/><line style="stroke:#915A53;stroke-width:0.5;" x1="56.5" x2="194.5" y1="401.6094" y2="401.6094"/><text fill="#915A53" font-family="sans-serif" font-size="14" lengthAdjust="spacing" textLength="118" x="66.5" y="393.5332">Order confirmation</text></g><g id="N_5"><rect fill="#F1F1F1" height="50" rx="12.5" ry="12.5" style="stroke:#C9D424;stroke-width:0.5;" width="113" x="93" y="485"/><line style="stroke:#C9D424;stroke-width:0.5;" x1="93" x2="206" y1="512.6094" y2="512.6094"/><text fill="#C9D424" font-family="sans-serif" font-size="14" lengthAdjust="spacing" textLength="93" x="103" y="504.5332">Dispatch order</text></g><ellipse cx="209.5" cy="623" fill="none" rx="10" ry="10" style="stroke:#222222;stroke-width:1.0;"/><ellipse cx="210" cy="623.5" fill="#222222" rx="6" ry="6" style="stroke:none;stroke-width:1.0;"/><ellipse cx="120.5" cy="32" fill="#222222" rx="10" ry="10" style="stroke:none;stroke-width:1.0;"/><!--MD5=[a1e0d543606106285492e7dcf0375297]
link *start to N_1--><g id="link_*start_N_1"><path d="M130.62,32 C140.44,32 150.27,32 160.1,32 " fill="none" id="*start-to-N_1" style="stroke:#181818;stroke-width:1.0;"/><polygon fill="#181818" points="165.24,32,156.24,28,160.24,32,156.24,36,165.24,32" style="stroke:#181818;stroke-width:1.0;"/></g><!--MD5=[e479e70de51ad014afd809a45b1dd3b7]
link N_1 to N_2--><g id="link_N_1_N_2"><path d="M190.5,57.19 C190.5,73.56 190.5,95.28 190.5,112.64 " fill="none" id="N_1-to-N_2" style="stroke:#181818;stroke-width:1.0;"/><polygon fill="#181818" points="190.5,117.88,194.5,108.88,190.5,112.88,186.5,108.88,190.5,117.88" style="stroke:#181818;stroke-width:1.0;"/></g><!--MD5=[faffcdd34262b02527fa0ab010c9e32e]
link N_2 to N_3--><g id="link_N_2_N_3"><path d="M175.27,168.29 C162.15,189.21 143.21,219.42 129.38,241.48 " fill="none" id="N_2-to-N_3" style="stroke:#181818;stroke-width:1.0;"/><polygon fill="#181818" points="126.69,245.78,134.8653,240.2878,129.3503,241.5464,128.0916,236.0314,126.69,245.78" style="stroke:#181818;stroke-width:1.0;"/><text fill="#000000" font-family="sans-serif" font-size="13" lengthAdjust="spacing" textLength="37" x="157.5" y="212.4951">Action</text></g><!--MD5=[1cb4dc3c0a2d3d5a68e4b8b192b940ef]
link N_3 to N_4--><g id="link_N_3_N_4"><path d="M114.2,296.29 C116.49,316.95 119.8,346.67 122.24,368.65 " fill="none" id="N_3-to-N_4" style="stroke:#181818;stroke-width:1.0;"/><polygon fill="#181818" points="122.81,373.78,125.8094,364.399,122.2672,368.8095,117.8567,365.2674,122.81,373.78" style="stroke:#181818;stroke-width:1.0;"/><text fill="#000000" font-family="sans-serif" font-size="13" lengthAdjust="spacing" textLength="117" x="120.5" y="340.4951">Confirm order(Event)</text></g><!--MD5=[4c286cd8f1bb3f8ac1767d75cee84f64]
link N_4 to N_5--><g id="link_N_4_N_5"><path d="M130.83,424.19 C134.43,440.56 139.21,462.28 143.04,479.64 " fill="none" id="N_4-to-N_5" style="stroke:#181818;stroke-width:1.0;"/><polygon fill="#181818" points="144.19,484.88,146.1693,475.2321,143.119,479.9961,138.355,476.9457,144.19,484.88" style="stroke:#181818;stroke-width:1.0;"/></g><!--MD5=[92c1ce9c2f4d3d991a0445b1240d90b1]
link N_2 to N_6--><g id="link_N_2_N_6"><path d="M217.25,168.22 C240.16,191.74 269.5,229.72 269.5,270 C269.5,270 269.5,270 269.5,511 C269.5,544.46 264.54,554.21 247.5,583 C240.55,594.74 229.35,605.65 220.91,612.92 " fill="none" id="N_2-to-N_6" style="stroke:#181818;stroke-width:1.0;"/><polygon fill="#181818" points="217.02,616.19,226.4848,613.4666,220.8494,612.975,221.3409,607.3396,217.02,616.19" style="stroke:#181818;stroke-width:1.0;"/><text fill="#000000" font-family="sans-serif" font-size="13" lengthAdjust="spacing" textLength="21" x="270.5" y="404.4951">exit</text></g><!--MD5=[71ac3fe825be4c1d2d565ada9878911e]
link N_5 to N_6--><g id="link_N_5_N_6"><path d="M162.52,535.09 C174.81,557.82 192.76,591.03 202.53,609.11 " fill="none" id="N_5-to-N_6" style="stroke:#181818;stroke-width:1.0;"/><polygon fill="#181818" points="205.06,613.78,204.2865,603.9616,202.6767,609.3845,197.2538,607.7748,205.06,613.78" style="stroke:#181818;stroke-width:1.0;"/><text fill="#000000" font-family="sans-serif" font-size="13" lengthAdjust="spacing" textLength="53" x="189.5" y="579.4951">complete</text></g></g></svg>