<?xml version="1.0" encoding="UTF-8" standalone="no"?><svg xmlns="http://www.w3.org/2000/svg" xmlns:xlink="http://www.w3.org/1999/xlink" contentStyleType="text/css" height="642px" preserveAspectRatio="none" style="width:299px;height:642px;background:#FFFFFF;" version="1.1" viewBox="0 0 299 642" width="299px" zoomAndPan="magnify"><defs/><g><g id="N_1"><rect fill="#F1F1F1" height="50" rx="12.5" ry="12.5" style="stroke:#181818;stroke-width:0.5;" width="50" x="165.5" y="7"/><line style="stroke:#181818;stroke-width:0.5;" x1="165.5" x2="215.5" y1="36.1201" y2="36.1201"/><text fill="#000000" font-family="sans-serif" font-size="14" lengthAdjust="spacing" textLength="22" x="179.5" y="28.0439">idle</text></g><g id="N_2"><rect fill="#F1F1F1" height="50" rx="12.5" ry="12.5" style="stroke:#181818;stroke-width:0.5;" width="143" x="119" y="118"/><line style="stroke:#181818;stroke-width:0.5;" x1="119" x2="262" y1="147.1201" y2="147.1201"/><text fill="#000000" font-family="sans-serif" font-size="14" lengthAdjust="spacing" textLength="123" x="129" y="139.0439">Send order request</text></g><g id="N_3"><rect fill="#F1F1F1" height="50" rx="12.5" ry="12.5" style="stroke:#181818;stroke-width:0.5;" width="209" x="7" y="247"/><line style="stroke:#181818;stroke-width:0.5;" x1="7" x2="216" y1="276.1201" y2="276.1201"/><text fill="#000000" font-family="sans-serif" font-size="14" lengthAdjust="spacing" textLength="189" x="17" y="268.0439">Select normal or special order</text></g><g id="N_4"><rect fill="#F1F1F1" height="50" rx="12.5" ry="12.5" style="stroke:#181818;stroke-width:0.5;" width="138" x="56.5" y="376"/><line style="stroke:#181818;stroke-width:0.5;" x1="56.5" x2="194.5" y1="405.1201" y2="405.1201"/><text fill="#000000" font-family="sans-serif" font-size="14" lengthAdjust="spacing" textLength="118" x="66.5" y="397.0439">Order confirmation</text></g><g id="N_5"><rect fill="#F1F1F1" height="50" rx="12.5" ry="12.5" style="stroke:#181818;stroke-width:0.5;" width="113" x="93" y="487"/><line style="stroke:#181818;stroke-width:0.5;" x1="93" x2="206" y1="516.1201" y2="516.1201"/><text fill="#000000" font-family="sans-serif" font-size="14" lengthAdjust="spacing" textLength="93" x="103" y="508.0439">Dispatch order</text></g><ellipse cx="209.5" cy="626" fill="none" rx="10" ry="10" style="stroke:#222222;stroke-width:1.0;"/><ellipse cx="210" cy="626.5" fill="#222222" rx="6" ry="6" style="stroke:none;stroke-width:1.0;"/><ellipse cx="120.5" cy="32" fill="#222222" rx="10" ry="10" style="stroke:none;stroke-width:1.0;"/><!--MD5=[a1e0d543606106285492e7dcf0375297]
link *start to N_1--><g id="link_*start_N_1"><path d="M130.62,32 C140.44,32 150.27,32 160.1,32 " fill="none" id="*start-to-N_1" style="stroke:#181818;stroke-width:1.0;"/><polygon fill="#181818" points="165.24,32,156.24,28,160.24,32,156.24,36,165.24,32" style="stroke:#181818;stroke-width:1.0;"/></g><!--MD5=[e479e70de51ad014afd809a45b1dd3b7]
link N_1 to N_2--><g id="link_N_1_N_2"><path d="M190.5,57.19 C190.5,73.56 190.5,95.28 190.5,112.64 " fill="none" id="N_1-to-N_2" style="stroke:#181818;stroke-width:1.0;"/><polygon fill="#181818" points="190.5,117.88,194.5,108.88,190.5,112.88,186.5,108.88,190.5,117.88" style="stroke:#181818;stroke-width:1.0;"/></g><!--MD5=[faffcdd34262b02527fa0ab010c9e32e]
link N_2 to N_3--><g id="link_N_2_N_3"><path d="M175.45,168.19 C162.28,189.37 143.11,220.18 129.2,242.55 " fill="none" id="N_2-to-N_3" style="stroke:#181818;stroke-width:1.0;"/><polygon fill="#181818" points="126.49,246.9,134.6353,241.3634,129.1272,242.652,127.8385,237.1439,126.49,246.9" style="stroke:#181818;stroke-width:1.0;"/><text fill="#000000" font-family="sans-serif" font-size="13" lengthAdjust="spacing" textLength="37" x="157.5" y="213.8979">Action</text></g><!--MD5=[1cb4dc3c0a2d3d5a68e4b8b192b940ef]
link N_3 to N_4--><g id="link_N_3_N_4"><path d="M114.17,297.19 C116.47,318.11 119.81,348.41 122.27,370.71 " fill="none" id="N_3-to-N_4" style="stroke:#181818;stroke-width:1.0;"/><polygon fill="#181818" points="122.84,375.9,125.8128,366.5105,122.2831,370.9311,117.8625,367.4015,122.84,375.9" style="stroke:#181818;stroke-width:1.0;"/><text fill="#000000" font-family="sans-serif" font-size="13" lengthAdjust="spacing" textLength="117" x="120.5" y="342.8979">Confirm order(Event)</text></g><!--MD5=[4c286cd8f1bb3f8ac1767d75cee84f64]
link N_4 to N_5--><g id="link_N_4_N_5"><path d="M130.83,426.19 C134.43,442.56 139.21,464.28 143.04,481.64 " fill="none" id="N_4-to-N_5" style="stroke:#181818;stroke-width:1.0;"/><polygon fill="#181818" points="144.19,486.88,146.1693,477.2321,143.119,481.9961,138.355,478.9457,144.19,486.88" style="stroke:#181818;stroke-width:1.0;"/></g><!--MD5=[92c1ce9c2f4d3d991a0445b1240d90b1]
link N_2 to N_6--><g id="link_N_2_N_6"><path d="M217.25,168.45 C240.16,192.19 269.5,230.49 269.5,271 C269.5,271 269.5,271 269.5,513 C269.5,546.89 264.71,556.81 247.5,586 C240.57,597.76 229.37,608.66 220.92,615.93 " fill="none" id="N_2-to-N_6" style="stroke:#181818;stroke-width:1.0;"/><polygon fill="#181818" points="217.03,619.19,226.4948,616.4666,220.8594,615.975,221.3509,610.3396,217.03,619.19" style="stroke:#181818;stroke-width:1.0;"/><text fill="#000000" font-family="sans-serif" font-size="13" lengthAdjust="spacing" textLength="21" x="270.5" y="407.3979">exit</text></g><!--MD5=[71ac3fe825be4c1d2d565ada9878911e]
link N_5 to N_6--><g id="link_N_5_N_6"><path d="M162.3,537.01 C169.9,551.26 179.74,569.67 188.5,586 C193.26,594.87 198.64,604.86 202.76,612.51 " fill="none" id="N_5-to-N_6" style="stroke:#181818;stroke-width:1.0;"/><polygon fill="#181818" points="205.15,616.94,204.4012,607.1196,202.7778,612.5386,197.3589,610.9152,205.15,616.94" style="stroke:#181818;stroke-width:1.0;"/><text fill="#000000" font-family="sans-serif" font-size="13" lengthAdjust="spacing" textLength="53" x="189.5" y="582.8979">complete</text></g></g></svg>