<?xml version="1.0" encoding="UTF-8" standalone="no"?><svg xmlns="http://www.w3.org/2000/svg" xmlns:xlink="http://www.w3.org/1999/xlink" contentStyleType="text/css" height="431px" preserveAspectRatio="none" style="width:348px;height:431px;background:#FFFFFF;" version="1.1" viewBox="0 0 348 431" width="348px" zoomAndPan="magnify"><defs/><g><!--MD5=[deb5ab55ca9af80869d5bd0ea7151fdf]
cluster N_1--><g id="cluster_N_1"><path d="M19.5,7 L239.5,7 A12.5,12.5 0 0 1 252,19.5 L252,34.6094 L7,34.6094 L7,19.5 A12.5,12.5 0 0 1 19.5,7 " fill="#F1F1F1" style="stroke:#F1F1F1;stroke-width:1.0;"/><rect height="418" rx="12.5" ry="12.5" style="stroke:#B248A1;stroke-width:0.5;fill:none;" width="245" x="7" y="7"/><line style="stroke:#B248A1;stroke-width:0.5;fill:none;" x1="7" x2="252" y1="34.6094" y2="34.6094"/><text fill="#B248A1" font-family="sans-serif" font-size="14" lengthAdjust="spacing" textLength="104" x="69.5" y="25.5332">Composite State</text></g><g id="N_1.N_1_1"><rect fill="#F1F1F1" height="50" rx="12.5" ry="12.5" style="stroke:#9DD7BE;stroke-width:0.5;" width="65" x="31.5" y="69"/><line style="stroke:#9DD7BE;stroke-width:0.5;" x1="31.5" x2="96.5" y1="96.6094" y2="96.6094"/><text fill="#9DD7BE" font-family="sans-serif" font-size="14" lengthAdjust="spacing" textLength="45" x="41.5" y="88.5332">State 1</text></g><ellipse cx="142" cy="94" fill="#222222" rx="10" ry="10" style="stroke:none;stroke-width:1.0;"/><ellipse cx="198" cy="94" fill="#F1F1F1" rx="11" ry="11" style="stroke:#181818;stroke-width:0.5;"/><text fill="#000000" font-family="sans-serif" font-size="14" lengthAdjust="spacing" textLength="14" x="191" y="99.7285">H*</text><path d="M43.5,197 L150,197 A12.5,12.5 0 0 1 162.5,209.5 L162.5,224.6094 L31,224.6094 L31,209.5 A12.5,12.5 0 0 1 43.5,197 " fill="#F1F1F1" style="stroke:#F1F1F1;stroke-width:1.0;"/><path d="M31,224.6094 L162.5,224.6094 L162.5,388.1094 A12.5,12.5 0 0 1 150,400.6094 L43.5,400.6094 A12.5,12.5 0 0 1 31,388.1094 L31,224.6094 " fill="#FFFFFF" style="stroke:#FFFFFF;stroke-width:1.0;"/><rect height="203.6094" rx="12.5" ry="12.5" style="stroke:#7A1666;stroke-width:0.5;fill:none;" width="131.5" x="31" y="197"/><line style="stroke:#7A1666;stroke-width:0.5;fill:none;" x1="31" x2="162.5" y1="224.6094" y2="224.6094"/><text fill="#7A1666" font-family="sans-serif" font-size="14" lengthAdjust="spacing" textLength="43" x="75.25" y="216.5332">state 2</text><g id="N_1.N_1_2.N_1_2_1"><rect fill="#F1F1F1" height="50" rx="12.5" ry="12.5" style="stroke:#5E3CF9;stroke-width:0.5;" width="73" x="80.5" y="236.6094"/><line style="stroke:#5E3CF9;stroke-width:0.5;" x1="80.5" x2="153.5" y1="264.2188" y2="264.2188"/><text fill="#5E3CF9" font-family="sans-serif" font-size="14" lengthAdjust="spacing" textLength="53" x="90.5" y="256.1426">State 2a</text></g><g id="N_1.N_1_2.N_1_2_2"><rect fill="#F1F1F1" height="50" rx="12.5" ry="12.5" style="stroke:#BBF8ED;stroke-width:0.5;" width="73" x="80.5" y="340.6094"/><line style="stroke:#BBF8ED;stroke-width:0.5;" x1="80.5" x2="153.5" y1="368.2188" y2="368.2188"/><text fill="#BBF8ED" font-family="sans-serif" font-size="14" lengthAdjust="spacing" textLength="53" x="90.5" y="360.1426">State 2b</text></g><ellipse cx="52" cy="261.6094" fill="#222222" rx="10" ry="10" style="stroke:none;stroke-width:1.0;"/><!--MD5=[b362c374716f1fcf61ac2fc39dd5fe2f]
link *start*N_1_2 to N_1_2_1--><g id="link_*start*N_1_2_N_1_2_1"><path d="M62.16,261.6094 C66.47,261.6094 70.78,261.6094 75.09,261.6094 " fill="none" id="*start*N_1_2-to-N_1_2_1" style="stroke:#181818;stroke-width:1.0;"/><polygon fill="#181818" points="80.15,261.6094,71.15,257.6094,75.15,261.6094,71.15,265.6094,80.15,261.6094" style="stroke:#181818;stroke-width:1.0;"/></g><!--MD5=[7661ecfc7665a5007e83b7e89ee2b82b]
link N_1_2_1 to N_1_2_2--><g id="link_N_1_2_1_N_1_2_2"><path d="M117,286.7794 C117,301.2794 117,319.8294 117,335.1794 " fill="none" id="N_1_2_1-to-N_1_2_2" style="stroke:#181818;stroke-width:1.0;"/><polygon fill="#181818" points="117,340.2594,121,331.2594,117,335.2594,113,331.2594,117,340.2594" style="stroke:#181818;stroke-width:1.0;"/><text fill="#000000" font-family="sans-serif" font-size="13" lengthAdjust="spacing" textLength="7" x="118" y="319.1045">b</text></g><g id="N_2"><rect fill="#F1F1F1" height="50" rx="12.5" ry="12.5" style="stroke:#4C5BEC;stroke-width:0.5;" width="65" x="276.5" y="274"/><line style="stroke:#4C5BEC;stroke-width:0.5;" x1="276.5" x2="341.5" y1="301.6094" y2="301.6094"/><text fill="#4C5BEC" font-family="sans-serif" font-size="14" lengthAdjust="spacing" textLength="45" x="286.5" y="293.5332">State 3</text></g><ellipse cx="289" cy="94" fill="#222222" rx="10" ry="10" style="stroke:none;stroke-width:1.0;"/><!--MD5=[a264d6cd0624fa13236d6c5e9d40bca1]
link *start*N_1 to N_1_1--><g id="link_*start*N_1_N_1_1"><path d="M131.71,94 C121.75,94 111.78,94 101.81,94 " fill="none" id="*start*N_1-to-N_1_1" style="stroke:#181818;stroke-width:1.0;"/><polygon fill="#181818" points="96.6,94,105.6,98,101.6,94,105.6,90,96.6,94" style="stroke:#181818;stroke-width:1.0;"/></g><!--MD5=[5efd26506746eba3d8f3722ceff28851]
link N_1_1 to N_1_2--><g id="link_N_1_1_N_1_2"><path d="M67.92,119.08 C70.92,137.57 75.3,164.5 79.75,191.88 " fill="none" id="N_1_1-to-N_1_2" style="stroke:#181818;stroke-width:1.0;"/><polygon fill="#181818" points="80.58,196.99,83.0594,187.4583,79.765,192.0569,75.1664,188.7624,80.58,196.99" style="stroke:#181818;stroke-width:1.0;"/><text fill="#000000" font-family="sans-serif" font-size="13" lengthAdjust="spacing" textLength="7" x="77" y="163.4951">a</text></g><!--MD5=[a1e0d543606106285492e7dcf0375297]
link *start to N_1--><g id="link_*start_N_1"><path d="M278.96,94 C273.25,94 267.54,94 261.83,94 C258.975,94 256.12,94 253.265,94 C252.9081,94 252.5512,94 252.1944,94 C252.1498,94 252.1052,94 252.0605,94 " fill="none" id="*start-to-N_1" style="stroke:#181818;stroke-width:1.0;"/><polygon fill="#181818" points="252.0605,94,261.0605,98,257.0605,94,261.0605,90,252.0605,94" style="stroke:#181818;stroke-width:1.0;"/></g><!--MD5=[e479e70de51ad014afd809a45b1dd3b7]
link N_1 to N_2--><g id="link_N_1_N_2"><path d="M252.0377,120.1013 C252.1676,120.5073 252.2989,120.9171 252.4313,121.3307 C252.961,122.9853 253.5102,124.7004 254.0771,126.4711 C255.2109,130.0124 256.4158,133.7756 257.6785,137.7195 C260.204,145.6073 262.9609,154.2178 265.8438,163.2213 C277.375,199.235 290.92,241.535 299.72,269.01 " fill="none" id="N_1-to-N_2" style="stroke:#181818;stroke-width:1.0;"/><polygon fill="#181818" points="301.26,273.82,302.3235,264.0287,299.7346,269.0584,294.7049,266.4694,301.26,273.82" style="stroke:#181818;stroke-width:1.0;"/><text fill="#000000" font-family="sans-serif" font-size="13" lengthAdjust="spacing" textLength="4" x="267" y="163.4951">t</text></g><!--MD5=[81ce6b2e2e94893c1a20899309940078]
link N_2 to *deephistory*N_1--><g id="link_N_2_*deephistory*N_1"><path d="M295.83,273.91 C272.34,230.95 223.93,142.42 205.42,108.57 " fill="none" id="N_2-to-*deephistory*N_1" style="stroke:#181818;stroke-width:1.0;"/><polygon fill="#181818" points="202.91,103.98,203.7215,113.7954,205.3103,108.3662,210.7394,109.9549,202.91,103.98" style="stroke:#181818;stroke-width:1.0;"/></g></g></svg>