<?xml version="1.0" encoding="UTF-8" standalone="no"?><svg xmlns="http://www.w3.org/2000/svg" xmlns:xlink="http://www.w3.org/1999/xlink" contentStyleType="text/css" height="418px" preserveAspectRatio="none" style="width:348px;height:418px;background:#FFFFFF;" version="1.1" viewBox="0 0 348 418" width="348px" zoomAndPan="magnify"><defs/><g><!--MD5=[deb5ab55ca9af80869d5bd0ea7151fdf]
cluster N_1--><g id="cluster_N_1"><path d="M19.5,7 L239.5,7 A12.5,12.5 0 0 1 252,19.5 L252,36.1201 L7,36.1201 L7,19.5 A12.5,12.5 0 0 1 19.5,7 " fill="#F1F1F1" style="stroke:#F1F1F1;stroke-width:1.0;"/><rect height="405" rx="12.5" ry="12.5" style="stroke:#181818;stroke-width:0.5;fill:none;" width="245" x="7" y="7"/><line style="stroke:#181818;stroke-width:0.5;fill:none;" x1="7" x2="252" y1="36.1201" y2="36.1201"/><text fill="#000000" font-family="sans-serif" font-size="14" lengthAdjust="spacing" textLength="104" x="77.5" y="27.0439">Composite State</text></g><g id="N_1.N_1_1"><rect fill="#F1F1F1" height="50" rx="12.5" ry="12.5" style="stroke:#181818;stroke-width:0.5;" width="65" x="31.5" y="53"/><line style="stroke:#181818;stroke-width:0.5;" x1="31.5" x2="96.5" y1="82.1201" y2="82.1201"/><text fill="#000000" font-family="sans-serif" font-size="14" lengthAdjust="spacing" textLength="45" x="41.5" y="74.0439">State 1</text></g><ellipse cx="142" cy="78" fill="#222222" rx="10" ry="10" style="stroke:none;stroke-width:1.0;"/><ellipse cx="198" cy="78" fill="#F1F1F1" rx="11" ry="11" style="stroke:#181818;stroke-width:0.5;"/><text fill="#000000" font-family="sans-serif" font-size="14" lengthAdjust="spacing" textLength="14" x="191" y="84.4839">H*</text><path d="M43.5,182 L150,182 A12.5,12.5 0 0 1 162.5,194.5 L162.5,211.1201 L31,211.1201 L31,194.5 A12.5,12.5 0 0 1 43.5,182 " fill="#F1F1F1" style="stroke:#F1F1F1;stroke-width:1.0;"/><path d="M31,211.1201 L162.5,211.1201 L162.5,375.6201 A12.5,12.5 0 0 1 150,388.1201 L43.5,388.1201 A12.5,12.5 0 0 1 31,375.6201 L31,211.1201 " fill="#FFFFFF" style="stroke:#FFFFFF;stroke-width:1.0;"/><rect height="206.1201" rx="12.5" ry="12.5" style="stroke:#181818;stroke-width:0.5;fill:none;" width="131.5" x="31" y="182"/><line style="stroke:#181818;stroke-width:0.5;fill:none;" x1="31" x2="162.5" y1="211.1201" y2="211.1201"/><text fill="#000000" font-family="sans-serif" font-size="14" lengthAdjust="spacing" textLength="43" x="75.25" y="203.0439">state 2</text><g id="N_1.N_1_2.N_1_2_1"><rect fill="#F1F1F1" height="50" rx="12.5" ry="12.5" style="stroke:#181818;stroke-width:0.5;" width="73" x="80.5" y="223.1201"/><line style="stroke:#181818;stroke-width:0.5;" x1="80.5" x2="153.5" y1="252.2402" y2="252.2402"/><text fill="#000000" font-family="sans-serif" font-size="14" lengthAdjust="spacing" textLength="53" x="90.5" y="244.1641">State 2a</text></g><g id="N_1.N_1_2.N_1_2_2"><rect fill="#F1F1F1" height="50" rx="12.5" ry="12.5" style="stroke:#181818;stroke-width:0.5;" width="73" x="80.5" y="328.1201"/><line style="stroke:#181818;stroke-width:0.5;" x1="80.5" x2="153.5" y1="357.2402" y2="357.2402"/><text fill="#000000" font-family="sans-serif" font-size="14" lengthAdjust="spacing" textLength="53" x="90.5" y="349.1641">State 2b</text></g><ellipse cx="52" cy="248.1201" fill="#222222" rx="10" ry="10" style="stroke:none;stroke-width:1.0;"/><!--MD5=[b362c374716f1fcf61ac2fc39dd5fe2f]
link *start*N_1_2 to N_1_2_1--><g id="link_*start*N_1_2_N_1_2_1"><path d="M62.16,248.1201 C66.47,248.1201 70.78,248.1201 75.09,248.1201 " fill="none" id="*start*N_1_2-to-N_1_2_1" style="stroke:#181818;stroke-width:1.0;"/><polygon fill="#181818" points="80.15,248.1201,71.15,244.1201,75.15,248.1201,71.15,252.1201,80.15,248.1201" style="stroke:#181818;stroke-width:1.0;"/></g><!--MD5=[7661ecfc7665a5007e83b7e89ee2b82b]
link N_1_2_1 to N_1_2_2--><g id="link_N_1_2_1_N_1_2_2"><path d="M117,273.2701 C117,288.0101 117,306.9701 117,322.6001 " fill="none" id="N_1_2_1-to-N_1_2_2" style="stroke:#181818;stroke-width:1.0;"/><polygon fill="#181818" points="117,327.7701,121,318.7701,117,322.7701,113,318.7701,117,327.7701" style="stroke:#181818;stroke-width:1.0;"/><text fill="#000000" font-family="sans-serif" font-size="13" lengthAdjust="spacing" textLength="7" x="118" y="307.0181">b</text></g><g id="N_2"><rect fill="#F1F1F1" height="50" rx="12.5" ry="12.5" style="stroke:#181818;stroke-width:0.5;" width="65" x="276.5" y="260"/><line style="stroke:#181818;stroke-width:0.5;" x1="276.5" x2="341.5" y1="289.1201" y2="289.1201"/><text fill="#000000" font-family="sans-serif" font-size="14" lengthAdjust="spacing" textLength="45" x="286.5" y="281.0439">State 3</text></g><ellipse cx="289" cy="78" fill="#222222" rx="10" ry="10" style="stroke:none;stroke-width:1.0;"/><!--MD5=[a264d6cd0624fa13236d6c5e9d40bca1]
link *start*N_1 to N_1_1--><g id="link_*start*N_1_N_1_1"><path d="M131.71,78 C121.75,78 111.78,78 101.81,78 " fill="none" id="*start*N_1-to-N_1_1" style="stroke:#181818;stroke-width:1.0;"/><polygon fill="#181818" points="96.6,78,105.6,82,101.6,78,105.6,74,96.6,78" style="stroke:#181818;stroke-width:1.0;"/></g><!--MD5=[5efd26506746eba3d8f3722ceff28851]
link N_1_1 to N_1_2--><g id="link_N_1_1_N_1_2"><path d="M67.92,103.32 C70.92,121.99 75.3,149.18 79.75,176.83 " fill="none" id="N_1_1-to-N_1_2" style="stroke:#181818;stroke-width:1.0;"/><polygon fill="#181818" points="80.58,182,83.0863,172.4754,79.7789,177.0646,75.1897,173.7572,80.58,182" style="stroke:#181818;stroke-width:1.0;"/><text fill="#000000" font-family="sans-serif" font-size="13" lengthAdjust="spacing" textLength="7" x="77" y="148.8979">a</text></g><!--MD5=[a1e0d543606106285492e7dcf0375297]
link *start to N_1--><g id="link_*start_N_1"><path d="M278.96,78 C273.25,78 267.54,78 261.83,78 C258.975,78 256.12,78 253.265,78 C252.9081,78 252.5512,78 252.1944,78 C252.1498,78 252.1052,78 252.0605,78 " fill="none" id="*start-to-N_1" style="stroke:#181818;stroke-width:1.0;"/><polygon fill="#181818" points="252.0605,78,261.0605,82,257.0605,78,261.0605,74,252.0605,78" style="stroke:#181818;stroke-width:1.0;"/></g><!--MD5=[e479e70de51ad014afd809a45b1dd3b7]
link N_1 to N_2--><g id="link_N_1_N_2"><path d="M252.0713,104.456 C252.2018,104.8677 252.3336,105.2833 252.4666,105.7028 C252.9986,107.3806 253.55,109.1198 254.1193,110.9151 C255.2578,114.5059 256.4677,118.3214 257.7354,122.3196 C260.271,130.316 263.0384,139.0434 265.9313,148.1663 C277.5025,184.6575 291.08,227.475 299.85,255.14 " fill="none" id="N_1-to-N_2" style="stroke:#181818;stroke-width:1.0;"/><polygon fill="#181818" points="301.38,259.98,302.4701,250.1917,299.8675,255.2142,294.8449,252.6116,301.38,259.98" style="stroke:#181818;stroke-width:1.0;"/><text fill="#000000" font-family="sans-serif" font-size="13" lengthAdjust="spacing" textLength="4" x="267" y="148.8979">t</text></g><!--MD5=[81ce6b2e2e94893c1a20899309940078]
link N_2 to *deephistory*N_1--><g id="link_N_2_*deephistory*N_1"><path d="M295.83,259.68 C272.34,216.29 223.93,126.89 205.42,92.7 " fill="none" id="N_2-to-*deephistory*N_1" style="stroke:#181818;stroke-width:1.0;"/><polygon fill="#181818" points="202.91,88.07,203.6588,97.8904,205.2822,92.4714,210.7011,94.0948,202.91,88.07" style="stroke:#181818;stroke-width:1.0;"/></g></g></svg>