<?xml version="1.0" encoding="UTF-8" standalone="no"?><svg xmlns="http://www.w3.org/2000/svg" xmlns:xlink="http://www.w3.org/1999/xlink" contentStyleType="text/css" height="381px" preserveAspectRatio="none" style="width:282px;height:381px;background:#FFFFFF;" version="1.1" viewBox="0 0 282 381" width="282px" zoomAndPan="magnify"><defs/><g><!--MD5=[d53651f891be2d280b1927ff18674899]
cluster N_3--><g id="cluster_N_3"><path d="M41.5,129 L188.5,129 A12.5,12.5 0 0 1 201,141.5 L201,156.6094 L29,156.6094 L29,141.5 A12.5,12.5 0 0 1 41.5,129 " fill="#F1F1F1" style="stroke:#F1F1F1;stroke-width:1.0;"/><rect height="246" rx="12.5" ry="12.5" style="stroke:#181818;stroke-width:0.5;fill:none;" width="172" x="29" y="129"/><line style="stroke:#181818;stroke-width:0.5;fill:none;" x1="29" x2="201" y1="156.6094" y2="156.6094"/><text fill="#000000" font-family="sans-serif" font-size="14" lengthAdjust="spacing" textLength="75" x="77.5" y="147.5332">EmptyName</text></g><g id="N_3.N_3_1"><rect fill="#F1F1F1" height="50" rx="12.5" ry="12.5" style="stroke:#91E279;stroke-width:0.5;" width="50" x="127" y="173"/><line style="stroke:#91E279;stroke-width:0.5;" x1="127" x2="177" y1="200.6094" y2="200.6094"/><text fill="#91E279" font-family="sans-serif" font-size="14" lengthAdjust="spacing" textLength="10" x="147" y="192.5332">C</text></g><g id="N_3.N_3_2"><rect fill="#F1F1F1" height="50" rx="12.5" ry="12.5" style="stroke:#BBE1C5;stroke-width:0.5;" width="50" x="127" y="301"/><line style="stroke:#BBE1C5;stroke-width:0.5;" x1="127" x2="177" y1="328.6094" y2="328.6094"/><text fill="#BBE1C5" font-family="sans-serif" font-size="14" lengthAdjust="spacing" textLength="10" x="147" y="320.5332">D</text></g><ellipse cx="82" cy="198" fill="#222222" rx="10" ry="10" style="stroke:none;stroke-width:1.0;"/><g id="N_1"><rect fill="#F1F1F1" height="50" rx="12.5" ry="12.5" style="stroke:#EE54EA;stroke-width:0.5;" width="50" x="61" y="7"/><line style="stroke:#EE54EA;stroke-width:0.5;" x1="61" x2="111" y1="34.6094" y2="34.6094"/><text fill="#EE54EA" font-family="sans-serif" font-size="14" lengthAdjust="spacing" textLength="9" x="81.5" y="26.5332">A</text></g><g id="N_2"><rect fill="#F1F1F1" height="50" rx="12.5" ry="12.5" style="stroke:#D40C2A;stroke-width:0.5;" width="50" x="225" y="173"/><line style="stroke:#D40C2A;stroke-width:0.5;" x1="225" x2="275" y1="200.6094" y2="200.6094"/><text fill="#D40C2A" font-family="sans-serif" font-size="14" lengthAdjust="spacing" textLength="9" x="245.5" y="192.5332">B</text></g><ellipse cx="16" cy="32" fill="#222222" rx="10" ry="10" style="stroke:none;stroke-width:1.0;"/><!--MD5=[25d2396c0ef712f4365e0e22cdacc4d1]
link *start*N_3 to N_3_1--><g id="link_*start*N_3_N_3_1"><path d="M92.12,198 C101.94,198 111.77,198 121.6,198 " fill="none" id="*start*N_3-to-N_3_1" style="stroke:#181818;stroke-width:1.0;"/><polygon fill="#181818" points="126.74,198,117.74,194,121.74,198,117.74,202,126.74,198" style="stroke:#181818;stroke-width:1.0;"/></g><!--MD5=[ccd68096c09cc2399ee16d086e6618f5]
link N_3_1 to N_3_2--><g id="link_N_3_1_N_3_2"><path d="M130.32,223.08 C123.75,231.87 117.39,242.29 114,253 C109.21,268.13 115.93,283.84 124.99,296.72 " fill="none" id="N_3_1-to-N_3_2" style="stroke:#181818;stroke-width:1.0;"/><polygon fill="#181818" points="128.14,300.97,126.0005,291.3563,125.1652,296.9512,119.5704,296.116,128.14,300.97" style="stroke:#181818;stroke-width:1.0;"/><text fill="#000000" font-family="sans-serif" font-size="13" lengthAdjust="spacing" textLength="7" x="115" y="267.4951">c</text></g><!--MD5=[240785e12faa197ea7722194d40e327c]
link N_3_2 to N_3_1--><g id="link_N_3_2_N_3_1"><path d="M152,300.78 C152,280.15 152,250.43 152,228.43 " fill="none" id="N_3_2-to-N_3_1" style="stroke:#181818;stroke-width:1.0;"/><polygon fill="#181818" points="152,223.29,148,232.29,152,228.29,156,232.29,152,223.29" style="stroke:#181818;stroke-width:1.0;"/><text fill="#000000" font-family="sans-serif" font-size="13" lengthAdjust="spacing" textLength="7" x="153" y="267.4951">d</text></g><!--MD5=[a1e0d543606106285492e7dcf0375297]
link *start to N_1--><g id="link_*start_N_1"><path d="M26.12,32 C35.94,32 45.77,32 55.6,32 " fill="none" id="*start-to-N_1" style="stroke:#181818;stroke-width:1.0;"/><polygon fill="#181818" points="60.74,32,51.74,28,55.74,32,51.74,36,60.74,32" style="stroke:#181818;stroke-width:1.0;"/></g><!--MD5=[e479e70de51ad014afd809a45b1dd3b7]
link N_1 to N_2--><g id="link_N_1_N_2"><path d="M111.23,48.39 C134.18,63.16 168.17,87 193,113 C208.8,129.54 223.23,150.9 233.62,167.94 " fill="none" id="N_1-to-N_2" style="stroke:#181818;stroke-width:1.0;"/><polygon fill="#181818" points="236.44,172.63,235.2156,162.8575,233.857,168.3488,228.3657,166.9903,236.44,172.63" style="stroke:#181818;stroke-width:1.0;"/><text fill="#000000" font-family="sans-serif" font-size="13" lengthAdjust="spacing" textLength="3" x="183" y="101.4951">f</text></g><!--MD5=[5e113f068d3217dd4d00b74712435851]
link N_1 to N_3--><g id="link_N_1_N_3"><path d="M60.8,54.11 C51.83,63.2 42.78,74.59 38,87 C33.6725,98.2275 31.4144,110.5906 30.4692,122.8505 C30.3511,124.3829 30.2534,125.9138 30.1749,127.4406 C30.1552,127.8224 30.1367,128.2038 30.1195,128.585 " fill="none" id="N_1-to-N_3" style="stroke:#181818;stroke-width:1.0;"/><polygon fill="#181818" points="30.1195,128.585,34.5232,119.7755,30.346,123.5901,26.5314,119.413,30.1195,128.585" style="stroke:#181818;stroke-width:1.0;"/><text fill="#000000" font-family="sans-serif" font-size="13" lengthAdjust="spacing" textLength="7" x="39" y="101.4951">a</text></g><!--MD5=[debac8beee44b4157eda940073a4ebeb]
link N_3 to N_1--><g id="link_N_3_N_1"><path d="M51.581,128.8725 C51.619,128.7268 51.6571,128.581 51.6952,128.4353 C51.8477,127.8526 52.0009,127.2704 52.155,126.6891 C53.3878,122.0386 54.6725,117.4413 56,113 C61.12,95.89 68.06,77.18 73.97,62.16 " fill="none" id="N_3-to-N_1" style="stroke:#181818;stroke-width:1.0;"/><polygon fill="#181818" points="75.93,57.21,68.8991,64.1068,74.0903,61.8592,76.3379,67.0504,75.93,57.21" style="stroke:#181818;stroke-width:1.0;"/><text fill="#000000" font-family="sans-serif" font-size="13" lengthAdjust="spacing" textLength="7" x="65" y="101.4951">e</text></g><!--MD5=[b640c62c379c34ccc8202ff5946b6fee]
link N_2 to N_3_2--><g id="link_N_2_N_3_2"><path d="M231.1,223.29 C214.77,244.3 191.14,274.67 173.97,296.76 " fill="none" id="N_2-to-N_3_2" style="stroke:#181818;stroke-width:1.0;"/><polygon fill="#181818" points="170.84,300.78,179.5264,296.1381,173.9127,296.8355,173.2152,291.2219,170.84,300.78" style="stroke:#181818;stroke-width:1.0;"/><text fill="#000000" font-family="sans-serif" font-size="13" lengthAdjust="spacing" textLength="7" x="207" y="267.4951">b</text></g></g></svg>