<?xml version="1.0" encoding="UTF-8" standalone="no"?><svg xmlns="http://www.w3.org/2000/svg" xmlns:xlink="http://www.w3.org/1999/xlink" contentStyleType="text/css" height="450px" preserveAspectRatio="none" style="width:180px;height:450px;background:#FFFFFF;" version="1.1" viewBox="0 0 180 450" width="180px" zoomAndPan="magnify"><defs/><g><g id="N_1"><rect fill="#F1F1F1" height="50" rx="12.5" ry="12.5" style="stroke:#181818;stroke-width:0.5;" width="50" x="61" y="7"/><line style="stroke:#181818;stroke-width:0.5;" x1="61" x2="111" y1="36.1201" y2="36.1201"/><text fill="#000000" font-family="sans-serif" font-size="14" lengthAdjust="spacing" textLength="9" x="81.5" y="28.0439">A</text></g><g id="N_2"><rect fill="#F1F1F1" height="50" rx="12.5" ry="12.5" style="stroke:#181818;stroke-width:0.5;" width="50" x="98" y="136"/><line style="stroke:#181818;stroke-width:0.5;" x1="98" x2="148" y1="165.1201" y2="165.1201"/><text fill="#000000" font-family="sans-serif" font-size="14" lengthAdjust="spacing" textLength="9" x="118.5" y="157.0439">B</text></g><g id="N_3"><rect fill="#F1F1F1" height="50" rx="12.5" ry="12.5" style="stroke:#181818;stroke-width:0.5;" width="50" x="48" y="394"/><line style="stroke:#181818;stroke-width:0.5;" x1="48" x2="98" y1="423.1201" y2="423.1201"/><text fill="#000000" font-family="sans-serif" font-size="14" lengthAdjust="spacing" textLength="10" x="68" y="415.0439">C</text></g><g id="N_4"><rect fill="#F1F1F1" height="50" rx="12.5" ry="12.5" style="stroke:#181818;stroke-width:0.5;" width="50" x="51" y="265"/><line style="stroke:#181818;stroke-width:0.5;" x1="51" x2="101" y1="294.1201" y2="294.1201"/><text fill="#000000" font-family="sans-serif" font-size="14" lengthAdjust="spacing" textLength="10" x="71" y="286.0439">D</text></g><ellipse cx="16" cy="32" fill="#222222" rx="10" ry="10" style="stroke:none;stroke-width:1.0;"/><!--MD5=[a1e0d543606106285492e7dcf0375297]
link *start to N_1--><g id="link_*start_N_1"><path d="M26.12,32 C35.94,32 45.77,32 55.6,32 " fill="none" id="*start-to-N_1" style="stroke:#181818;stroke-width:1.0;"/><polygon fill="#181818" points="60.74,32,51.74,28,55.74,32,51.74,36,60.74,32" style="stroke:#181818;stroke-width:1.0;"/></g><!--MD5=[5e113f068d3217dd4d00b74712435851]
link N_1 to N_3--><g id="link_N_1_N_3"><path d="M75.96,57.04 C56.9,105.6 18.62,218.93 33,315 C36.92,341.17 48.23,369.04 57.82,389.18 " fill="none" id="N_1-to-N_3" style="stroke:#181818;stroke-width:1.0;"/><polygon fill="#181818" points="60.09,393.88,59.7559,384.0368,57.9055,389.3825,52.5598,387.532,60.09,393.88" style="stroke:#181818;stroke-width:1.0;"/><text fill="#000000" font-family="sans-serif" font-size="13" lengthAdjust="spacing" textLength="7" x="35" y="231.8979">a</text></g><!--MD5=[debac8beee44b4157eda940073a4ebeb]
link N_3 to N_1--><g id="link_N_3_N_1"><path d="M86.55,393.94 C108.77,352.87 151.9,265.91 166,186 C169.86,164.12 173.2,157.02 166,136 C155.88,106.48 133.47,78.9 114.94,59.72 " fill="none" id="N_3-to-N_1" style="stroke:#181818;stroke-width:1.0;"/><polygon fill="#181818" points="111.29,55.99,114.7325,65.2176,114.7896,59.5611,120.4462,59.6182,111.29,55.99" style="stroke:#181818;stroke-width:1.0;"/><text fill="#000000" font-family="sans-serif" font-size="13" lengthAdjust="spacing" textLength="7" x="160" y="231.8979">e</text></g><!--MD5=[e479e70de51ad014afd809a45b1dd3b7]
link N_1 to N_2--><g id="link_N_1_N_2"><path d="M93.05,57.19 C99.17,78.2 108.05,108.67 114.55,130.99 " fill="none" id="N_1-to-N_2" style="stroke:#181818;stroke-width:1.0;"/><polygon fill="#181818" points="115.98,135.9,117.3,126.14,114.58,131.1,109.62,128.38,115.98,135.9" style="stroke:#181818;stroke-width:1.0;"/><text fill="#000000" font-family="sans-serif" font-size="13" lengthAdjust="spacing" textLength="3" x="107" y="102.8979">f</text></g><!--MD5=[e87c8c875ac2e882c06fe468f57cef7e]
link N_2 to N_4--><g id="link_N_2_N_4"><path d="M114.05,186.19 C106.27,207.2 95,237.67 86.74,259.99 " fill="none" id="N_2-to-N_4" style="stroke:#181818;stroke-width:1.0;"/><polygon fill="#181818" points="84.92,264.9,91.7877,257.8406,86.6505,260.209,84.2821,255.0718,84.92,264.9" style="stroke:#181818;stroke-width:1.0;"/><text fill="#000000" font-family="sans-serif" font-size="13" lengthAdjust="spacing" textLength="7" x="103" y="231.8979">b</text></g><!--MD5=[1cb4dc3c0a2d3d5a68e4b8b192b940ef]
link N_3 to N_4--><g id="link_N_3_N_4"><path d="M73.57,393.9 C74.06,373.01 74.78,342.7 75.31,320.39 " fill="none" id="N_3-to-N_4" style="stroke:#181818;stroke-width:1.0;"/><polygon fill="#181818" points="75.43,315.19,71.2,324.0842,75.3015,320.1883,79.1973,324.2898,75.43,315.19" style="stroke:#181818;stroke-width:1.0;"/><text fill="#000000" font-family="sans-serif" font-size="13" lengthAdjust="spacing" textLength="7" x="75" y="360.8979">c</text></g><!--MD5=[becb1b6bd9036bb84e10564eb6bd3402]
link N_4 to N_3--><g id="link_N_4_N_3"><path d="M65.5,315.27 C62.07,324.41 58.71,335.01 57,345 C54.51,359.58 57.41,375.65 61.39,388.99 " fill="none" id="N_4-to-N_3" style="stroke:#181818;stroke-width:1.0;"/><polygon fill="#181818" points="62.9,393.78,63.9901,383.9917,61.3875,389.0142,56.3649,386.4116,62.9,393.78" style="stroke:#181818;stroke-width:1.0;"/><text fill="#000000" font-family="sans-serif" font-size="13" lengthAdjust="spacing" textLength="7" x="58" y="360.8979">d</text></g><!--MD5=[06b9ec0af1e44545b5ba408c1c9b8425]
link N_4 to N_1--><g id="link_N_4_N_1"><path d="M73.97,264.86 C71.76,234.68 68.92,181.47 72,136 C73.7,110.94 77.69,82.68 80.98,62.1 " fill="none" id="N_4-to-N_1" style="stroke:#181818;stroke-width:1.0;"/><polygon fill="#181818" points="81.79,57.05,76.3997,65.2928,80.9889,61.9854,84.2963,66.5746,81.79,57.05" style="stroke:#181818;stroke-width:1.0;"/><text fill="#000000" font-family="sans-serif" font-size="13" lengthAdjust="spacing" textLength="7" x="73" y="167.3979">e</text></g></g></svg>