<?xml version="1.0" encoding="UTF-8" standalone="no"?><svg xmlns="http://www.w3.org/2000/svg" xmlns:xlink="http://www.w3.org/1999/xlink" contentStyleType="text/css" height="447px" preserveAspectRatio="none" style="width:180px;height:447px;background:#FFFFFF;" version="1.1" viewBox="0 0 180 447" width="180px" zoomAndPan="magnify"><defs/><g><g id="N_1"><rect fill="#F1F1F1" height="50" rx="12.5" ry="12.5" style="stroke:#86808A;stroke-width:0.5;" width="50" x="61" y="7"/><line style="stroke:#86808A;stroke-width:0.5;" x1="61" x2="111" y1="34.6094" y2="34.6094"/><text fill="#86808A" font-family="sans-serif" font-size="14" lengthAdjust="spacing" textLength="9" x="81.5" y="26.5332">A</text></g><g id="N_2"><rect fill="#F1F1F1" height="50" rx="12.5" ry="12.5" style="stroke:#38BC9D;stroke-width:0.5;" width="50" x="98" y="135"/><line style="stroke:#38BC9D;stroke-width:0.5;" x1="98" x2="148" y1="162.6094" y2="162.6094"/><text fill="#38BC9D" font-family="sans-serif" font-size="14" lengthAdjust="spacing" textLength="9" x="118.5" y="154.5332">B</text></g><g id="N_3"><rect fill="#F1F1F1" height="50" rx="12.5" ry="12.5" style="stroke:#965408;stroke-width:0.5;" width="50" x="48" y="391"/><line style="stroke:#965408;stroke-width:0.5;" x1="48" x2="98" y1="418.6094" y2="418.6094"/><text fill="#965408" font-family="sans-serif" font-size="14" lengthAdjust="spacing" textLength="10" x="68" y="410.5332">C</text></g><g id="N_4"><rect fill="#F1F1F1" height="50" rx="12.5" ry="12.5" style="stroke:#5FBA21;stroke-width:0.5;" width="50" x="51" y="263"/><line style="stroke:#5FBA21;stroke-width:0.5;" x1="51" x2="101" y1="290.6094" y2="290.6094"/><text fill="#5FBA21" font-family="sans-serif" font-size="14" lengthAdjust="spacing" textLength="10" x="71" y="282.5332">D</text></g><ellipse cx="16" cy="32" fill="#222222" rx="10" ry="10" style="stroke:none;stroke-width:1.0;"/><!--MD5=[a1e0d543606106285492e7dcf0375297]
link *start to N_1--><g id="link_*start_N_1"><path d="M26.12,32 C35.94,32 45.77,32 55.6,32 " fill="none" id="*start-to-N_1" style="stroke:#181818;stroke-width:1.0;"/><polygon fill="#181818" points="60.74,32,51.74,28,55.74,32,51.74,36,60.74,32" style="stroke:#181818;stroke-width:1.0;"/></g><!--MD5=[5e113f068d3217dd4d00b74712435851]
link N_1 to N_3--><g id="link_N_1_N_3"><path d="M75.78,57.24 C56.62,105.67 18.48,217.87 33,313 C36.93,338.76 48.11,366.17 57.66,386.08 " fill="none" id="N_1-to-N_3" style="stroke:#181818;stroke-width:1.0;"/><polygon fill="#181818" points="59.92,390.71,59.5606,380.8677,57.7239,386.2181,52.3736,384.3814,59.92,390.71" style="stroke:#181818;stroke-width:1.0;"/><text fill="#000000" font-family="sans-serif" font-size="13" lengthAdjust="spacing" textLength="7" x="35" y="229.4951">a</text></g><!--MD5=[debac8beee44b4157eda940073a4ebeb]
link N_3 to N_1--><g id="link_N_3_N_1"><path d="M86.73,390.84 C109.01,350.01 151.94,264.09 166,185 C169.89,163.12 173.25,156 166,135 C155.87,105.68 133.47,78.37 114.94,59.4 " fill="none" id="N_3-to-N_1" style="stroke:#181818;stroke-width:1.0;"/><polygon fill="#181818" points="111.29,55.72,114.7698,64.9336,114.804,59.2769,120.4608,59.3112,111.29,55.72" style="stroke:#181818;stroke-width:1.0;"/><text fill="#000000" font-family="sans-serif" font-size="13" lengthAdjust="spacing" textLength="7" x="160" y="229.4951">e</text></g><!--MD5=[e479e70de51ad014afd809a45b1dd3b7]
link N_1 to N_2--><g id="link_N_1_N_2"><path d="M93.13,57.29 C99.23,78.04 108,107.92 114.46,129.93 " fill="none" id="N_1-to-N_2" style="stroke:#181818;stroke-width:1.0;"/><polygon fill="#181818" points="115.89,134.78,117.1832,125.0164,114.4769,129.9839,109.5094,127.2775,115.89,134.78" style="stroke:#181818;stroke-width:1.0;"/><text fill="#000000" font-family="sans-serif" font-size="13" lengthAdjust="spacing" textLength="3" x="107" y="101.4951">f</text></g><!--MD5=[e87c8c875ac2e882c06fe468f57cef7e]
link N_2 to N_4--><g id="link_N_2_N_4"><path d="M113.94,185.29 C106.2,206.04 95.05,235.92 86.84,257.93 " fill="none" id="N_2-to-N_4" style="stroke:#181818;stroke-width:1.0;"/><polygon fill="#181818" points="85.03,262.78,91.9354,255.7575,86.7856,258.0984,84.4448,252.9485,85.03,262.78" style="stroke:#181818;stroke-width:1.0;"/><text fill="#000000" font-family="sans-serif" font-size="13" lengthAdjust="spacing" textLength="7" x="103" y="229.4951">b</text></g><!--MD5=[1cb4dc3c0a2d3d5a68e4b8b192b940ef]
link N_3 to N_4--><g id="link_N_3_N_4"><path d="M73.58,390.78 C74.07,370.15 74.78,340.43 75.3,318.43 " fill="none" id="N_3-to-N_4" style="stroke:#181818;stroke-width:1.0;"/><polygon fill="#181818" points="75.42,313.29,71.2154,322.1962,75.3057,318.2887,79.2133,322.3791,75.42,313.29" style="stroke:#181818;stroke-width:1.0;"/><text fill="#000000" font-family="sans-serif" font-size="13" lengthAdjust="spacing" textLength="7" x="75" y="357.4951">c</text></g><!--MD5=[becb1b6bd9036bb84e10564eb6bd3402]
link N_4 to N_3--><g id="link_N_4_N_3"><path d="M65.5,313.27 C62.07,322.41 58.71,333.01 57,343 C54.58,357.15 57.35,372.72 61.23,385.74 " fill="none" id="N_4-to-N_3" style="stroke:#181818;stroke-width:1.0;"/><polygon fill="#181818" points="62.82,390.79,63.9017,381.0007,61.3034,386.0256,56.2786,383.4273,62.82,390.79" style="stroke:#181818;stroke-width:1.0;"/><text fill="#000000" font-family="sans-serif" font-size="13" lengthAdjust="spacing" textLength="7" x="58" y="357.4951">d</text></g><!--MD5=[06b9ec0af1e44545b5ba408c1c9b8425]
link N_4 to N_1--><g id="link_N_4_N_1"><path d="M73.95,262.75 C71.74,232.73 68.92,180.04 72,135 C73.68,110.34 77.63,82.56 80.91,62.23 " fill="none" id="N_4-to-N_1" style="stroke:#181818;stroke-width:1.0;"/><polygon fill="#181818" points="81.73,57.22,76.3434,65.4653,80.9311,62.1558,84.2407,66.7435,81.73,57.22" style="stroke:#181818;stroke-width:1.0;"/><text fill="#000000" font-family="sans-serif" font-size="13" lengthAdjust="spacing" textLength="7" x="73" y="165.4951">e</text></g></g></svg>