<?xml version="1.0" encoding="UTF-8" standalone="no"?><svg xmlns="http://www.w3.org/2000/svg" xmlns:xlink="http://www.w3.org/1999/xlink" contentStyleType="text/css" height="385px" preserveAspectRatio="none" style="width:282px;height:385px;background:#FFFFFF;" version="1.1" viewBox="0 0 282 385" width="282px" zoomAndPan="magnify"><defs/><g><!--MD5=[d53651f891be2d280b1927ff18674899]
cluster N_3--><g id="cluster_N_3"><path d="M41.5,130 L188.5,130 A12.5,12.5 0 0 1 201,142.5 L201,159.1201 L29,159.1201 L29,142.5 A12.5,12.5 0 0 1 41.5,130 " fill="#F1F1F1" style="stroke:#F1F1F1;stroke-width:1.0;"/><rect height="249" rx="12.5" ry="12.5" style="stroke:#181818;stroke-width:0.5;fill:none;" width="172" x="29" y="130"/><line style="stroke:#181818;stroke-width:0.5;fill:none;" x1="29" x2="201" y1="159.1201" y2="159.1201"/><text fill="#000000" font-family="sans-serif" font-size="14" lengthAdjust="spacing" textLength="75" x="77.5" y="150.0439">EmptyName</text></g><g id="N_3.N_3_1"><rect fill="#F1F1F1" height="50" rx="12.5" ry="12.5" style="stroke:#181818;stroke-width:0.5;" width="50" x="127" y="176"/><line style="stroke:#181818;stroke-width:0.5;" x1="127" x2="177" y1="205.1201" y2="205.1201"/><text fill="#000000" font-family="sans-serif" font-size="14" lengthAdjust="spacing" textLength="10" x="147" y="197.0439">C</text></g><g id="N_3.N_3_2"><rect fill="#F1F1F1" height="50" rx="12.5" ry="12.5" style="stroke:#181818;stroke-width:0.5;" width="50" x="127" y="305"/><line style="stroke:#181818;stroke-width:0.5;" x1="127" x2="177" y1="334.1201" y2="334.1201"/><text fill="#000000" font-family="sans-serif" font-size="14" lengthAdjust="spacing" textLength="10" x="147" y="326.0439">D</text></g><ellipse cx="82" cy="201" fill="#222222" rx="10" ry="10" style="stroke:none;stroke-width:1.0;"/><g id="N_1"><rect fill="#F1F1F1" height="50" rx="12.5" ry="12.5" style="stroke:#181818;stroke-width:0.5;" width="50" x="61" y="7"/><line style="stroke:#181818;stroke-width:0.5;" x1="61" x2="111" y1="36.1201" y2="36.1201"/><text fill="#000000" font-family="sans-serif" font-size="14" lengthAdjust="spacing" textLength="9" x="81.5" y="28.0439">A</text></g><g id="N_2"><rect fill="#F1F1F1" height="50" rx="12.5" ry="12.5" style="stroke:#181818;stroke-width:0.5;" width="50" x="225" y="176"/><line style="stroke:#181818;stroke-width:0.5;" x1="225" x2="275" y1="205.1201" y2="205.1201"/><text fill="#000000" font-family="sans-serif" font-size="14" lengthAdjust="spacing" textLength="9" x="245.5" y="197.0439">B</text></g><ellipse cx="16" cy="32" fill="#222222" rx="10" ry="10" style="stroke:none;stroke-width:1.0;"/><!--MD5=[25d2396c0ef712f4365e0e22cdacc4d1]
link *start*N_3 to N_3_1--><g id="link_*start*N_3_N_3_1"><path d="M92.12,201 C101.94,201 111.77,201 121.6,201 " fill="none" id="*start*N_3-to-N_3_1" style="stroke:#181818;stroke-width:1.0;"/><polygon fill="#181818" points="126.74,201,117.74,197,121.74,201,117.74,205,126.74,201" style="stroke:#181818;stroke-width:1.0;"/></g><!--MD5=[ccd68096c09cc2399ee16d086e6618f5]
link N_3_1 to N_3_2--><g id="link_N_3_1_N_3_2"><path d="M128.35,226.08 C117.69,239.88 108.57,257.84 114,275 C116.86,284.04 121.84,292.87 127.27,300.69 " fill="none" id="N_3_1-to-N_3_2" style="stroke:#181818;stroke-width:1.0;"/><polygon fill="#181818" points="130.32,304.92,128.2958,295.2814,127.3936,300.8659,121.8091,299.9637,130.32,304.92" style="stroke:#181818;stroke-width:1.0;"/><text fill="#000000" font-family="sans-serif" font-size="13" lengthAdjust="spacing" textLength="7" x="115" y="271.8979">c</text></g><!--MD5=[240785e12faa197ea7722194d40e327c]
link N_3_2 to N_3_1--><g id="link_N_3_2_N_3_1"><path d="M152,304.9 C152,284.01 152,253.7 152,231.39 " fill="none" id="N_3_2-to-N_3_1" style="stroke:#181818;stroke-width:1.0;"/><polygon fill="#181818" points="152,226.19,148,235.19,152,231.19,156,235.19,152,226.19" style="stroke:#181818;stroke-width:1.0;"/><text fill="#000000" font-family="sans-serif" font-size="13" lengthAdjust="spacing" textLength="7" x="153" y="271.8979">d</text></g><!--MD5=[a1e0d543606106285492e7dcf0375297]
link *start to N_1--><g id="link_*start_N_1"><path d="M26.12,32 C35.94,32 45.77,32 55.6,32 " fill="none" id="*start-to-N_1" style="stroke:#181818;stroke-width:1.0;"/><polygon fill="#181818" points="60.74,32,51.74,28,55.74,32,51.74,36,60.74,32" style="stroke:#181818;stroke-width:1.0;"/></g><!--MD5=[e479e70de51ad014afd809a45b1dd3b7]
link N_1 to N_2--><g id="link_N_1_N_2"><path d="M111.28,48.58 C134.27,63.54 168.28,87.68 193,114 C209.28,131.33 224,153.81 234.41,171.44 " fill="none" id="N_1-to-N_2" style="stroke:#181818;stroke-width:1.0;"/><polygon fill="#181818" points="236.96,175.82,235.8984,166.0285,234.4486,171.4965,228.9807,170.0467,236.96,175.82" style="stroke:#181818;stroke-width:1.0;"/><text fill="#000000" font-family="sans-serif" font-size="13" lengthAdjust="spacing" textLength="3" x="183" y="102.8979">f</text></g><!--MD5=[5e113f068d3217dd4d00b74712435851]
link N_1 to N_3--><g id="link_N_1_N_3"><path d="M60.8,54.11 C51.83,63.2 42.78,74.59 38,87 C33.5575,98.5325 31.2413,111.2325 30.2738,123.8269 C30.1528,125.4012 30.0529,126.9738 29.9726,128.5423 C29.9526,128.9345 29.9337,129.3263 29.9161,129.7179 " fill="none" id="N_1-to-N_3" style="stroke:#181818;stroke-width:1.0;"/><polygon fill="#181818" points="29.9161,129.7179,34.3174,120.9072,30.1413,124.723,26.3255,120.5469,29.9161,129.7179" style="stroke:#181818;stroke-width:1.0;"/><text fill="#000000" font-family="sans-serif" font-size="13" lengthAdjust="spacing" textLength="7" x="39" y="102.8979">a</text></g><!--MD5=[debac8beee44b4157eda940073a4ebeb]
link N_3 to N_1--><g id="link_N_3_N_1"><path d="M51.6703,129.8041 C51.8234,129.2074 51.9773,128.6114 52.1321,128.0162 C53.3703,123.2547 54.6625,118.5475 56,114 C61.13,96.55 68.14,77.45 74.09,62.19 " fill="none" id="N_3-to-N_1" style="stroke:#181818;stroke-width:1.0;"/><polygon fill="#181818" points="76.06,57.16,69.0474,64.0755,74.2326,61.8141,76.494,66.9993,76.06,57.16" style="stroke:#181818;stroke-width:1.0;"/><text fill="#000000" font-family="sans-serif" font-size="13" lengthAdjust="spacing" textLength="7" x="65" y="102.8979">e</text></g><!--MD5=[b640c62c379c34ccc8202ff5946b6fee]
link N_2 to N_3_2--><g id="link_N_2_N_3_2"><path d="M231.34,226.19 C214.92,247.46 191.01,278.44 173.74,300.83 " fill="none" id="N_2-to-N_3_2" style="stroke:#181818;stroke-width:1.0;"/><polygon fill="#181818" points="170.59,304.9,179.2471,300.2037,173.6379,300.9363,172.9052,295.3271,170.59,304.9" style="stroke:#181818;stroke-width:1.0;"/><text fill="#000000" font-family="sans-serif" font-size="13" lengthAdjust="spacing" textLength="7" x="207" y="271.8979">b</text></g></g></svg>