<?xml version="1.0" encoding="UTF-8" standalone="no"?><svg xmlns="http://www.w3.org/2000/svg" xmlns:xlink="http://www.w3.org/1999/xlink" contentStyleType="text/css" height="708px" preserveAspectRatio="none" style="width:196px;height:708px;background:#FFFFFF;" version="1.1" viewBox="0 0 196 708" width="196px" zoomAndPan="magnify"><defs/><g><g id="N_1"><rect fill="#F1F1F1" height="50" rx="12.5" ry="12.5" style="stroke:#181818;stroke-width:0.5;" width="50" x="61" y="7"/><line style="stroke:#181818;stroke-width:0.5;" x1="61" x2="111" y1="36.1201" y2="36.1201"/><text fill="#000000" font-family="sans-serif" font-size="14" lengthAdjust="spacing" textLength="9" x="81.5" y="28.0439">A</text></g><g id="N_2"><rect fill="#F1F1F1" height="50" rx="12.5" ry="12.5" style="stroke:#181818;stroke-width:0.5;" width="56" x="58" y="136"/><line style="stroke:#181818;stroke-width:0.5;" x1="58" x2="114" y1="165.1201" y2="165.1201"/><text fill="#000000" font-family="sans-serif" font-size="14" lengthAdjust="spacing" textLength="36" x="68" y="157.0439">(B, E)</text></g><g id="N_3"><rect fill="#F1F1F1" height="50" rx="12.5" ry="12.5" style="stroke:#181818;stroke-width:0.5;" width="57" x="105.5" y="265"/><line style="stroke:#181818;stroke-width:0.5;" x1="105.5" x2="162.5" y1="294.1201" y2="294.1201"/><text fill="#000000" font-family="sans-serif" font-size="14" lengthAdjust="spacing" textLength="37" x="115.5" y="286.0439">(C, E)</text></g><g id="N_4"><rect fill="#F1F1F1" height="50" rx="12.5" ry="12.5" style="stroke:#181818;stroke-width:0.5;" width="57" x="105.5" y="394"/><line style="stroke:#181818;stroke-width:0.5;" x1="105.5" x2="162.5" y1="423.1201" y2="423.1201"/><text fill="#000000" font-family="sans-serif" font-size="14" lengthAdjust="spacing" textLength="37" x="115.5" y="415.0439">(D, E)</text></g><g id="N_5"><rect fill="#F1F1F1" height="50" rx="12.5" ry="12.5" style="stroke:#181818;stroke-width:0.5;" width="56" x="13" y="265"/><line style="stroke:#181818;stroke-width:0.5;" x1="13" x2="69" y1="294.1201" y2="294.1201"/><text fill="#000000" font-family="sans-serif" font-size="14" lengthAdjust="spacing" textLength="36" x="23" y="286.0439">(B, F)</text></g><g id="N_6"><rect fill="#F1F1F1" height="50" rx="12.5" ry="12.5" style="stroke:#181818;stroke-width:0.5;" width="57" x="12.5" y="394"/><line style="stroke:#181818;stroke-width:0.5;" x1="12.5" x2="69.5" y1="423.1201" y2="423.1201"/><text fill="#000000" font-family="sans-serif" font-size="14" lengthAdjust="spacing" textLength="37" x="22.5" y="415.0439">(C, F)</text></g><g id="N_7"><rect fill="#F1F1F1" height="50" rx="12.5" ry="12.5" style="stroke:#181818;stroke-width:0.5;" width="57" x="91.5" y="523"/><line style="stroke:#181818;stroke-width:0.5;" x1="91.5" x2="148.5" y1="552.1201" y2="552.1201"/><text fill="#000000" font-family="sans-serif" font-size="14" lengthAdjust="spacing" textLength="37" x="101.5" y="544.0439">(D, F)</text></g><g id="N_8"><rect fill="#F1F1F1" height="50" rx="12.5" ry="12.5" style="stroke:#181818;stroke-width:0.5;" width="50" x="95" y="652"/><line style="stroke:#181818;stroke-width:0.5;" x1="95" x2="145" y1="681.1201" y2="681.1201"/><text fill="#000000" font-family="sans-serif" font-size="14" lengthAdjust="spacing" textLength="11" x="114.5" y="673.0439">G</text></g><ellipse cx="16" cy="32" fill="#222222" rx="10" ry="10" style="stroke:none;stroke-width:1.0;"/><!--MD5=[a1e0d543606106285492e7dcf0375297]
link *start to N_1--><g id="link_*start_N_1"><path d="M26.12,32 C35.94,32 45.77,32 55.6,32 " fill="none" id="*start-to-N_1" style="stroke:#181818;stroke-width:1.0;"/><polygon fill="#181818" points="60.74,32,51.74,28,55.74,32,51.74,36,60.74,32" style="stroke:#181818;stroke-width:1.0;"/></g><!--MD5=[e479e70de51ad014afd809a45b1dd3b7]
link N_1 to N_2--><g id="link_N_1_N_2"><path d="M86,57.19 C86,78.11 86,108.41 86,130.71 " fill="none" id="N_1-to-N_2" style="stroke:#181818;stroke-width:1.0;"/><polygon fill="#181818" points="86,135.9,90,126.9,86,130.9,82,126.9,86,135.9" style="stroke:#181818;stroke-width:1.0;"/><text fill="#000000" font-family="sans-serif" font-size="13" lengthAdjust="spacing" textLength="7" x="87" y="102.8979">a</text></g><!--MD5=[faffcdd34262b02527fa0ab010c9e32e]
link N_2 to N_3--><g id="link_N_2_N_3"><path d="M95.14,186.19 C103.08,207.2 114.6,237.67 123.03,259.99 " fill="none" id="N_2-to-N_3" style="stroke:#181818;stroke-width:1.0;"/><polygon fill="#181818" points="124.89,264.9,125.439,255.0665,123.1172,260.2248,117.9588,257.903,124.89,264.9" style="stroke:#181818;stroke-width:1.0;"/><text fill="#000000" font-family="sans-serif" font-size="13" lengthAdjust="spacing" textLength="7" x="113" y="231.8979">b</text></g><!--MD5=[2738cb3596d28317122fa8726abf2f71]
link N_2 to N_5--><g id="link_N_2_N_5"><path d="M77.43,186.19 C69.99,207.2 59.19,237.67 51.28,259.99 " fill="none" id="N_2-to-N_5" style="stroke:#181818;stroke-width:1.0;"/><polygon fill="#181818" points="49.54,264.9,56.2983,257.7358,51.1981,260.1829,48.751,255.0828,49.54,264.9" style="stroke:#181818;stroke-width:1.0;"/><text fill="#000000" font-family="sans-serif" font-size="13" lengthAdjust="spacing" textLength="7" x="68" y="231.8979">e</text></g><!--MD5=[1cb4dc3c0a2d3d5a68e4b8b192b940ef]
link N_3 to N_4--><g id="link_N_3_N_4"><path d="M134,315.19 C134,336.11 134,366.41 134,388.71 " fill="none" id="N_3-to-N_4" style="stroke:#181818;stroke-width:1.0;"/><polygon fill="#181818" points="134,393.9,138,384.9,134,388.9,130,384.9,134,393.9" style="stroke:#181818;stroke-width:1.0;"/><text fill="#000000" font-family="sans-serif" font-size="13" lengthAdjust="spacing" textLength="7" x="135" y="360.8979">c</text></g><!--MD5=[39d191dbc3e1429f806030b751ba3521]
link N_3 to N_6--><g id="link_N_3_N_6"><path d="M116.29,315.19 C100.71,336.46 78.02,367.44 61.63,389.83 " fill="none" id="N_3-to-N_6" style="stroke:#181818;stroke-width:1.0;"/><polygon fill="#181818" points="58.65,393.9,67.1888,388.992,61.5994,389.8625,60.7289,384.273,58.65,393.9" style="stroke:#181818;stroke-width:1.0;"/><text fill="#000000" font-family="sans-serif" font-size="13" lengthAdjust="spacing" textLength="7" x="95" y="360.8979">e</text></g><!--MD5=[ee81dbffcbea76c17bd7b67bf8cd5dad]
link N_4 to N_7--><g id="link_N_4_N_7"><path d="M131.33,444.19 C129.03,465.11 125.69,495.41 123.23,517.71 " fill="none" id="N_4-to-N_7" style="stroke:#181818;stroke-width:1.0;"/><polygon fill="#181818" points="122.66,522.9,127.6375,514.4015,123.2169,517.9311,119.6872,513.5105,122.66,522.9" style="stroke:#181818;stroke-width:1.0;"/><text fill="#000000" font-family="sans-serif" font-size="13" lengthAdjust="spacing" textLength="7" x="128" y="489.8979">e</text></g><!--MD5=[71ac3fe825be4c1d2d565ada9878911e]
link N_5 to N_6--><g id="link_N_5_N_6"><path d="M39.77,315.33 C39.2,329.52 38.7,347.77 39,364 C39.15,371.93 39.41,380.5 39.71,388.44 " fill="none" id="N_5-to-N_6" style="stroke:#181818;stroke-width:1.0;"/><polygon fill="#181818" points="39.91,393.81,43.5732,384.6677,39.7244,388.8134,35.5787,384.9647,39.91,393.81" style="stroke:#181818;stroke-width:1.0;"/><text fill="#000000" font-family="sans-serif" font-size="13" lengthAdjust="spacing" textLength="7" x="40" y="360.8979">b</text></g><!--MD5=[13a3d64d50dccc3994c2f2db9898c904]
link N_6 to N_7--><g id="link_N_6_N_7"><path d="M56.05,444.19 C69.22,465.37 88.39,496.18 102.3,518.55 " fill="none" id="N_6-to-N_7" style="stroke:#181818;stroke-width:1.0;"/><polygon fill="#181818" points="105.01,522.9,103.6615,513.1439,102.3728,518.652,96.8647,517.3634,105.01,522.9" style="stroke:#181818;stroke-width:1.0;"/><text fill="#000000" font-family="sans-serif" font-size="13" lengthAdjust="spacing" textLength="7" x="87" y="489.8979">c</text></g><!--MD5=[261fa3a83a31cc7999f38d4ec49847d4]
link N_6 to N_8--><g id="link_N_6_N_8"><path d="M42.3,444.18 C44.5,474.84 50.28,529.02 65,573 C73.85,599.45 89.08,627.22 101.27,647.25 " fill="none" id="N_6-to-N_8" style="stroke:#181818;stroke-width:1.0;"/><polygon fill="#181818" points="103.98,651.66,102.6789,641.8975,101.3635,647.3993,95.8617,646.0839,103.98,651.66" style="stroke:#181818;stroke-width:1.0;"/><text fill="#000000" font-family="sans-serif" font-size="13" lengthAdjust="spacing" textLength="7" x="66" y="554.3979">h</text></g><!--MD5=[aded6d0640dcf96c71167dbb70b81132]
link N_7 to N_8--><g id="link_N_7_N_8"><path d="M120,573.19 C120,594.11 120,624.41 120,646.71 " fill="none" id="N_7-to-N_8" style="stroke:#181818;stroke-width:1.0;"/><polygon fill="#181818" points="120,651.9,124,642.9,120,646.9,116,642.9,120,651.9" style="stroke:#181818;stroke-width:1.0;"/><text fill="#000000" font-family="sans-serif" font-size="13" lengthAdjust="spacing" textLength="7" x="121" y="618.8979">g</text></g><!--MD5=[6f29ddcfeb7d8fcbb31b28124eaebb70]
link N_3 to N_8--><g id="link_N_3_N_8"><path d="M148.43,315.39 C159.53,335.66 173.96,365.65 180,394 C189.48,438.49 169.55,559.88 166,573 C158.92,599.19 146.03,627.19 135.7,647.38 " fill="none" id="N_3-to-N_8" style="stroke:#181818;stroke-width:1.0;"/><polygon fill="#181818" points="133.4,651.82,141.0898,645.6664,135.6987,647.3797,133.9854,641.9886,133.4,651.82" style="stroke:#181818;stroke-width:1.0;"/><text fill="#000000" font-family="sans-serif" font-size="13" lengthAdjust="spacing" textLength="7" x="181" y="489.8979">h</text></g></g></svg>