<?xml version="1.0" encoding="UTF-8" standalone="no"?><svg xmlns="http://www.w3.org/2000/svg" xmlns:xlink="http://www.w3.org/1999/xlink" contentStyleType="text/css" height="559px" preserveAspectRatio="none" style="width:229px;height:559px;background:#FFFFFF;" version="1.1" viewBox="0 0 229 559" width="229px" zoomAndPan="magnify"><defs/><g><!--MD5=[deb5ab55ca9af80869d5bd0ea7151fdf]
cluster N_1--><g id="cluster_N_1"><path d="M19.5,52.73 L166.5,52.73 A12.5,12.5 0 0 1 179,65.23 L179,81.8501 L7,81.8501 L7,65.23 A12.5,12.5 0 0 1 19.5,52.73 " fill="#F1F1F1" style="stroke:#F1F1F1;stroke-width:1.0;"/><rect height="378" rx="12.5" ry="12.5" style="stroke:#181818;stroke-width:0.5;fill:none;" width="172" x="7" y="52.73"/><line style="stroke:#181818;stroke-width:0.5;fill:none;" x1="7" x2="179" y1="81.8501" y2="81.8501"/><text fill="#000000" font-family="sans-serif" font-size="14" lengthAdjust="spacing" textLength="9" x="88.5" y="72.7739">A</text></g><g id="N_1.N_1_1"><rect fill="#F1F1F1" height="50" rx="12.5" ry="12.5" style="stroke:#181818;stroke-width:0.5;" width="50" x="105" y="98.73"/><line style="stroke:#181818;stroke-width:0.5;" x1="105" x2="155" y1="127.8501" y2="127.8501"/><text fill="#000000" font-family="sans-serif" font-size="14" lengthAdjust="spacing" textLength="9" x="125.5" y="119.7739">B</text></g><g id="N_1.N_1_2"><rect fill="#F1F1F1" height="50" rx="12.5" ry="12.5" style="stroke:#181818;stroke-width:0.5;" width="50" x="105" y="227.73"/><line style="stroke:#181818;stroke-width:0.5;" x1="105" x2="155" y1="256.8501" y2="256.8501"/><text fill="#000000" font-family="sans-serif" font-size="14" lengthAdjust="spacing" textLength="10" x="125" y="248.7739">C</text></g><g id="N_1.N_1_3"><rect fill="#F1F1F1" height="50" rx="12.5" ry="12.5" style="stroke:#181818;stroke-width:0.5;" width="50" x="55" y="356.73"/><line style="stroke:#181818;stroke-width:0.5;" x1="55" x2="105" y1="385.8501" y2="385.8501"/><text fill="#000000" font-family="sans-serif" font-size="14" lengthAdjust="spacing" textLength="10" x="75" y="377.7739">D</text></g><ellipse cx="60" cy="123.73" fill="#222222" rx="10" ry="10" style="stroke:none;stroke-width:1.0;"/><g id="N_2"><rect fill="#F1F1F1" height="50" rx="12.5" ry="12.5" style="stroke:#181818;stroke-width:0.5;" width="50" x="150" y="503.73"/><line style="stroke:#181818;stroke-width:0.5;" x1="150" x2="200" y1="532.8501" y2="532.8501"/><text fill="#000000" font-family="sans-serif" font-size="14" lengthAdjust="spacing" textLength="9" x="170.5" y="524.7739">E</text></g><ellipse cx="213" cy="123.73" fill="#222222" rx="10" ry="10" style="stroke:none;stroke-width:1.0;"/><!--MD5=[a264d6cd0624fa13236d6c5e9d40bca1]
link *start*N_1 to N_1_1--><g id="link_*start*N_1_N_1_1"><path d="M70.12,123.73 C79.94,123.73 89.77,123.73 99.6,123.73 " fill="none" id="*start*N_1-to-N_1_1" style="stroke:#181818;stroke-width:1.0;"/><polygon fill="#181818" points="104.74,123.73,95.74,119.73,99.74,123.73,95.74,127.73,104.74,123.73" style="stroke:#181818;stroke-width:1.0;"/></g><!--MD5=[5efd26506746eba3d8f3722ceff28851]
link N_1_1 to N_1_2--><g id="link_N_1_1_N_1_2"><path d="M108.32,148.81 C101.75,157.6 95.39,168.02 92,178.73 C87.12,194.15 93.98,210.21 103.16,223.32 " fill="none" id="N_1_1-to-N_1_2" style="stroke:#181818;stroke-width:1.0;"/><polygon fill="#181818" points="106.35,227.65,104.2489,218.0279,103.3913,223.6193,97.7999,222.7618,106.35,227.65" style="stroke:#181818;stroke-width:1.0;"/><text fill="#000000" font-family="sans-serif" font-size="13" lengthAdjust="spacing" textLength="7" x="93" y="194.6279">b</text></g><!--MD5=[a70cc15f31d9a6f92fd2e345a9065221]
link N_1_2 to N_1_1--><g id="link_N_1_2_N_1_1"><path d="M130,227.63 C130,206.74 130,176.43 130,154.12 " fill="none" id="N_1_2-to-N_1_1" style="stroke:#181818;stroke-width:1.0;"/><polygon fill="#181818" points="130,148.92,126,157.92,130,153.92,134,157.92,130,148.92" style="stroke:#181818;stroke-width:1.0;"/><text fill="#000000" font-family="sans-serif" font-size="13" lengthAdjust="spacing" textLength="7" x="131" y="194.6279">b</text></g><!--MD5=[9ffcf2a23e30450b7a717ab5550363cd]
link N_1_2 to N_1_3--><g id="link_N_1_2_N_1_3"><path d="M105.24,277.75 C97.76,286.46 90.38,296.85 86,307.73 C80.51,321.37 78.75,337.59 78.48,351.26 " fill="none" id="N_1_2-to-N_1_3" style="stroke:#181818;stroke-width:1.0;"/><polygon fill="#181818" points="78.44,356.57,82.517,347.6046,78.4829,351.5702,74.5173,347.536,78.44,356.57" style="stroke:#181818;stroke-width:1.0;"/><text fill="#000000" font-family="sans-serif" font-size="13" lengthAdjust="spacing" textLength="7" x="87" y="323.6279">c</text></g><!--MD5=[276fee53e72833cd0543cf4b12a44fee]
link N_1_3 to N_1_2--><g id="link_N_1_3_N_1_2"><path d="M89.49,356.63 C97.75,335.65 109.74,305.18 118.54,282.84 " fill="none" id="N_1_3-to-N_1_2" style="stroke:#181818;stroke-width:1.0;"/><polygon fill="#181818" points="120.48,277.92,113.4602,284.8281,118.6478,282.5722,120.9037,287.7597,120.48,277.92" style="stroke:#181818;stroke-width:1.0;"/><text fill="#000000" font-family="sans-serif" font-size="13" lengthAdjust="spacing" textLength="7" x="109" y="323.6279">b</text></g><!--MD5=[a1e0d543606106285492e7dcf0375297]
link *start to N_1--><g id="link_*start_N_1"><path d="M211.29,113.61 C206.79,90.75 192.15,36.03 153.5,21.73 C110.98,6 94.02,6 51.5,21.73 C40.74,25.71 33.0356,33.5844 27.5416,43.2712 C26.168,45.693 24.9327,48.228 23.8222,50.8437 C23.6834,51.1707 23.5466,51.4989 23.4117,51.8283 C23.3442,51.9931 23.2772,52.1581 23.2107,52.3234 " fill="none" id="*start-to-N_1" style="stroke:#181818;stroke-width:1.0;"/><polygon fill="#181818" points="23.2107,52.3234,30.2808,45.4667,25.0769,47.6847,22.8588,42.4808,23.2107,52.3234" style="stroke:#181818;stroke-width:1.0;"/></g><!--MD5=[97528d6d976f00018b751df292669483]
link N_1_1 to N_2--><g id="link_N_1_1_N_2"><path d="M142.73,148.95 C152.81,169.37 166.27,199.65 173,227.73 C196.57,326.12 186.22,353.63 190,454.73 C190.32,463.17 191.14,465.36 190,473.73 C188.88,481.95 186.84,490.69 184.62,498.69 " fill="none" id="N_1_1-to-N_2" style="stroke:#181818;stroke-width:1.0;"/><polygon fill="#181818" points="183.22,503.56,189.5593,496.0226,184.6068,498.7562,181.8732,493.8037,183.22,503.56" style="stroke:#181818;stroke-width:1.0;"/><text fill="#000000" font-family="sans-serif" font-size="13" lengthAdjust="spacing" textLength="7" x="189" y="323.6279">a</text></g><!--MD5=[582ddc942fdb20a7fff6e2039005c678]
link N_1_2 to N_2--><g id="link_N_1_2_N_2"><path d="M133.99,278.05 C142.27,328.42 161.25,444 170.18,498.4 " fill="none" id="N_1_2-to-N_2" style="stroke:#181818;stroke-width:1.0;"/><polygon fill="#181818" points="171.02,503.47,173.4994,493.9383,170.205,498.5369,165.6064,495.2424,171.02,503.47" style="stroke:#181818;stroke-width:1.0;"/><text fill="#000000" font-family="sans-serif" font-size="13" lengthAdjust="spacing" textLength="7" x="162" y="388.1279">a</text></g><!--MD5=[158bae86f151c133f73a061adf1f6c4b]
link N_1_3 to N_2--><g id="link_N_1_3_N_2"><path d="M95.9,407 C112.55,432.41 138.67,472.28 156.29,499.18 " fill="none" id="N_1_3-to-N_2" style="stroke:#181818;stroke-width:1.0;"/><polygon fill="#181818" points="159.05,503.38,157.4628,493.6599,156.3095,499.1979,150.7715,498.0446,159.05,503.38" style="stroke:#181818;stroke-width:1.0;"/><text fill="#000000" font-family="sans-serif" font-size="13" lengthAdjust="spacing" textLength="7" x="140" y="470.6279">a</text></g></g></svg>