<?xml version="1.0" encoding="UTF-8" standalone="no"?><svg xmlns="http://www.w3.org/2000/svg" xmlns:xlink="http://www.w3.org/1999/xlink" contentStyleType="text/css" height="575px" preserveAspectRatio="none" style="width:257px;height:575px;background:#FFFFFF;" version="1.1" viewBox="0 0 257 575" width="257px" zoomAndPan="magnify"><defs/><g><g id="N_1"><rect fill="#F1F1F1" height="50" rx="12.5" ry="12.5" style="stroke:#05CD38;stroke-width:0.5;" width="50" x="46.88" y="263"/><line style="stroke:#05CD38;stroke-width:0.5;" x1="46.88" x2="96.88" y1="290.6094" y2="290.6094"/><text fill="#05CD38" font-family="sans-serif" font-size="14" lengthAdjust="spacing" textLength="29" x="57.38" y="282.5332">A(C)</text></g><g id="N_2"><rect fill="#F1F1F1" height="50" rx="12.5" ry="12.5" style="stroke:#4602F9;stroke-width:0.5;" width="50" x="35.88" y="391"/><line style="stroke:#4602F9;stroke-width:0.5;" x1="35.88" x2="85.88" y1="418.6094" y2="418.6094"/><text fill="#4602F9" font-family="sans-serif" font-size="14" lengthAdjust="spacing" textLength="29" x="46.38" y="410.5332">B(C)</text></g><g id="N_3"><rect fill="#F1F1F1" height="50" rx="12.5" ry="12.5" style="stroke:#9B0E5A;stroke-width:0.5;" width="50" x="200.88" y="391"/><line style="stroke:#9B0E5A;stroke-width:0.5;" x1="200.88" x2="250.88" y1="418.6094" y2="418.6094"/><text fill="#9B0E5A" font-family="sans-serif" font-size="14" lengthAdjust="spacing" textLength="29" x="211.38" y="410.5332">A(D)</text></g><g id="N_4"><rect fill="#F1F1F1" height="50" rx="12.5" ry="12.5" style="stroke:#E3E8C5;stroke-width:0.5;" width="50" x="189.88" y="519"/><line style="stroke:#E3E8C5;stroke-width:0.5;" x1="189.88" x2="239.88" y1="546.6094" y2="546.6094"/><text fill="#E3E8C5" font-family="sans-serif" font-size="14" lengthAdjust="spacing" textLength="29" x="200.38" y="538.5332">B(D)</text></g><g id="N_5"><rect fill="#F1F1F1" height="50" rx="12.5" ry="12.5" style="stroke:#109259;stroke-width:0.5;" width="50" x="64.88" y="135"/><line style="stroke:#109259;stroke-width:0.5;" x1="64.88" x2="114.88" y1="162.6094" y2="162.6094"/><text fill="#109259" font-family="sans-serif" font-size="14" lengthAdjust="spacing" textLength="10" x="84.88" y="154.5332">C</text></g><g id="N_6"><rect fill="#F1F1F1" height="50" rx="12.5" ry="12.5" style="stroke:#6049C2;stroke-width:0.5;" width="50" x="132.88" y="263"/><line style="stroke:#6049C2;stroke-width:0.5;" x1="132.88" x2="182.88" y1="290.6094" y2="290.6094"/><text fill="#6049C2" font-family="sans-serif" font-size="14" lengthAdjust="spacing" textLength="10" x="152.88" y="282.5332">D</text></g><g id="N_7"><rect fill="#F1F1F1" height="50" rx="12.5" ry="12.5" style="stroke:#BD89C5;stroke-width:0.5;" width="50" x="64.88" y="7"/><line style="stroke:#BD89C5;stroke-width:0.5;" x1="64.88" x2="114.88" y1="34.6094" y2="34.6094"/><text fill="#BD89C5" font-family="sans-serif" font-size="14" lengthAdjust="spacing" textLength="18" x="80.88" y="26.5332">X()</text></g><ellipse cx="19.88" cy="32" fill="#222222" rx="10" ry="10" style="stroke:none;stroke-width:1.0;"/><!--MD5=[68826b9c0daa7c4721f1eb8c29e58956]
link *start to N_7--><g id="link_*start_N_7"><path d="M30,32 C39.82,32 49.65,32 59.48,32 " fill="none" id="*start-to-N_7" style="stroke:#181818;stroke-width:1.0;"/><polygon fill="#181818" points="64.62,32,55.62,28,59.62,32,55.62,36,64.62,32" style="stroke:#181818;stroke-width:1.0;"/></g><!--MD5=[e479e70de51ad014afd809a45b1dd3b7]
link N_1 to N_2--><g id="link_N_1_N_2"><path d="M66.52,313.07 C64.69,322.37 62.86,333.13 61.88,343 C60.49,357.06 60.13,372.73 60.17,385.86 " fill="none" id="N_1-to-N_2" style="stroke:#181818;stroke-width:1.0;"/><polygon fill="#181818" points="60.2,390.94,64.1485,381.9173,60.1714,385.9401,56.1486,381.963,60.2,390.94" style="stroke:#181818;stroke-width:1.0;"/><text fill="#000000" font-family="sans-serif" font-size="13" lengthAdjust="spacing" textLength="7" x="62.88" y="357.4951">a</text></g><!--MD5=[f73418f33e71675f14f0c0acb8190792]
link N_2 to N_1--><g id="link_N_2_N_1"><path d="M66.24,390.93 C68.07,381.63 69.9,370.87 70.88,361 C72.27,346.94 72.63,331.27 72.59,318.14 " fill="none" id="N_2-to-N_1" style="stroke:#181818;stroke-width:1.0;"/><polygon fill="#181818" points="72.56,313.06,68.6115,322.0827,72.5886,318.0599,76.6114,322.037,72.56,313.06" style="stroke:#181818;stroke-width:1.0;"/><text fill="#000000" font-family="sans-serif" font-size="13" lengthAdjust="spacing" textLength="3" x="72.88" y="357.4951">f</text></g><!--MD5=[1cb4dc3c0a2d3d5a68e4b8b192b940ef]
link N_3 to N_4--><g id="link_N_3_N_4"><path d="M220.52,441.07 C218.69,450.37 216.86,461.13 215.88,471 C214.49,485.06 214.13,500.73 214.17,513.86 " fill="none" id="N_3-to-N_4" style="stroke:#181818;stroke-width:1.0;"/><polygon fill="#181818" points="214.2,518.94,218.1485,509.9173,214.1714,513.9401,210.1486,509.963,214.2,518.94" style="stroke:#181818;stroke-width:1.0;"/><text fill="#000000" font-family="sans-serif" font-size="13" lengthAdjust="spacing" textLength="7" x="216.88" y="485.4951">a</text></g><!--MD5=[becb1b6bd9036bb84e10564eb6bd3402]
link N_4 to N_3--><g id="link_N_4_N_3"><path d="M220.24,518.93 C222.07,509.63 223.9,498.87 224.88,489 C226.27,474.94 226.63,459.27 226.59,446.14 " fill="none" id="N_4-to-N_3" style="stroke:#181818;stroke-width:1.0;"/><polygon fill="#181818" points="226.56,441.06,222.6115,450.0827,226.5886,446.0599,230.6114,450.037,226.56,441.06" style="stroke:#181818;stroke-width:1.0;"/><text fill="#000000" font-family="sans-serif" font-size="13" lengthAdjust="spacing" textLength="3" x="226.88" y="485.4951">f</text></g><!--MD5=[2738cb3596d28317122fa8726abf2f71]
link N_2 to N_5--><g id="link_N_2_N_5"><path d="M45.89,390.88 C29.11,360.77 6,307.77 19.88,263 C28.46,235.35 47.41,208.53 63.43,189.34 " fill="none" id="N_2-to-N_5" style="stroke:#181818;stroke-width:1.0;"/><polygon fill="#181818" points="67.01,185.12,58.1251,189.3694,63.7643,188.9233,64.2104,194.5626,67.01,185.12" style="stroke:#181818;stroke-width:1.0;"/><text fill="#000000" font-family="sans-serif" font-size="13" lengthAdjust="spacing" textLength="7" x="20.88" y="293.4951">b</text></g><!--MD5=[8ed9a14f97f6bbc590c262d43b0ad3a0]
link N_4 to N_6--><g id="link_N_4_N_6"><path d="M203.33,518.86 C194.12,498.55 181.69,468.51 174.88,441 C164.51,399.09 160.46,349.1 158.88,318.2 " fill="none" id="N_4-to-N_6" style="stroke:#181818;stroke-width:1.0;"/><polygon fill="#181818" points="158.63,313.04,155.0452,322.2133,158.8583,318.0348,163.0368,321.8479,158.63,313.04" style="stroke:#181818;stroke-width:1.0;"/><text fill="#000000" font-family="sans-serif" font-size="13" lengthAdjust="spacing" textLength="7" x="175.88" y="421.4951">b</text></g><!--MD5=[71ac3fe825be4c1d2d565ada9878911e]
link N_5 to N_6--><g id="link_N_5_N_6"><path d="M96.51,185.16 C100.97,199.54 107.54,217.87 115.88,233 C120.72,241.78 126.93,250.63 133.08,258.56 " fill="none" id="N_5-to-N_6" style="stroke:#181818;stroke-width:1.0;"/><polygon fill="#181818" points="136.49,262.87,134.055,253.3269,133.3927,258.9449,127.7748,258.2826,136.49,262.87" style="stroke:#181818;stroke-width:1.0;"/><text fill="#000000" font-family="sans-serif" font-size="13" lengthAdjust="spacing" textLength="7" x="116.88" y="229.4951">c</text></g><!--MD5=[720842eecf2498daaed0119ceaf5f7c5]
link N_6 to N_5--><g id="link_N_6_N_5"><path d="M147.88,262.9 C141.73,248.71 133.42,230.55 124.88,215 C120.2,206.49 114.67,197.54 109.4,189.42 " fill="none" id="N_6-to-N_5" style="stroke:#181818;stroke-width:1.0;"/><polygon fill="#181818" points="106.5,185,108.0872,194.7201,109.2405,189.1821,114.7785,190.3354,106.5,185" style="stroke:#181818;stroke-width:1.0;"/><text fill="#000000" font-family="sans-serif" font-size="13" lengthAdjust="spacing" textLength="7" x="133.88" y="229.4951">d</text></g><!--MD5=[b1ab57a64fce8f8d4447c94858a7e68f]
link N_6 to N_3--><g id="link_N_6_N_3"><path d="M170.99,313.29 C182.23,334.12 198.45,364.17 210.34,386.21 " fill="none" id="N_6-to-N_3" style="stroke:#181818;stroke-width:1.0;"/><polygon fill="#181818" points="212.81,390.78,212.0612,380.9596,210.4378,386.3786,205.0189,384.7552,212.81,390.78" style="stroke:#181818;stroke-width:1.0;"/><text fill="#000000" font-family="sans-serif" font-size="13" lengthAdjust="spacing" textLength="7" x="196.88" y="357.4951">e</text></g><!--MD5=[f2beb0095c60714caa77bab5cf88ca5b]
link N_5 to N_1--><g id="link_N_5_N_1"><path d="M77.18,185.06 C73.03,194.17 68.96,204.82 66.88,215 C64.05,228.87 64.69,244.53 66.29,257.69 " fill="none" id="N_5-to-N_1" style="stroke:#181818;stroke-width:1.0;"/><polygon fill="#181818" points="66.97,262.79,69.7526,253.3424,66.3129,257.8334,61.822,254.3937,66.97,262.79" style="stroke:#181818;stroke-width:1.0;"/><text fill="#000000" font-family="sans-serif" font-size="13" lengthAdjust="spacing" textLength="7" x="67.88" y="229.4951">e</text></g><!--MD5=[e6ea882ef1abdf51a84be377684ee555]
link N_7 to N_5--><g id="link_N_7_N_5"><path d="M89.88,57.29 C89.88,77.95 89.88,107.67 89.88,129.65 " fill="none" id="N_7-to-N_5" style="stroke:#181818;stroke-width:1.0;"/><polygon fill="#181818" points="89.88,134.78,93.88,125.78,89.88,129.78,85.88,125.78,89.88,134.78" style="stroke:#181818;stroke-width:1.0;"/><text fill="#000000" font-family="sans-serif" font-size="13" lengthAdjust="spacing" textLength="7" x="90.88" y="101.4951">x</text></g></g></svg>