<?xml version="1.0" encoding="UTF-8" standalone="no"?><svg xmlns="http://www.w3.org/2000/svg" xmlns:xlink="http://www.w3.org/1999/xlink" contentStyleType="text/css" height="453px" preserveAspectRatio="none" style="width:182px;height:453px;background:#FFFFFF;" version="1.1" viewBox="0 0 182 453" width="182px" zoomAndPan="magnify"><defs/><g><g id="N_2"><rect fill="#F1F1F1" height="50" rx="12.5" ry="12.5" style="stroke:#181818;stroke-width:0.5;" width="50" x="90" y="397"/><line style="stroke:#181818;stroke-width:0.5;" x1="90" x2="140" y1="426.1201" y2="426.1201"/><text fill="#000000" font-family="sans-serif" font-size="14" lengthAdjust="spacing" textLength="9" x="110.5" y="418.0439">E</text></g><ellipse cx="16" cy="162.5" fill="#222222" rx="10" ry="10" style="stroke:none;stroke-width:1.0;"/><path d="M73.5,7 L156.5,7 A12.5,12.5 0 0 1 169,19.5 L169,36.1201 L61,36.1201 L61,19.5 A12.5,12.5 0 0 1 73.5,7 " fill="#F1F1F1" style="stroke:#F1F1F1;stroke-width:1.0;"/><path d="M61,36.1201 L169,36.1201 L169,305.6201 A12.5,12.5 0 0 1 156.5,318.1201 L73.5,318.1201 A12.5,12.5 0 0 1 61,305.6201 L61,36.1201 " fill="#FFFFFF" style="stroke:#FFFFFF;stroke-width:1.0;"/><rect height="311.1201" rx="12.5" ry="12.5" style="stroke:#181818;stroke-width:0.5;fill:none;" width="108" x="61" y="7"/><line style="stroke:#181818;stroke-width:0.5;fill:none;" x1="61" x2="169" y1="36.1201" y2="36.1201"/><text fill="#000000" font-family="sans-serif" font-size="14" lengthAdjust="spacing" textLength="9" x="110.5" y="28.0439">A</text><g id="N_1.N_1_1"><rect fill="#F1F1F1" height="50" rx="12.5" ry="12.5" style="stroke:#181818;stroke-width:0.5;" width="50" x="110" y="48.1201"/><line style="stroke:#181818;stroke-width:0.5;" x1="110" x2="160" y1="77.2402" y2="77.2402"/><text fill="#000000" font-family="sans-serif" font-size="14" lengthAdjust="spacing" textLength="9" x="130.5" y="69.1641">B</text></g><g id="N_1.N_1_2"><rect fill="#F1F1F1" height="50" rx="12.5" ry="12.5" style="stroke:#181818;stroke-width:0.5;" width="50" x="110" y="153.1201"/><line style="stroke:#181818;stroke-width:0.5;" x1="110" x2="160" y1="182.2402" y2="182.2402"/><text fill="#000000" font-family="sans-serif" font-size="14" lengthAdjust="spacing" textLength="10" x="130" y="174.1641">C</text></g><g id="N_1.N_1_3"><rect fill="#F1F1F1" height="50" rx="12.5" ry="12.5" style="stroke:#181818;stroke-width:0.5;" width="50" x="110" y="258.1201"/><line style="stroke:#181818;stroke-width:0.5;" x1="110" x2="160" y1="287.2402" y2="287.2402"/><text fill="#000000" font-family="sans-serif" font-size="14" lengthAdjust="spacing" textLength="10" x="130" y="279.1641">D</text></g><ellipse cx="82" cy="73.1201" fill="#222222" rx="10" ry="10" style="stroke:none;stroke-width:1.0;"/><!--MD5=[a264d6cd0624fa13236d6c5e9d40bca1]
link *start*N_1 to N_1_1--><g id="link_*start*N_1_N_1_1"><path d="M92.35,73.1201 C96.41,73.1201 100.47,73.1201 104.53,73.1201 " fill="none" id="*start*N_1-to-N_1_1" style="stroke:#181818;stroke-width:1.0;"/><polygon fill="#181818" points="109.68,73.1201,100.68,69.1201,104.68,73.1201,100.68,77.1201,109.68,73.1201" style="stroke:#181818;stroke-width:1.0;"/></g><!--MD5=[5efd26506746eba3d8f3722ceff28851]
link N_1_1 to N_1_2--><g id="link_N_1_1_N_1_2"><path d="M124.32,98.3001 C120.62,109.4301 117.88,122.8701 120,135.1201 C120.74,139.4001 121.88,143.8201 123.2,148.1101 " fill="none" id="N_1_1-to-N_1_2" style="stroke:#181818;stroke-width:1.0;"/><polygon fill="#181818" points="124.82,153.0701,125.8397,143.2742,123.2733,148.3154,118.2321,145.7489,124.82,153.0701" style="stroke:#181818;stroke-width:1.0;"/><text fill="#000000" font-family="sans-serif" font-size="13" lengthAdjust="spacing" textLength="7" x="121" y="132.0181">d</text></g><!--MD5=[9ffcf2a23e30450b7a717ab5550363cd]
link N_1_2 to N_1_3--><g id="link_N_1_2_N_1_3"><path d="M124.32,203.3001 C120.62,214.4301 117.88,227.8701 120,240.1201 C120.74,244.4001 121.88,248.8201 123.2,253.1101 " fill="none" id="N_1_2-to-N_1_3" style="stroke:#181818;stroke-width:1.0;"/><polygon fill="#181818" points="124.82,258.0701,125.8397,248.2742,123.2733,253.3154,118.2321,250.7489,124.82,258.0701" style="stroke:#181818;stroke-width:1.0;"/><text fill="#000000" font-family="sans-serif" font-size="13" lengthAdjust="spacing" textLength="7" x="121" y="237.0181">b</text></g><!--MD5=[276fee53e72833cd0543cf4b12a44fee]
link N_1_3 to N_1_2--><g id="link_N_1_3_N_1_2"><path d="M135,257.7701 C135,242.9801 135,224.0201 135,208.4201 " fill="none" id="N_1_3-to-N_1_2" style="stroke:#181818;stroke-width:1.0;"/><polygon fill="#181818" points="135,203.2701,131,212.2701,135,208.2701,139,212.2701,135,203.2701" style="stroke:#181818;stroke-width:1.0;"/><text fill="#000000" font-family="sans-serif" font-size="13" lengthAdjust="spacing" textLength="7" x="136" y="237.0181">e</text></g><!--MD5=[a70cc15f31d9a6f92fd2e345a9065221]
link N_1_2 to N_1_1--><g id="link_N_1_2_N_1_1"><path d="M135,152.7701 C135,137.9801 135,119.0201 135,103.4201 " fill="none" id="N_1_2-to-N_1_1" style="stroke:#181818;stroke-width:1.0;"/><polygon fill="#181818" points="135,98.2701,131,107.2701,135,103.2701,139,107.2701,135,98.2701" style="stroke:#181818;stroke-width:1.0;"/><text fill="#000000" font-family="sans-serif" font-size="13" lengthAdjust="spacing" textLength="7" x="136" y="132.0181">c</text></g><!--MD5=[a1e0d543606106285492e7dcf0375297]
link *start to N_1--><g id="link_*start_N_1"><path d="M26.05,162.5 C35.92,162.5 45.78,162.5 55.64,162.5 " fill="none" id="*start-to-N_1" style="stroke:#181818;stroke-width:1.0;"/><polygon fill="#181818" points="60.8,162.5,51.8,158.5,55.8,162.5,51.8,166.5,60.8,162.5" style="stroke:#181818;stroke-width:1.0;"/></g><!--MD5=[e479e70de51ad014afd809a45b1dd3b7]
link N_1 to N_2--><g id="link_N_1_N_2"><path d="M115,318.12 C115,346.24 115,372.64 115,391.66 " fill="none" id="N_1-to-N_2" style="stroke:#181818;stroke-width:1.0;"/><polygon fill="#181818" points="115,396.82,119,387.82,115,391.82,111,387.82,115,396.82" style="stroke:#181818;stroke-width:1.0;"/><text fill="#000000" font-family="sans-serif" font-size="13" lengthAdjust="spacing" textLength="7" x="116" y="363.8979">a</text></g></g></svg>