<?xml version="1.0" encoding="UTF-8" standalone="no"?><svg xmlns="http://www.w3.org/2000/svg" xmlns:xlink="http://www.w3.org/1999/xlink" contentStyleType="text/css" height="481px" preserveAspectRatio="none" style="width:270px;height:481px;background:#FFFFFF;" version="1.1" viewBox="0 0 270 481" width="270px" zoomAndPan="magnify"><defs/><g><!--MD5=[d53651f891be2d280b1927ff18674899]
cluster N_3--><g id="cluster_N_3"><path d="M108.5,129 L244.5,129 A12.5,12.5 0 0 1 257,141.5 L257,156.6094 L96,156.6094 L96,141.5 A12.5,12.5 0 0 1 108.5,129 " fill="#F1F1F1" style="stroke:#F1F1F1;stroke-width:1.0;"/><rect height="346" rx="12.5" ry="12.5" style="stroke:#181818;stroke-width:0.5;fill:none;" width="161" x="96" y="129"/><line style="stroke:#181818;stroke-width:0.5;fill:none;" x1="96" x2="257" y1="156.6094" y2="156.6094"/><text fill="#000000" font-family="sans-serif" font-size="14" lengthAdjust="spacing" textLength="75" x="139" y="147.5332">EmptyName</text></g><g id="N_3.N_3_1"><rect fill="#F1F1F1" height="50" rx="12.5" ry="12.5" style="stroke:#E19C00;stroke-width:0.5;" width="50" x="183" y="273"/><line style="stroke:#E19C00;stroke-width:0.5;" x1="183" x2="233" y1="300.6094" y2="300.6094"/><text fill="#E19C00" font-family="sans-serif" font-size="14" lengthAdjust="spacing" textLength="10" x="203" y="292.5332">C</text></g><g id="N_3.N_3_2"><rect fill="#F1F1F1" height="50" rx="12.5" ry="12.5" style="stroke:#C96558;stroke-width:0.5;" width="50" x="163" y="401"/><line style="stroke:#C96558;stroke-width:0.5;" x1="163" x2="213" y1="428.6094" y2="428.6094"/><text fill="#C96558" font-family="sans-serif" font-size="14" lengthAdjust="spacing" textLength="10" x="183" y="420.5332">D</text></g><ellipse cx="138" cy="298" fill="#222222" rx="10" ry="10" style="stroke:none;stroke-width:1.0;"/><ellipse cx="179" cy="184" fill="#F1F1F1" rx="11" ry="11" style="stroke:#181818;stroke-width:0.5;"/><text fill="#000000" font-family="sans-serif" font-size="14" lengthAdjust="spacing" textLength="9" x="174.5" y="189.7285">H</text><g id="N_1"><rect fill="#F1F1F1" height="50" rx="12.5" ry="12.5" style="stroke:#542D02;stroke-width:0.5;" width="50" x="12" y="273"/><line style="stroke:#542D02;stroke-width:0.5;" x1="12" x2="62" y1="300.6094" y2="300.6094"/><text fill="#542D02" font-family="sans-serif" font-size="14" lengthAdjust="spacing" textLength="9" x="32.5" y="292.5332">A</text></g><g id="N_2"><rect fill="#F1F1F1" height="50" rx="12.5" ry="12.5" style="stroke:#251EB2;stroke-width:0.5;" width="50" x="7" y="7"/><line style="stroke:#251EB2;stroke-width:0.5;" x1="7" x2="57" y1="34.6094" y2="34.6094"/><text fill="#251EB2" font-family="sans-serif" font-size="14" lengthAdjust="spacing" textLength="9" x="27.5" y="26.5332">B</text></g><g id="N_4"><rect fill="#F1F1F1" height="50" rx="12.5" ry="12.5" style="stroke:#C16FD1;stroke-width:0.5;" width="50" x="147" y="7"/><line style="stroke:#C16FD1;stroke-width:0.5;" x1="147" x2="197" y1="34.6094" y2="34.6094"/><text fill="#C16FD1" font-family="sans-serif" font-size="14" lengthAdjust="spacing" textLength="8" x="168" y="26.5332">X</text></g><ellipse cx="102" cy="32" fill="#222222" rx="10" ry="10" style="stroke:none;stroke-width:1.0;"/><!--MD5=[25d2396c0ef712f4365e0e22cdacc4d1]
link *start*N_3 to N_3_1--><g id="link_*start*N_3_N_3_1"><path d="M148.12,298 C157.94,298 167.77,298 177.6,298 " fill="none" id="*start*N_3-to-N_3_1" style="stroke:#181818;stroke-width:1.0;"/><polygon fill="#181818" points="182.74,298,173.74,294,177.74,298,173.74,302,182.74,298" style="stroke:#181818;stroke-width:1.0;"/></g><!--MD5=[ccd68096c09cc2399ee16d086e6618f5]
link N_3_1 to N_3_2--><g id="link_N_3_1_N_3_2"><path d="M186.32,323.08 C179.75,331.87 173.39,342.29 170,353 C165.57,367 168.65,382.81 173.44,396.04 " fill="none" id="N_3_1-to-N_3_2" style="stroke:#181818;stroke-width:1.0;"/><polygon fill="#181818" points="175.27,400.79,175.7564,390.9532,173.4674,396.1262,168.2944,393.8373,175.27,400.79" style="stroke:#181818;stroke-width:1.0;"/><text fill="#000000" font-family="sans-serif" font-size="13" lengthAdjust="spacing" textLength="7" x="171" y="367.4951">c</text></g><!--MD5=[240785e12faa197ea7722194d40e327c]
link N_3_2 to N_3_1--><g id="link_N_3_2_N_3_1"><path d="M191.84,400.78 C195.12,380.15 199.84,350.43 203.33,328.43 " fill="none" id="N_3_2-to-N_3_1" style="stroke:#181818;stroke-width:1.0;"/><polygon fill="#181818" points="204.14,323.29,198.7767,331.5504,203.3551,328.228,206.6775,332.8064,204.14,323.29" style="stroke:#181818;stroke-width:1.0;"/><text fill="#000000" font-family="sans-serif" font-size="13" lengthAdjust="spacing" textLength="7" x="200" y="367.4951">d</text></g><!--MD5=[0171e36e781a13bad4bed3291cc358a3]
link *historical*N_3 to N_3_1--><g id="link_*historical*N_3_N_3_1"><path d="M181.57,194.94 C185.77,211.13 194.23,243.82 200.45,267.85 " fill="none" id="*historical*N_3-to-N_3_1" style="stroke:#181818;stroke-width:1.0;"/><polygon fill="#181818" points="201.74,272.84,203.3434,263.1225,200.4802,268.0013,195.6014,265.1382,201.74,272.84" style="stroke:#181818;stroke-width:1.0;"/></g><!--MD5=[87f0fd7328837c2df6de4ee177cc64a0]
link *start to N_4--><g id="link_*start_N_4"><path d="M112.12,32 C121.94,32 131.77,32 141.6,32 " fill="none" id="*start-to-N_4" style="stroke:#181818;stroke-width:1.0;"/><polygon fill="#181818" points="146.74,32,137.74,28,141.74,32,137.74,36,146.74,32" style="stroke:#181818;stroke-width:1.0;"/></g><!--MD5=[e479e70de51ad014afd809a45b1dd3b7]
link N_1 to N_2--><g id="link_N_1_N_2"><path d="M36.54,272.7 C35.62,224.12 33.56,115.21 32.56,62.58 " fill="none" id="N_1-to-N_2" style="stroke:#181818;stroke-width:1.0;"/><polygon fill="#181818" points="32.46,57.36,28.6408,66.4382,32.56,62.359,36.6392,66.2782,32.46,57.36" style="stroke:#181818;stroke-width:1.0;"/><text fill="#000000" font-family="sans-serif" font-size="13" lengthAdjust="spacing" textLength="7" x="36" y="189.4951">a</text></g><!--MD5=[f73418f33e71675f14f0c0acb8190792]
link N_2 to N_1--><g id="link_N_2_N_1"><path d="M27.82,57.07 C25.28,72.9 22.29,94.12 21,113 C18.51,149.36 18.36,158.65 21,195 C22.56,216.5 24.67,221.7 28,243 C29.24,250.93 30.64,259.51 31.96,267.45 " fill="none" id="N_2-to-N_1" style="stroke:#181818;stroke-width:1.0;"/><polygon fill="#181818" points="32.86,272.82,35.3125,263.2814,32.0311,267.8892,27.4233,264.6077,32.86,272.82" style="stroke:#181818;stroke-width:1.0;"/><text fill="#000000" font-family="sans-serif" font-size="13" lengthAdjust="spacing" textLength="3" x="22" y="189.4951">f</text></g><!--MD5=[c11ff992283a6ddd398d10071c1607f2]
link N_2 to *historical*N_3--><g id="link_N_2_*historical*N_3"><path d="M51.83,57.05 C66.65,73.31 88.36,93.79 112,105 C133.13,115.02 146.99,96.96 164,113 C178.87,127.02 180.82,151.91 180.32,167.92 " fill="none" id="N_2-to-*historical*N_3" style="stroke:#181818;stroke-width:1.0;"/><polygon fill="#181818" points="180.07,172.98,184.5019,164.1847,180.3126,167.9859,176.5113,163.7965,180.07,172.98" style="stroke:#181818;stroke-width:1.0;"/><text fill="#000000" font-family="sans-serif" font-size="13" lengthAdjust="spacing" textLength="7" x="113" y="101.4951">b</text></g><!--MD5=[debac8beee44b4157eda940073a4ebeb]
link N_3 to N_1--><g id="link_N_3_N_1"><path d="M95.9093,198.526 C95.8513,198.623 95.7931,198.7204 95.7346,198.8182 C94.7986,200.3828 93.8002,202.0519 92.7483,203.8102 C90.6446,207.3269 88.3272,211.2006 85.8688,215.31 C76.035,231.7475 63.945,251.955 54.25,268.16 " fill="none" id="N_3-to-N_1" style="stroke:#181818;stroke-width:1.0;"/><polygon fill="#181818" points="51.47,272.82,59.5304,267.1605,54.0425,268.5325,52.6705,263.0446,51.47,272.82" style="stroke:#181818;stroke-width:1.0;"/><text fill="#000000" font-family="sans-serif" font-size="13" lengthAdjust="spacing" textLength="7" x="79" y="239.4951">e</text></g><!--MD5=[becb1b6bd9036bb84e10564eb6bd3402]
link N_4 to N_3--><g id="link_N_4_N_3"><path d="M161.56,57.08 C154,72.33 142.57,91.62 128,105 C122.14,110.38 116.56,106.49 112,113 C109.8263,116.1075 108.0617,119.4889 106.6392,123.0323 C105.9279,124.804 105.3021,126.6162 104.7534,128.4549 C104.7191,128.5698 104.6851,128.6848 104.6514,128.8 " fill="none" id="N_4-to-N_3" style="stroke:#181818;stroke-width:1.0;"/><polygon fill="#181818" points="104.6514,128.8,111.0184,121.2859,106.0559,124.0013,103.3405,119.0388,104.6514,128.8" style="stroke:#181818;stroke-width:1.0;"/><text fill="#000000" font-family="sans-serif" font-size="13" lengthAdjust="spacing" textLength="7" x="144" y="101.4951">x</text></g></g></svg>