<?xml version="1.0" encoding="UTF-8" standalone="no"?><svg xmlns="http://www.w3.org/2000/svg" xmlns:xlink="http://www.w3.org/1999/xlink" contentStyleType="text/css" height="579px" preserveAspectRatio="none" style="width:257px;height:579px;background:#FFFFFF;" version="1.1" viewBox="0 0 257 579" width="257px" zoomAndPan="magnify"><defs/><g><g id="N_1"><rect fill="#F1F1F1" height="50" rx="12.5" ry="12.5" style="stroke:#181818;stroke-width:0.5;" width="50" x="46.91" y="265"/><line style="stroke:#181818;stroke-width:0.5;" x1="46.91" x2="96.91" y1="294.1201" y2="294.1201"/><text fill="#000000" font-family="sans-serif" font-size="14" lengthAdjust="spacing" textLength="29" x="57.41" y="286.0439">A(C)</text></g><g id="N_2"><rect fill="#F1F1F1" height="50" rx="12.5" ry="12.5" style="stroke:#181818;stroke-width:0.5;" width="50" x="35.91" y="394"/><line style="stroke:#181818;stroke-width:0.5;" x1="35.91" x2="85.91" y1="423.1201" y2="423.1201"/><text fill="#000000" font-family="sans-serif" font-size="14" lengthAdjust="spacing" textLength="29" x="46.41" y="415.0439">B(C)</text></g><g id="N_3"><rect fill="#F1F1F1" height="50" rx="12.5" ry="12.5" style="stroke:#181818;stroke-width:0.5;" width="50" x="200.91" y="394"/><line style="stroke:#181818;stroke-width:0.5;" x1="200.91" x2="250.91" y1="423.1201" y2="423.1201"/><text fill="#000000" font-family="sans-serif" font-size="14" lengthAdjust="spacing" textLength="29" x="211.41" y="415.0439">A(D)</text></g><g id="N_4"><rect fill="#F1F1F1" height="50" rx="12.5" ry="12.5" style="stroke:#181818;stroke-width:0.5;" width="50" x="189.91" y="523"/><line style="stroke:#181818;stroke-width:0.5;" x1="189.91" x2="239.91" y1="552.1201" y2="552.1201"/><text fill="#000000" font-family="sans-serif" font-size="14" lengthAdjust="spacing" textLength="29" x="200.41" y="544.0439">B(D)</text></g><g id="N_5"><rect fill="#F1F1F1" height="50" rx="12.5" ry="12.5" style="stroke:#181818;stroke-width:0.5;" width="50" x="64.91" y="136"/><line style="stroke:#181818;stroke-width:0.5;" x1="64.91" x2="114.91" y1="165.1201" y2="165.1201"/><text fill="#000000" font-family="sans-serif" font-size="14" lengthAdjust="spacing" textLength="10" x="84.91" y="157.0439">C</text></g><g id="N_6"><rect fill="#F1F1F1" height="50" rx="12.5" ry="12.5" style="stroke:#181818;stroke-width:0.5;" width="50" x="132.91" y="265"/><line style="stroke:#181818;stroke-width:0.5;" x1="132.91" x2="182.91" y1="294.1201" y2="294.1201"/><text fill="#000000" font-family="sans-serif" font-size="14" lengthAdjust="spacing" textLength="10" x="152.91" y="286.0439">D</text></g><g id="N_7"><rect fill="#F1F1F1" height="50" rx="12.5" ry="12.5" style="stroke:#181818;stroke-width:0.5;" width="50" x="64.91" y="7"/><line style="stroke:#181818;stroke-width:0.5;" x1="64.91" x2="114.91" y1="36.1201" y2="36.1201"/><text fill="#000000" font-family="sans-serif" font-size="14" lengthAdjust="spacing" textLength="18" x="80.91" y="28.0439">X()</text></g><ellipse cx="19.91" cy="32" fill="#222222" rx="10" ry="10" style="stroke:none;stroke-width:1.0;"/><!--MD5=[68826b9c0daa7c4721f1eb8c29e58956]
link *start to N_7--><g id="link_*start_N_7"><path d="M30.03,32 C39.85,32 49.68,32 59.51,32 " fill="none" id="*start-to-N_7" style="stroke:#181818;stroke-width:1.0;"/><polygon fill="#181818" points="64.65,32,55.65,28,59.65,32,55.65,36,64.65,32" style="stroke:#181818;stroke-width:1.0;"/></g><!--MD5=[e479e70de51ad014afd809a45b1dd3b7]
link N_1 to N_2--><g id="link_N_1_N_2"><path d="M66.55,315.07 C64.72,324.37 62.88,335.13 61.91,345 C60.49,359.36 60.14,375.4 60.18,388.77 " fill="none" id="N_1-to-N_2" style="stroke:#181818;stroke-width:1.0;"/><polygon fill="#181818" points="60.22,393.94,64.1685,384.9173,60.1914,388.9401,56.1686,384.963,60.22,393.94" style="stroke:#181818;stroke-width:1.0;"/><text fill="#000000" font-family="sans-serif" font-size="13" lengthAdjust="spacing" textLength="7" x="62.91" y="360.8979">a</text></g><!--MD5=[f73418f33e71675f14f0c0acb8190792]
link N_2 to N_1--><g id="link_N_2_N_1"><path d="M66.27,393.93 C68.1,384.63 69.94,373.87 70.91,364 C72.33,349.64 72.68,333.6 72.64,320.23 " fill="none" id="N_2-to-N_1" style="stroke:#181818;stroke-width:1.0;"/><polygon fill="#181818" points="72.6,315.06,68.6515,324.0827,72.6286,320.0599,76.6514,324.037,72.6,315.06" style="stroke:#181818;stroke-width:1.0;"/><text fill="#000000" font-family="sans-serif" font-size="13" lengthAdjust="spacing" textLength="3" x="72.91" y="360.8979">f</text></g><!--MD5=[1cb4dc3c0a2d3d5a68e4b8b192b940ef]
link N_3 to N_4--><g id="link_N_3_N_4"><path d="M220.55,444.07 C218.72,453.37 216.88,464.13 215.91,474 C214.49,488.36 214.14,504.4 214.18,517.77 " fill="none" id="N_3-to-N_4" style="stroke:#181818;stroke-width:1.0;"/><polygon fill="#181818" points="214.22,522.94,218.1685,513.9173,214.1914,517.9401,210.1686,513.963,214.22,522.94" style="stroke:#181818;stroke-width:1.0;"/><text fill="#000000" font-family="sans-serif" font-size="13" lengthAdjust="spacing" textLength="7" x="216.91" y="489.8979">a</text></g><!--MD5=[becb1b6bd9036bb84e10564eb6bd3402]
link N_4 to N_3--><g id="link_N_4_N_3"><path d="M220.27,522.93 C222.1,513.63 223.94,502.87 224.91,493 C226.33,478.64 226.68,462.6 226.64,449.23 " fill="none" id="N_4-to-N_3" style="stroke:#181818;stroke-width:1.0;"/><polygon fill="#181818" points="226.6,444.06,222.6515,453.0827,226.6286,449.0599,230.6514,453.037,226.6,444.06" style="stroke:#181818;stroke-width:1.0;"/><text fill="#000000" font-family="sans-serif" font-size="13" lengthAdjust="spacing" textLength="3" x="226.91" y="489.8979">f</text></g><!--MD5=[2738cb3596d28317122fa8726abf2f71]
link N_2 to N_5--><g id="link_N_2_N_5"><path d="M46.07,393.99 C29.29,363.73 6,310.21 19.91,265 C28.48,237.14 47.43,210.06 63.46,190.67 " fill="none" id="N_2-to-N_5" style="stroke:#181818;stroke-width:1.0;"/><polygon fill="#181818" points="67.04,186.4,58.1896,190.7209,63.825,190.2294,64.3166,195.8648,67.04,186.4" style="stroke:#181818;stroke-width:1.0;"/><text fill="#000000" font-family="sans-serif" font-size="13" lengthAdjust="spacing" textLength="7" x="20.91" y="296.3979">b</text></g><!--MD5=[8ed9a14f97f6bbc590c262d43b0ad3a0]
link N_4 to N_6--><g id="link_N_4_N_6"><path d="M203.36,522.61 C194.15,502.1 181.72,471.76 174.91,444 C164.56,401.8 160.5,351.48 158.91,320.39 " fill="none" id="N_4-to-N_6" style="stroke:#181818;stroke-width:1.0;"/><polygon fill="#181818" points="158.66,315.19,155.1026,324.374,158.9033,320.1841,163.0931,323.9847,158.66,315.19" style="stroke:#181818;stroke-width:1.0;"/><text fill="#000000" font-family="sans-serif" font-size="13" lengthAdjust="spacing" textLength="7" x="175.91" y="425.3979">b</text></g><!--MD5=[71ac3fe825be4c1d2d565ada9878911e]
link N_5 to N_6--><g id="link_N_5_N_6"><path d="M96.39,186.16 C100.83,200.79 107.44,219.55 115.91,235 C120.73,243.79 126.93,252.65 133.09,260.58 " fill="none" id="N_5-to-N_6" style="stroke:#181818;stroke-width:1.0;"/><polygon fill="#181818" points="136.49,264.88,134.0381,255.3412,133.3858,260.9604,127.7666,260.308,136.49,264.88" style="stroke:#181818;stroke-width:1.0;"/><text fill="#000000" font-family="sans-serif" font-size="13" lengthAdjust="spacing" textLength="7" x="116.91" y="231.8979">c</text></g><!--MD5=[720842eecf2498daaed0119ceaf5f7c5]
link N_6 to N_5--><g id="link_N_6_N_5"><path d="M148.09,264.89 C141.95,250.45 133.58,231.87 124.91,216 C120.3,207.56 114.84,198.69 109.61,190.64 " fill="none" id="N_6-to-N_5" style="stroke:#181818;stroke-width:1.0;"/><polygon fill="#181818" points="106.74,186.26,108.3424,195.9776,109.487,190.4378,115.0269,191.5824,106.74,186.26" style="stroke:#181818;stroke-width:1.0;"/><text fill="#000000" font-family="sans-serif" font-size="13" lengthAdjust="spacing" textLength="7" x="134.91" y="231.8979">d</text></g><!--MD5=[b1ab57a64fce8f8d4447c94858a7e68f]
link N_6 to N_3--><g id="link_N_6_N_3"><path d="M170.86,315.19 C182.16,336.28 198.56,366.93 210.53,389.27 " fill="none" id="N_6-to-N_3" style="stroke:#181818;stroke-width:1.0;"/><polygon fill="#181818" points="213.01,393.9,212.2992,384.0768,210.6548,389.4894,205.2422,387.8451,213.01,393.9" style="stroke:#181818;stroke-width:1.0;"/><text fill="#000000" font-family="sans-serif" font-size="13" lengthAdjust="spacing" textLength="7" x="196.91" y="360.8979">e</text></g><!--MD5=[f2beb0095c60714caa77bab5cf88ca5b]
link N_5 to N_1--><g id="link_N_5_N_1"><path d="M77.21,186.06 C73.06,195.17 68.99,205.82 66.91,216 C64.02,230.17 64.69,246.18 66.32,259.59 " fill="none" id="N_5-to-N_1" style="stroke:#181818;stroke-width:1.0;"/><polygon fill="#181818" points="67.02,264.78,69.7758,255.3246,66.3489,259.8252,61.8482,256.3983,67.02,264.78" style="stroke:#181818;stroke-width:1.0;"/><text fill="#000000" font-family="sans-serif" font-size="13" lengthAdjust="spacing" textLength="7" x="67.91" y="231.8979">e</text></g><!--MD5=[e6ea882ef1abdf51a84be377684ee555]
link N_7 to N_5--><g id="link_N_7_N_5"><path d="M89.91,57.19 C89.91,78.11 89.91,108.41 89.91,130.71 " fill="none" id="N_7-to-N_5" style="stroke:#181818;stroke-width:1.0;"/><polygon fill="#181818" points="89.91,135.9,93.91,126.9,89.91,130.9,85.91,126.9,89.91,135.9" style="stroke:#181818;stroke-width:1.0;"/><text fill="#000000" font-family="sans-serif" font-size="13" lengthAdjust="spacing" textLength="7" x="90.91" y="102.8979">x</text></g></g></svg>