<?xml version="1.0" encoding="UTF-8" standalone="no"?><svg xmlns="http://www.w3.org/2000/svg" xmlns:xlink="http://www.w3.org/1999/xlink" contentStyleType="text/css" height="572px" preserveAspectRatio="none" style="width:229px;height:572px;background:#FFFFFF;" version="1.1" viewBox="0 0 229 572" width="229px" zoomAndPan="magnify"><defs/><g><!--MD5=[deb5ab55ca9af80869d5bd0ea7151fdf]
cluster N_1--><g id="cluster_N_1"><path d="M19.5,52.73 L166.5,52.73 A12.5,12.5 0 0 1 179,65.23 L179,80.3394 L7,80.3394 L7,65.23 A12.5,12.5 0 0 1 19.5,52.73 " fill="#F1F1F1" style="stroke:#F1F1F1;stroke-width:1.0;"/><rect height="392" rx="12.5" ry="12.5" style="stroke:#597F05;stroke-width:0.5;fill:none;" width="172" x="7" y="52.73"/><line style="stroke:#597F05;stroke-width:0.5;fill:none;" x1="7" x2="179" y1="80.3394" y2="80.3394"/><text fill="#597F05" font-family="sans-serif" font-size="14" lengthAdjust="spacing" textLength="9" x="80.5" y="71.2632">A</text></g><g id="N_1.N_1_1"><rect fill="#F1F1F1" height="50" rx="12.5" ry="12.5" style="stroke:#B78DE4;stroke-width:0.5;" width="50" x="105" y="114.73"/><line style="stroke:#B78DE4;stroke-width:0.5;" x1="105" x2="155" y1="142.3394" y2="142.3394"/><text fill="#B78DE4" font-family="sans-serif" font-size="14" lengthAdjust="spacing" textLength="9" x="125.5" y="134.2632">B</text></g><g id="N_1.N_1_2"><rect fill="#F1F1F1" height="50" rx="12.5" ry="12.5" style="stroke:#8CAFCF;stroke-width:0.5;" width="50" x="105" y="242.73"/><line style="stroke:#8CAFCF;stroke-width:0.5;" x1="105" x2="155" y1="270.3394" y2="270.3394"/><text fill="#8CAFCF" font-family="sans-serif" font-size="14" lengthAdjust="spacing" textLength="10" x="125" y="262.2632">C</text></g><g id="N_1.N_1_3"><rect fill="#F1F1F1" height="50" rx="12.5" ry="12.5" style="stroke:#B2F961;stroke-width:0.5;" width="50" x="55" y="370.73"/><line style="stroke:#B2F961;stroke-width:0.5;" x1="55" x2="105" y1="398.3394" y2="398.3394"/><text fill="#B2F961" font-family="sans-serif" font-size="14" lengthAdjust="spacing" textLength="10" x="75" y="390.2632">D</text></g><ellipse cx="60" cy="139.73" fill="#222222" rx="10" ry="10" style="stroke:none;stroke-width:1.0;"/><g id="N_2"><rect fill="#F1F1F1" height="50" rx="12.5" ry="12.5" style="stroke:#C3AD90;stroke-width:0.5;" width="50" x="150" y="516.73"/><line style="stroke:#C3AD90;stroke-width:0.5;" x1="150" x2="200" y1="544.3394" y2="544.3394"/><text fill="#C3AD90" font-family="sans-serif" font-size="14" lengthAdjust="spacing" textLength="9" x="170.5" y="536.2632">E</text></g><ellipse cx="213" cy="139.73" fill="#222222" rx="10" ry="10" style="stroke:none;stroke-width:1.0;"/><!--MD5=[a264d6cd0624fa13236d6c5e9d40bca1]
link *start*N_1 to N_1_1--><g id="link_*start*N_1_N_1_1"><path d="M70.12,139.73 C79.94,139.73 89.77,139.73 99.6,139.73 " fill="none" id="*start*N_1-to-N_1_1" style="stroke:#181818;stroke-width:1.0;"/><polygon fill="#181818" points="104.74,139.73,95.74,135.73,99.74,139.73,95.74,143.73,104.74,139.73" style="stroke:#181818;stroke-width:1.0;"/></g><!--MD5=[5efd26506746eba3d8f3722ceff28851]
link N_1_1 to N_1_2--><g id="link_N_1_1_N_1_2"><path d="M108.32,164.81 C101.75,173.6 95.39,184.02 92,194.73 C87.21,209.86 93.93,225.57 102.99,238.45 " fill="none" id="N_1_1-to-N_1_2" style="stroke:#181818;stroke-width:1.0;"/><polygon fill="#181818" points="106.14,242.7,104.0005,233.0863,103.1652,238.6812,97.5704,237.846,106.14,242.7" style="stroke:#181818;stroke-width:1.0;"/><text fill="#000000" font-family="sans-serif" font-size="13" lengthAdjust="spacing" textLength="7" x="93" y="209.2251">b</text></g><!--MD5=[a70cc15f31d9a6f92fd2e345a9065221]
link N_1_2 to N_1_1--><g id="link_N_1_2_N_1_1"><path d="M130,242.51 C130,221.88 130,192.16 130,170.16 " fill="none" id="N_1_2-to-N_1_1" style="stroke:#181818;stroke-width:1.0;"/><polygon fill="#181818" points="130,165.02,126,174.02,130,170.02,134,174.02,130,165.02" style="stroke:#181818;stroke-width:1.0;"/><text fill="#000000" font-family="sans-serif" font-size="13" lengthAdjust="spacing" textLength="7" x="131" y="209.2251">b</text></g><!--MD5=[9ffcf2a23e30450b7a717ab5550363cd]
link N_1_2 to N_1_3--><g id="link_N_1_2_N_1_3"><path d="M105.24,292.76 C97.77,301.46 90.39,311.85 86,322.73 C80.61,336.08 78.85,351.93 78.55,365.36 " fill="none" id="N_1_2-to-N_1_3" style="stroke:#181818;stroke-width:1.0;"/><polygon fill="#181818" points="78.5,370.56,82.577,361.5946,78.5429,365.5602,74.5773,361.526,78.5,370.56" style="stroke:#181818;stroke-width:1.0;"/><text fill="#000000" font-family="sans-serif" font-size="13" lengthAdjust="spacing" textLength="7" x="87" y="337.2251">c</text></g><!--MD5=[276fee53e72833cd0543cf4b12a44fee]
link N_1_3 to N_1_2--><g id="link_N_1_3_N_1_2"><path d="M89.61,370.51 C97.83,349.79 109.69,319.91 118.43,297.88 " fill="none" id="N_1_3-to-N_1_2" style="stroke:#181818;stroke-width:1.0;"/><polygon fill="#181818" points="120.36,293.02,113.3218,299.9094,118.5154,297.6673,120.7575,302.8608,120.36,293.02" style="stroke:#181818;stroke-width:1.0;"/><text fill="#000000" font-family="sans-serif" font-size="13" lengthAdjust="spacing" textLength="7" x="109" y="337.2251">b</text></g><!--MD5=[a1e0d543606106285492e7dcf0375297]
link *start to N_1--><g id="link_*start_N_1"><path d="M212.11,129.49 C209.23,103.9 197.61,38.05 153.5,21.73 C110.98,6 94.02,6 51.5,21.73 C39.2325,26.2675 30.7388,35.3425 24.9169,46.535 C24.1891,47.9341 23.5032,49.3662 22.8568,50.8267 C22.6952,51.1918 22.536,51.5587 22.3794,51.9273 C22.301,52.1116 22.2233,52.2964 22.1462,52.4815 " fill="none" id="*start-to-N_1" style="stroke:#181818;stroke-width:1.0;"/><polygon fill="#181818" points="22.1462,52.4815,29.2995,45.7117,24.0689,47.866,21.9146,42.6354,22.1462,52.4815" style="stroke:#181818;stroke-width:1.0;"/></g><!--MD5=[97528d6d976f00018b751df292669483]
link N_1_1 to N_2--><g id="link_N_1_1_N_2"><path d="M142.94,165.11 C152.99,185.31 166.32,215.08 173,242.73 C196.65,340.64 186.22,368.07 190,468.73 C190.3,476.72 191.08,478.8 190,486.73 C188.88,494.95 186.84,503.69 184.62,511.69 " fill="none" id="N_1_1-to-N_2" style="stroke:#181818;stroke-width:1.0;"/><polygon fill="#181818" points="183.22,516.56,189.5593,509.0226,184.6068,511.7562,181.8732,506.8037,183.22,516.56" style="stroke:#181818;stroke-width:1.0;"/><text fill="#000000" font-family="sans-serif" font-size="13" lengthAdjust="spacing" textLength="7" x="189" y="337.2251">a</text></g><!--MD5=[582ddc942fdb20a7fff6e2039005c678]
link N_1_2 to N_2--><g id="link_N_1_2_N_2"><path d="M133.99,292.87 C142.27,342.87 161.25,457.61 170.18,511.61 " fill="none" id="N_1_2-to-N_2" style="stroke:#181818;stroke-width:1.0;"/><polygon fill="#181818" points="171.02,516.65,173.5039,507.1195,170.2073,511.7165,165.6103,508.4199,171.02,516.65" style="stroke:#181818;stroke-width:1.0;"/><text fill="#000000" font-family="sans-serif" font-size="13" lengthAdjust="spacing" textLength="7" x="162" y="401.2251">a</text></g><!--MD5=[158bae86f151c133f73a061adf1f6c4b]
link N_1_3 to N_2--><g id="link_N_1_3_N_2"><path d="M95.9,420.83 C112.48,445.96 138.45,485.33 156.08,512.05 " fill="none" id="N_1_3-to-N_2" style="stroke:#181818;stroke-width:1.0;"/><polygon fill="#181818" points="159.05,516.55,157.4244,506.8362,156.293,512.3788,150.7504,511.2474,159.05,516.55" style="stroke:#181818;stroke-width:1.0;"/><text fill="#000000" font-family="sans-serif" font-size="13" lengthAdjust="spacing" textLength="7" x="140" y="483.2251">a</text></g></g></svg>