<?xml version="1.0" encoding="UTF-8" standalone="no"?><svg xmlns="http://www.w3.org/2000/svg" xmlns:xlink="http://www.w3.org/1999/xlink" contentStyleType="text/css" height="486px" preserveAspectRatio="none" style="width:270px;height:486px;background:#FFFFFF;" version="1.1" viewBox="0 0 270 486" width="270px" zoomAndPan="magnify"><defs/><g><!--MD5=[d53651f891be2d280b1927ff18674899]
cluster N_3--><g id="cluster_N_3"><path d="M108.5,130 L244.5,130 A12.5,12.5 0 0 1 257,142.5 L257,159.1201 L96,159.1201 L96,142.5 A12.5,12.5 0 0 1 108.5,130 " fill="#F1F1F1" style="stroke:#F1F1F1;stroke-width:1.0;"/><rect height="350" rx="12.5" ry="12.5" style="stroke:#181818;stroke-width:0.5;fill:none;" width="161" x="96" y="130"/><line style="stroke:#181818;stroke-width:0.5;fill:none;" x1="96" x2="257" y1="159.1201" y2="159.1201"/><text fill="#000000" font-family="sans-serif" font-size="14" lengthAdjust="spacing" textLength="75" x="139" y="150.0439">EmptyName</text></g><g id="N_3.N_3_1"><rect fill="#F1F1F1" height="50" rx="12.5" ry="12.5" style="stroke:#181818;stroke-width:0.5;" width="50" x="183" y="277"/><line style="stroke:#181818;stroke-width:0.5;" x1="183" x2="233" y1="306.1201" y2="306.1201"/><text fill="#000000" font-family="sans-serif" font-size="14" lengthAdjust="spacing" textLength="10" x="203" y="298.0439">C</text></g><g id="N_3.N_3_2"><rect fill="#F1F1F1" height="50" rx="12.5" ry="12.5" style="stroke:#181818;stroke-width:0.5;" width="50" x="163" y="406"/><line style="stroke:#181818;stroke-width:0.5;" x1="163" x2="213" y1="435.1201" y2="435.1201"/><text fill="#000000" font-family="sans-serif" font-size="14" lengthAdjust="spacing" textLength="10" x="183" y="427.0439">D</text></g><ellipse cx="138" cy="302" fill="#222222" rx="10" ry="10" style="stroke:none;stroke-width:1.0;"/><ellipse cx="179" cy="187" fill="#F1F1F1" rx="11" ry="11" style="stroke:#181818;stroke-width:0.5;"/><text fill="#000000" font-family="sans-serif" font-size="14" lengthAdjust="spacing" textLength="9" x="174.5" y="193.4839">H</text><g id="N_1"><rect fill="#F1F1F1" height="50" rx="12.5" ry="12.5" style="stroke:#181818;stroke-width:0.5;" width="50" x="12" y="277"/><line style="stroke:#181818;stroke-width:0.5;" x1="12" x2="62" y1="306.1201" y2="306.1201"/><text fill="#000000" font-family="sans-serif" font-size="14" lengthAdjust="spacing" textLength="9" x="32.5" y="298.0439">A</text></g><g id="N_2"><rect fill="#F1F1F1" height="50" rx="12.5" ry="12.5" style="stroke:#181818;stroke-width:0.5;" width="50" x="7" y="7"/><line style="stroke:#181818;stroke-width:0.5;" x1="7" x2="57" y1="36.1201" y2="36.1201"/><text fill="#000000" font-family="sans-serif" font-size="14" lengthAdjust="spacing" textLength="9" x="27.5" y="28.0439">B</text></g><g id="N_4"><rect fill="#F1F1F1" height="50" rx="12.5" ry="12.5" style="stroke:#181818;stroke-width:0.5;" width="50" x="147" y="7"/><line style="stroke:#181818;stroke-width:0.5;" x1="147" x2="197" y1="36.1201" y2="36.1201"/><text fill="#000000" font-family="sans-serif" font-size="14" lengthAdjust="spacing" textLength="8" x="168" y="28.0439">X</text></g><ellipse cx="102" cy="32" fill="#222222" rx="10" ry="10" style="stroke:none;stroke-width:1.0;"/><!--MD5=[25d2396c0ef712f4365e0e22cdacc4d1]
link *start*N_3 to N_3_1--><g id="link_*start*N_3_N_3_1"><path d="M148.12,302 C157.94,302 167.77,302 177.6,302 " fill="none" id="*start*N_3-to-N_3_1" style="stroke:#181818;stroke-width:1.0;"/><polygon fill="#181818" points="182.74,302,173.74,298,177.74,302,173.74,306,182.74,302" style="stroke:#181818;stroke-width:1.0;"/></g><!--MD5=[ccd68096c09cc2399ee16d086e6618f5]
link N_3_1 to N_3_2--><g id="link_N_3_1_N_3_2"><path d="M186.32,327.08 C179.75,335.87 173.39,346.29 170,357 C165.47,371.3 168.64,387.47 173.5,400.94 " fill="none" id="N_3_1-to-N_3_2" style="stroke:#181818;stroke-width:1.0;"/><polygon fill="#181818" points="175.35,405.78,175.8627,395.9445,173.5599,401.1114,168.393,398.8086,175.35,405.78" style="stroke:#181818;stroke-width:1.0;"/><text fill="#000000" font-family="sans-serif" font-size="13" lengthAdjust="spacing" textLength="7" x="171" y="372.8979">c</text></g><!--MD5=[240785e12faa197ea7722194d40e327c]
link N_3_2 to N_3_1--><g id="link_N_3_2_N_3_1"><path d="M191.79,405.9 C195.09,385.01 199.86,354.7 203.37,332.39 " fill="none" id="N_3_2-to-N_3_1" style="stroke:#181818;stroke-width:1.0;"/><polygon fill="#181818" points="204.19,327.19,198.8267,335.4504,203.4051,332.128,206.7275,336.7064,204.19,327.19" style="stroke:#181818;stroke-width:1.0;"/><text fill="#000000" font-family="sans-serif" font-size="13" lengthAdjust="spacing" textLength="7" x="200" y="372.8979">d</text></g><!--MD5=[0171e36e781a13bad4bed3291cc358a3]
link *historical*N_3 to N_3_1--><g id="link_*historical*N_3_N_3_1"><path d="M181.57,198.03 C185.77,214.37 194.23,247.34 200.45,271.59 " fill="none" id="*historical*N_3-to-N_3_1" style="stroke:#181818;stroke-width:1.0;"/><polygon fill="#181818" points="201.74,276.62,203.3772,266.9082,200.4971,271.7769,195.6283,268.8968,201.74,276.62" style="stroke:#181818;stroke-width:1.0;"/></g><!--MD5=[87f0fd7328837c2df6de4ee177cc64a0]
link *start to N_4--><g id="link_*start_N_4"><path d="M112.12,32 C121.94,32 131.77,32 141.6,32 " fill="none" id="*start-to-N_4" style="stroke:#181818;stroke-width:1.0;"/><polygon fill="#181818" points="146.74,32,137.74,28,141.74,32,137.74,36,146.74,32" style="stroke:#181818;stroke-width:1.0;"/></g><!--MD5=[e479e70de51ad014afd809a45b1dd3b7]
link N_1 to N_2--><g id="link_N_1_N_2"><path d="M36.55,276.99 C35.64,227.87 33.55,116.04 32.55,62.55 " fill="none" id="N_1-to-N_2" style="stroke:#181818;stroke-width:1.0;"/><polygon fill="#181818" points="32.45,57.26,28.6308,66.3382,32.55,62.259,36.6292,66.1782,32.45,57.26" style="stroke:#181818;stroke-width:1.0;"/><text fill="#000000" font-family="sans-serif" font-size="13" lengthAdjust="spacing" textLength="7" x="36" y="193.3979">a</text></g><!--MD5=[f73418f33e71675f14f0c0acb8190792]
link N_2 to N_1--><g id="link_N_2_N_1"><path d="M27.87,57.01 C25.32,73.09 22.3,94.74 21,114 C18.48,151.25 18.35,160.76 21,198 C22.56,219.94 24.64,225.26 28,247 C29.23,254.94 30.63,263.52 31.95,271.45 " fill="none" id="N_2-to-N_1" style="stroke:#181818;stroke-width:1.0;"/><polygon fill="#181818" points="32.85,276.83,35.3294,267.2983,32.035,271.8969,27.4364,268.6024,32.85,276.83" style="stroke:#181818;stroke-width:1.0;"/><text fill="#000000" font-family="sans-serif" font-size="13" lengthAdjust="spacing" textLength="3" x="22" y="193.3979">f</text></g><!--MD5=[c11ff992283a6ddd398d10071c1607f2]
link N_2 to *historical*N_3--><g id="link_N_2_*historical*N_3"><path d="M51.45,57.03 C66.24,73.58 88.08,94.56 112,106 C133.09,116.09 147.04,97.91 164,114 C179.31,128.53 181.1,154.32 180.45,170.76 " fill="none" id="N_2-to-*historical*N_3" style="stroke:#181818;stroke-width:1.0;"/><polygon fill="#181818" points="180.15,175.95,184.6569,167.1929,180.4352,170.9581,176.67,166.7365,180.15,175.95" style="stroke:#181818;stroke-width:1.0;"/><text fill="#000000" font-family="sans-serif" font-size="13" lengthAdjust="spacing" textLength="7" x="113" y="102.8979">b</text></g><!--MD5=[debac8beee44b4157eda940073a4ebeb]
link N_3 to N_1--><g id="link_N_3_N_1"><path d="M95.8686,201.7135 C95.8103,201.8118 95.7518,201.9105 95.693,202.0096 C94.7528,203.5957 93.7498,205.2875 92.6933,207.0696 C90.5803,210.6339 88.2531,214.5594 85.785,218.7225 C75.9125,235.375 63.785,255.83 54.09,272.18 " fill="none" id="N_3-to-N_1" style="stroke:#181818;stroke-width:1.0;"/><polygon fill="#181818" points="51.3,276.88,59.3382,271.189,53.8557,272.5825,52.4622,267.1,51.3,276.88" style="stroke:#181818;stroke-width:1.0;"/><text fill="#000000" font-family="sans-serif" font-size="13" lengthAdjust="spacing" textLength="7" x="79" y="243.8979">e</text></g><!--MD5=[becb1b6bd9036bb84e10564eb6bd3402]
link N_4 to N_3--><g id="link_N_4_N_3"><path d="M161.8,57.08 C154.27,72.59 142.78,92.34 128,106 C122.16,111.4 116.55,107.48 112,114 C109.77,117.1987 107.9628,120.6786 106.5087,124.3246 C105.7817,126.1475 105.1429,128.012 104.5837,129.9037 " fill="none" id="N_4-to-N_3" style="stroke:#181818;stroke-width:1.0;"/><polygon fill="#181818" points="104.5837,129.9037,110.971,122.4069,106.0012,125.1088,103.2992,120.139,104.5837,129.9037" style="stroke:#181818;stroke-width:1.0;"/><text fill="#000000" font-family="sans-serif" font-size="13" lengthAdjust="spacing" textLength="7" x="144" y="102.8979">x</text></g></g></svg>