<?xml version="1.0" encoding="us-ascii" standalone="no"?><svg xmlns="http://www.w3.org/2000/svg" xmlns:xlink="http://www.w3.org/1999/xlink" contentStyleType="text/css" height="399px" preserveAspectRatio="none" style="width:306px;height:399px;background:#FFFFFF;" version="1.1" viewBox="0 0 306 399" width="306px" zoomAndPan="magnify"><defs/><g><!--cluster N_3--><g id="cluster_N_3"><path d="M19.5,129 L166.5,129 A12.5,12.5 0 0 1 179,141.5 L179,151.6094 L7,151.6094 L7,141.5 A12.5,12.5 0 0 1 19.5,129 " fill="#F1F1F1" style="stroke:#F1F1F1;stroke-width:1.0;"/><rect fill="none" height="264" rx="12.5" ry="12.5" style="stroke:#000000;stroke-width:0.5;" width="172" x="7" y="129"/><line style="stroke:#000000;stroke-width:0.5;" x1="7" x2="179" y1="151.6094" y2="151.6094"/><text fill="#000000" font-family="sans-serif" font-size="14" lengthAdjust="spacing" textLength="69" x="50.5" y="147.5332">Compound</text></g><g id="N_3.N_3_1"><rect fill="#F1F1F1" height="50" rx="12.5" ry="12.5" style="stroke:#000000;stroke-width:0.5;" width="50" x="86" y="191"/><line style="stroke:#000000;stroke-width:0.5;" x1="86" x2="136" y1="218.6094" y2="218.6094"/><text fill="#000000" font-family="sans-serif" font-size="14" lengthAdjust="spacing" textLength="10" x="106" y="210.5332">C</text></g><g id="N_3.N_3_2"><rect fill="#F1F1F1" height="50" rx="12.5" ry="12.5" style="stroke:#000000;stroke-width:0.5;" width="50" x="86" y="319"/><line style="stroke:#000000;stroke-width:0.5;" x1="86" x2="136" y1="346.6094" y2="346.6094"/><text fill="#000000" font-family="sans-serif" font-size="14" lengthAdjust="spacing" textLength="10" x="106" y="338.5332">D</text></g><ellipse cx="41" cy="216" fill="#181818" rx="10" ry="10" style="stroke:none;stroke-width:1.0;"/><g id="N_1"><rect fill="#F1F1F1" height="50" rx="12.5" ry="12.5" style="stroke:#000000;stroke-width:0.5;" width="50" x="184" y="7"/><line style="stroke:#000000;stroke-width:0.5;" x1="184" x2="234" y1="34.6094" y2="34.6094"/><text fill="#000000" font-family="sans-serif" font-size="14" lengthAdjust="spacing" textLength="9" x="204.5" y="26.5332">A</text></g><g id="N_2"><rect fill="#F1F1F1" height="50" rx="12.5" ry="12.5" style="stroke:#000000;stroke-width:0.5;" width="50" x="206" y="191"/><line style="stroke:#000000;stroke-width:0.5;" x1="206" x2="256" y1="218.6094" y2="218.6094"/><text fill="#000000" font-family="sans-serif" font-size="14" lengthAdjust="spacing" textLength="9" x="226.5" y="210.5332">B</text></g><ellipse cx="139" cy="32" fill="#181818" rx="10" ry="10" style="stroke:none;stroke-width:1.0;"/><!--link *start*N_3 to N_3_1--><g id="link_*start*N_3_N_3_1"><path d="M51.12,216 C60.94,216 70.77,216 80.6,216 " fill="none" id="*start*N_3-to-N_3_1" style="stroke:#181818;stroke-width:1.0;"/><polygon fill="#181818" points="85.74,216,76.74,212,80.74,216,76.74,220,85.74,216" style="stroke:#181818;stroke-width:1.0;"/></g><!--link N_3_1 to N_3_2--><g id="link_N_3_1_N_3_2"><path d="M87.14,241.03 C76.6,254.6 67.67,272.16 73,289 C75.86,298.04 80.84,306.87 86.27,314.69 " fill="none" id="N_3_1-to-N_3_2" style="stroke:#181818;stroke-width:1.0;"/><polygon fill="#181818" points="89.32,318.92,87.2958,309.2814,86.3936,314.8659,80.8091,313.9637,89.32,318.92" style="stroke:#181818;stroke-width:1.0;"/><text fill="#000000" font-family="sans-serif" font-size="13" lengthAdjust="spacing" textLength="7" x="74" y="285.4951">c</text></g><!--link N_3_2 to N_3_1--><g id="link_N_3_2_N_3_1"><path d="M111,318.78 C111,298.15 111,268.43 111,246.43 " fill="none" id="N_3_2-to-N_3_1" style="stroke:#181818;stroke-width:1.0;"/><polygon fill="#181818" points="111,241.29,107,250.29,111,246.29,115,250.29,111,241.29" style="stroke:#181818;stroke-width:1.0;"/><text fill="#000000" font-family="sans-serif" font-size="13" lengthAdjust="spacing" textLength="7" x="112" y="285.4951">d</text></g><!--link *start* to N_1--><g id="link_*start*_N_1"><path d="M149.12,32 C158.94,32 168.77,32 178.6,32 " fill="none" id="*start*-to-N_1" style="stroke:#181818;stroke-width:1.0;"/><polygon fill="#181818" points="183.74,32,174.74,28,178.74,32,174.74,36,183.74,32" style="stroke:#181818;stroke-width:1.0;"/></g><!--link N_1 to N_2--><g id="link_N_1_N_2"><path d="M213.94,57.12 C215.73,66.43 217.63,77.18 219,87 C223.7,120.78 227.07,159.84 229.01,185.84 " fill="none" id="N_1-to-N_2" style="stroke:#181818;stroke-width:1.0;"/><polygon fill="#181818" points="229.39,190.86,232.7367,181.5972,229.0327,185.8728,224.7572,182.1688,229.39,190.86" style="stroke:#181818;stroke-width:1.0;"/><text fill="#000000" font-family="sans-serif" font-size="13" lengthAdjust="spacing" textLength="3" x="222" y="101.4951">f</text></g><!--link N_1 to N_3--><g id="link_N_1_N_3"><path d="M183.99,53.84 C174.94,62.96 165.77,74.45 161,87 C156.01,100.125 154.0819,114.5419 154.0108,128.82 " fill="none" id="N_1-to-N_3" style="stroke:#181818;stroke-width:1.0;"/><polygon fill="#181818" points="154.0108,128.82,158.0555,119.84,154.0357,123.8201,150.0556,119.8002,154.0108,128.82" style="stroke:#181818;stroke-width:1.0;"/><text fill="#000000" font-family="sans-serif" font-size="13" lengthAdjust="spacing" textLength="7" x="162" y="101.4951">a</text></g><!--link N_3 to N_1--><g id="link_N_3_N_1"><path d="M179.0124,165.5145 C179.1284,164.8455 179.2452,164.1732 179.363,163.4979 C180.3048,158.0957 181.3025,152.5016 182.3431,146.838 C184.4244,135.5106 186.6775,123.905 189,113 C192.62,96.02 197.3,77.17 201.22,62.03 " fill="none" id="N_3-to-N_1" style="stroke:#181818;stroke-width:1.0;"/><polygon fill="#181818" points="202.52,57.05,196.387,64.7562,201.2637,61.8896,204.1303,66.7663,202.52,57.05" style="stroke:#181818;stroke-width:1.0;"/><text fill="#000000" font-family="sans-serif" font-size="13" lengthAdjust="spacing" textLength="7" x="195" y="101.4951">e</text></g><!--link N_1 to N_3_1--><g id="link_N_1_N_3_1"><path d="M183.68,46.8 C168.76,56.21 150.75,70.04 140,87 C120.91,117.13 114.32,158.28 112.08,185.71 " fill="none" id="N_1-to-N_3_1" style="stroke:#181818;stroke-width:1.0;"/><polygon fill="#181818" points="111.69,191,116.3476,182.322,112.0615,186.0138,108.3697,181.7277,111.69,191" style="stroke:#181818;stroke-width:1.0;"/><text fill="#000000" font-family="sans-serif" font-size="13" lengthAdjust="spacing" textLength="7" x="141" y="101.4951">y</text></g><!--link N_1 to N_3_2--><g id="link_N_1_N_3_2"><path d="M234.08,55.12 C248.8,69.85 266.04,90.57 274,113 C293.03,166.61 298.22,189.52 274,241 C248.98,294.19 181.25,322.47 141.41,334.94 " fill="none" id="N_1-to-N_3_2" style="stroke:#181818;stroke-width:1.0;"/><polygon fill="#181818" points="136.22,336.52,145.9981,337.6984,140.9992,335.0506,143.647,330.0517,136.22,336.52" style="stroke:#181818;stroke-width:1.0;"/><text fill="#000000" font-family="sans-serif" font-size="13" lengthAdjust="spacing" textLength="7" x="291" y="221.4951">z</text></g><!--link N_2 to N_3_2--><g id="link_N_2_N_3_2"><path d="M205.82,239.9 C195.72,249.33 184.11,260.48 174,271 C160.54,285 146.24,301.23 134.67,314.73 " fill="none" id="N_2-to-N_3_2" style="stroke:#181818;stroke-width:1.0;"/><polygon fill="#181818" points="131.17,318.83,140.0471,314.5641,134.4087,315.0207,133.9521,309.3823,131.17,318.83" style="stroke:#181818;stroke-width:1.0;"/><text fill="#000000" font-family="sans-serif" font-size="13" lengthAdjust="spacing" textLength="7" x="175" y="285.4951">b</text></g><!--link N_2 to N_3_2--><g id="link_N_2_N_3_2"><path d="M218.92,241.32 C210.85,256.1 199.3,274.8 186,289 C172.78,303.11 155.38,315.91 140.67,325.5 " fill="none" id="N_2-to-N_3_2-1" style="stroke:#181818;stroke-width:1.0;"/><polygon fill="#181818" points="136.2,328.37,145.9359,326.8829,140.4101,325.6727,141.6203,320.1468,136.2,328.37" style="stroke:#181818;stroke-width:1.0;"/><text fill="#000000" font-family="sans-serif" font-size="13" lengthAdjust="spacing" textLength="7" x="200" y="285.4951">x</text></g></g></svg>