<?xml version="1.0" encoding="UTF-8" standalone="no"?><svg xmlns="http://www.w3.org/2000/svg" xmlns:xlink="http://www.w3.org/1999/xlink" contentStyleType="text/css" height="449px" preserveAspectRatio="none" style="width:182px;height:449px;background:#FFFFFF;" version="1.1" viewBox="0 0 182 449" width="182px" zoomAndPan="magnify"><defs/><g><g id="N_2"><rect fill="#F1F1F1" height="50" rx="12.5" ry="12.5" style="stroke:#A2C8EF;stroke-width:0.5;" width="50" x="90" y="393"/><line style="stroke:#A2C8EF;stroke-width:0.5;" x1="90" x2="140" y1="420.6094" y2="420.6094"/><text fill="#A2C8EF" font-family="sans-serif" font-size="14" lengthAdjust="spacing" textLength="9" x="110.5" y="412.5332">E</text></g><ellipse cx="16" cy="161" fill="#222222" rx="10" ry="10" style="stroke:none;stroke-width:1.0;"/><path d="M73.5,7 L156.5,7 A12.5,12.5 0 0 1 169,19.5 L169,34.6094 L61,34.6094 L61,19.5 A12.5,12.5 0 0 1 73.5,7 " fill="#F1F1F1" style="stroke:#F1F1F1;stroke-width:1.0;"/><path d="M61,34.6094 L169,34.6094 L169,302.1094 A12.5,12.5 0 0 1 156.5,314.6094 L73.5,314.6094 A12.5,12.5 0 0 1 61,302.1094 L61,34.6094 " fill="#FFFFFF" style="stroke:#FFFFFF;stroke-width:1.0;"/><rect height="307.6094" rx="12.5" ry="12.5" style="stroke:#C11847;stroke-width:0.5;fill:none;" width="108" x="61" y="7"/><line style="stroke:#C11847;stroke-width:0.5;fill:none;" x1="61" x2="169" y1="34.6094" y2="34.6094"/><text fill="#C11847" font-family="sans-serif" font-size="14" lengthAdjust="spacing" textLength="9" x="110.5" y="26.5332">A</text><g id="N_1.N_1_1"><rect fill="#F1F1F1" height="50" rx="12.5" ry="12.5" style="stroke:#49B67B;stroke-width:0.5;" width="50" x="110" y="46.6094"/><line style="stroke:#49B67B;stroke-width:0.5;" x1="110" x2="160" y1="74.2188" y2="74.2188"/><text fill="#49B67B" font-family="sans-serif" font-size="14" lengthAdjust="spacing" textLength="9" x="130.5" y="66.1426">B</text></g><g id="N_1.N_1_2"><rect fill="#F1F1F1" height="50" rx="12.5" ry="12.5" style="stroke:#489577;stroke-width:0.5;" width="50" x="110" y="150.6094"/><line style="stroke:#489577;stroke-width:0.5;" x1="110" x2="160" y1="178.2188" y2="178.2188"/><text fill="#489577" font-family="sans-serif" font-size="14" lengthAdjust="spacing" textLength="10" x="130" y="170.1426">C</text></g><g id="N_1.N_1_3"><rect fill="#F1F1F1" height="50" rx="12.5" ry="12.5" style="stroke:#EF172A;stroke-width:0.5;" width="50" x="110" y="254.6094"/><line style="stroke:#EF172A;stroke-width:0.5;" x1="110" x2="160" y1="282.2188" y2="282.2188"/><text fill="#EF172A" font-family="sans-serif" font-size="14" lengthAdjust="spacing" textLength="10" x="130" y="274.1426">D</text></g><ellipse cx="82" cy="71.6094" fill="#222222" rx="10" ry="10" style="stroke:none;stroke-width:1.0;"/><!--MD5=[a264d6cd0624fa13236d6c5e9d40bca1]
link *start*N_1 to N_1_1--><g id="link_*start*N_1_N_1_1"><path d="M92.35,71.6094 C96.41,71.6094 100.47,71.6094 104.53,71.6094 " fill="none" id="*start*N_1-to-N_1_1" style="stroke:#181818;stroke-width:1.0;"/><polygon fill="#181818" points="109.68,71.6094,100.68,67.6094,104.68,71.6094,100.68,75.6094,109.68,71.6094" style="stroke:#181818;stroke-width:1.0;"/></g><!--MD5=[5efd26506746eba3d8f3722ceff28851]
link N_1_1 to N_1_2--><g id="link_N_1_1_N_1_2"><path d="M124.82,96.6594 C122.83,102.4394 121.03,108.6594 120,114.6094 C118.24,124.7894 119.92,135.7894 122.7,145.5694 " fill="none" id="N_1_1-to-N_1_2" style="stroke:#181818;stroke-width:1.0;"/><polygon fill="#181818" points="124.25,150.5494,125.4202,140.7703,122.7766,145.7714,117.7754,143.1278,124.25,150.5494" style="stroke:#181818;stroke-width:1.0;"/><text fill="#000000" font-family="sans-serif" font-size="13" lengthAdjust="spacing" textLength="7" x="121" y="129.1045">d</text></g><!--MD5=[9ffcf2a23e30450b7a717ab5550363cd]
link N_1_2 to N_1_3--><g id="link_N_1_2_N_1_3"><path d="M124.82,200.6594 C122.83,206.4394 121.03,212.6594 120,218.6094 C118.24,228.7894 119.92,239.7894 122.7,249.5694 " fill="none" id="N_1_2-to-N_1_3" style="stroke:#181818;stroke-width:1.0;"/><polygon fill="#181818" points="124.25,254.5494,125.4202,244.7703,122.7766,249.7714,117.7754,247.1278,124.25,254.5494" style="stroke:#181818;stroke-width:1.0;"/><text fill="#000000" font-family="sans-serif" font-size="13" lengthAdjust="spacing" textLength="7" x="121" y="233.1045">b</text></g><!--MD5=[276fee53e72833cd0543cf4b12a44fee]
link N_1_3 to N_1_2--><g id="link_N_1_3_N_1_2"><path d="M135,254.2594 C135,239.7194 135,221.1694 135,205.8494 " fill="none" id="N_1_3-to-N_1_2" style="stroke:#181818;stroke-width:1.0;"/><polygon fill="#181818" points="135,200.7794,131,209.7794,135,205.7794,139,209.7794,135,200.7794" style="stroke:#181818;stroke-width:1.0;"/><text fill="#000000" font-family="sans-serif" font-size="13" lengthAdjust="spacing" textLength="7" x="136" y="233.1045">e</text></g><!--MD5=[a70cc15f31d9a6f92fd2e345a9065221]
link N_1_2 to N_1_1--><g id="link_N_1_2_N_1_1"><path d="M135,150.2594 C135,135.7194 135,117.1694 135,101.8494 " fill="none" id="N_1_2-to-N_1_1" style="stroke:#181818;stroke-width:1.0;"/><polygon fill="#181818" points="135,96.7794,131,105.7794,135,101.7794,139,105.7794,135,96.7794" style="stroke:#181818;stroke-width:1.0;"/><text fill="#000000" font-family="sans-serif" font-size="13" lengthAdjust="spacing" textLength="7" x="136" y="129.1045">c</text></g><!--MD5=[a1e0d543606106285492e7dcf0375297]
link *start to N_1--><g id="link_*start_N_1"><path d="M26.05,161 C35.92,161 45.78,161 55.64,161 " fill="none" id="*start-to-N_1" style="stroke:#181818;stroke-width:1.0;"/><polygon fill="#181818" points="60.8,161,51.8,157,55.8,161,51.8,165,60.8,161" style="stroke:#181818;stroke-width:1.0;"/></g><!--MD5=[e479e70de51ad014afd809a45b1dd3b7]
link N_1 to N_2--><g id="link_N_1_N_2"><path d="M115,315.12 C115,342.77 115,368.75 115,387.55 " fill="none" id="N_1-to-N_2" style="stroke:#181818;stroke-width:1.0;"/><polygon fill="#181818" points="115,392.66,119,383.66,115,387.66,111,383.66,115,392.66" style="stroke:#181818;stroke-width:1.0;"/><text fill="#000000" font-family="sans-serif" font-size="13" lengthAdjust="spacing" textLength="7" x="116" y="359.4951">a</text></g></g></svg>