<?xml version="1.0" encoding="UTF-8" standalone="no"?><svg xmlns="http://www.w3.org/2000/svg" xmlns:xlink="http://www.w3.org/1999/xlink" contentStyleType="text/css" height="997px" preserveAspectRatio="none" style="width:408px;height:997px;background:#FFFFFF;" version="1.1" viewBox="0 0 408 997" width="408px" zoomAndPan="magnify"><defs/><g><g id="N_1"><rect fill="#F1F1F1" height="50" rx="12.5" ry="12.5" style="stroke:#181818;stroke-width:0.5;" width="57" x="179.5" y="683"/><line style="stroke:#181818;stroke-width:0.5;" x1="179.5" x2="236.5" y1="712.1201" y2="712.1201"/><text fill="#000000" font-family="sans-serif" font-size="14" lengthAdjust="spacing" textLength="37" x="189.5" y="704.0439">(A, D)</text></g><g id="N_2"><rect fill="#F1F1F1" height="50" rx="12.5" ry="12.5" style="stroke:#181818;stroke-width:0.5;" width="57" x="61.5" y="7"/><line style="stroke:#181818;stroke-width:0.5;" x1="61.5" x2="118.5" y1="36.1201" y2="36.1201"/><text fill="#000000" font-family="sans-serif" font-size="14" lengthAdjust="spacing" textLength="37" x="71.5" y="28.0439">(B, D)</text></g><g id="N_3"><rect fill="#F1F1F1" height="50" rx="12.5" ry="12.5" style="stroke:#181818;stroke-width:0.5;" width="58" x="112" y="345"/><line style="stroke:#181818;stroke-width:0.5;" x1="112" x2="170" y1="374.1201" y2="374.1201"/><text fill="#000000" font-family="sans-serif" font-size="14" lengthAdjust="spacing" textLength="38" x="122" y="366.0439">(C, D)</text></g><g id="N_4"><rect fill="#F1F1F1" height="50" rx="12.5" ry="12.5" style="stroke:#181818;stroke-width:0.5;" width="56" x="229" y="812"/><line style="stroke:#181818;stroke-width:0.5;" x1="229" x2="285" y1="841.1201" y2="841.1201"/><text fill="#000000" font-family="sans-serif" font-size="14" lengthAdjust="spacing" textLength="36" x="239" y="833.0439">(A, E)</text></g><g id="N_5"><rect fill="#F1F1F1" height="50" rx="12.5" ry="12.5" style="stroke:#181818;stroke-width:0.5;" width="56" x="95" y="941"/><line style="stroke:#181818;stroke-width:0.5;" x1="95" x2="151" y1="970.1201" y2="970.1201"/><text fill="#000000" font-family="sans-serif" font-size="14" lengthAdjust="spacing" textLength="36" x="105" y="962.0439">(B, E)</text></g><g id="N_6"><rect fill="#F1F1F1" height="50" rx="12.5" ry="12.5" style="stroke:#181818;stroke-width:0.5;" width="57" x="177.5" y="136"/><line style="stroke:#181818;stroke-width:0.5;" x1="177.5" x2="234.5" y1="165.1201" y2="165.1201"/><text fill="#000000" font-family="sans-serif" font-size="14" lengthAdjust="spacing" textLength="37" x="187.5" y="157.0439">(C, E)</text></g><g id="N_7"><rect fill="#F1F1F1" height="50" rx="12.5" ry="12.5" style="stroke:#181818;stroke-width:0.5;" width="50" x="259" y="265"/><line style="stroke:#181818;stroke-width:0.5;" x1="259" x2="309" y1="294.1201" y2="294.1201"/><text fill="#000000" font-family="sans-serif" font-size="14" lengthAdjust="spacing" textLength="9" x="279.5" y="286.0439">F</text></g><g id="N_8"><rect fill="#F1F1F1" height="50" rx="12.5" ry="12.5" style="stroke:#181818;stroke-width:0.5;" width="50" x="218" y="554"/><line style="stroke:#181818;stroke-width:0.5;" x1="218" x2="268" y1="583.1201" y2="583.1201"/><text fill="#000000" font-family="sans-serif" font-size="14" lengthAdjust="spacing" textLength="11" x="237.5" y="575.0439">G</text></g><g id="N_9"><rect fill="#F1F1F1" height="50" rx="12.5" ry="12.5" style="stroke:#181818;stroke-width:0.5;" width="50" x="289" y="425"/><line style="stroke:#181818;stroke-width:0.5;" x1="289" x2="339" y1="454.1201" y2="454.1201"/><text fill="#000000" font-family="sans-serif" font-size="14" lengthAdjust="spacing" textLength="9" x="309.5" y="446.0439">H</text></g><ellipse cx="16" cy="32" fill="#222222" rx="10" ry="10" style="stroke:none;stroke-width:1.0;"/><!--MD5=[c8cd24a335200a9553fd6ae6d3751192]
link *start to N_2--><g id="link_*start_N_2"><path d="M26.12,32 C36.03,32 45.95,32 55.87,32 " fill="none" id="*start-to-N_2" style="stroke:#181818;stroke-width:1.0;"/><polygon fill="#181818" points="61.05,32,52.05,28,56.05,32,52.05,36,61.05,32" style="stroke:#181818;stroke-width:1.0;"/></g><!--MD5=[e479e70de51ad014afd809a45b1dd3b7]
link N_1 to N_2--><g id="link_N_1_N_2"><path d="M179.3,704.42 C144.6,699.83 86.46,687.24 51,653 C26,628.86 23,614.75 23,580 C23,160 23,160 23,160 C23,122.77 45.81,85.75 64.81,61.37 " fill="none" id="N_1-to-N_2" style="stroke:#181818;stroke-width:1.0;"/><polygon fill="#181818" points="68.06,57.27,59.3366,61.842,64.9558,61.1896,65.6081,66.8088,68.06,57.27" style="stroke:#181818;stroke-width:1.0;"/><text fill="#000000" font-family="sans-serif" font-size="13" lengthAdjust="spacing" textLength="7" x="24" y="376.3979">a</text></g><!--MD5=[558c43acea4b9cf15fc13ae2ec2ab6e8]
link N_1 to N_4--><g id="link_N_1_N_4"><path d="M217.33,733.19 C225.44,754.2 237.2,784.67 245.81,806.99 " fill="none" id="N_1-to-N_4" style="stroke:#181818;stroke-width:1.0;"/><polygon fill="#181818" points="247.7,811.9,248.1965,802.0637,245.9022,807.2344,240.7315,804.9401,247.7,811.9" style="stroke:#181818;stroke-width:1.0;"/><text fill="#000000" font-family="sans-serif" font-size="13" lengthAdjust="spacing" textLength="7" x="236" y="778.8979">b</text></g><!--MD5=[06b9ec0af1e44545b5ba408c1c9b8425]
link N_4 to N_1--><g id="link_N_4_N_1"><path d="M231.26,811.86 C223.69,803.22 216.29,792.9 212,782 C206.63,768.34 205.29,752.12 205.44,738.45 " fill="none" id="N_4-to-N_1" style="stroke:#181818;stroke-width:1.0;"/><polygon fill="#181818" points="205.58,733.15,201.35,742.0442,205.4515,738.1483,209.3473,742.2498,205.58,733.15" style="stroke:#181818;stroke-width:1.0;"/><text fill="#000000" font-family="sans-serif" font-size="13" lengthAdjust="spacing" textLength="7" x="213" y="778.8979">b</text></g><!--MD5=[92c1ce9c2f4d3d991a0445b1240d90b1]
link N_2 to N_6--><g id="link_N_2_N_6"><path d="M112.09,57.19 C131.6,78.55 160.05,109.7 180.52,132.11 " fill="none" id="N_2-to-N_6" style="stroke:#181818;stroke-width:1.0;"/><polygon fill="#181818" points="183.99,135.9,180.8669,126.5594,180.6153,132.2107,174.964,131.959,183.99,135.9" style="stroke:#181818;stroke-width:1.0;"/><text fill="#000000" font-family="sans-serif" font-size="13" lengthAdjust="spacing" textLength="7" x="155" y="102.8979">b</text></g><!--MD5=[39d191dbc3e1429f806030b751ba3521]
link N_3 to N_6--><g id="link_N_3_N_6"><path d="M138.25,344.97 C135.72,313.75 134.85,258.25 154,216 C158.57,205.92 165.85,196.57 173.53,188.58 " fill="none" id="N_3-to-N_6" style="stroke:#181818;stroke-width:1.0;"/><polygon fill="#181818" points="177.32,184.78,168.1348,188.3341,173.7916,188.3227,173.803,193.9795,177.32,184.78" style="stroke:#181818;stroke-width:1.0;"/><text fill="#000000" font-family="sans-serif" font-size="13" lengthAdjust="spacing" textLength="7" x="155" y="231.8979">b</text></g><!--MD5=[b1ab57a64fce8f8d4447c94858a7e68f]
link N_6 to N_3--><g id="link_N_6_N_3"><path d="M200.44,186.16 C193.19,216.57 179.59,270.26 164,315 C161.14,323.21 157.63,331.94 154.23,339.94 " fill="none" id="N_6-to-N_3" style="stroke:#181818;stroke-width:1.0;"/><polygon fill="#181818" points="152.13,344.81,159.3594,338.1215,154.1048,340.2165,152.0098,334.9619,152.13,344.81" style="stroke:#181818;stroke-width:1.0;"/><text fill="#000000" font-family="sans-serif" font-size="13" lengthAdjust="spacing" textLength="7" x="194" y="231.8979">b</text></g><!--MD5=[debac8beee44b4157eda940073a4ebeb]
link N_3 to N_1--><g id="link_N_3_N_1"><path d="M145.82,395.16 C157.84,455.44 189.11,612.27 202.15,677.68 " fill="none" id="N_3-to-N_1" style="stroke:#181818;stroke-width:1.0;"/><polygon fill="#181818" points="203.14,682.6,205.3134,672.994,202.1677,677.6955,197.4662,674.5497,203.14,682.6" style="stroke:#181818;stroke-width:1.0;"/><text fill="#000000" font-family="sans-serif" font-size="13" lengthAdjust="spacing" textLength="7" x="171" y="520.8979">a</text></g><!--MD5=[4c286cd8f1bb3f8ac1767d75cee84f64]
link N_4 to N_5--><g id="link_N_4_N_5"><path d="M231.48,862.19 C208.85,883.64 175.8,914.96 152.14,937.38 " fill="none" id="N_4-to-N_5" style="stroke:#181818;stroke-width:1.0;"/><polygon fill="#181818" points="148.42,940.9,157.702,937.607,152.0471,937.4585,152.1956,931.8036,148.42,940.9" style="stroke:#181818;stroke-width:1.0;"/><text fill="#000000" font-family="sans-serif" font-size="13" lengthAdjust="spacing" textLength="7" x="199" y="907.8979">a</text></g><!--MD5=[5925a8411f09d2d79b5dab894292649b]
link N_5 to N_3--><g id="link_N_5_N_3"><path d="M113.98,940.56 C105.47,915.26 94,874.41 94,838 C94,513.5 94,513.5 94,513.5 C94,472.62 111.66,428.31 125.33,400.14 " fill="none" id="N_5-to-N_3" style="stroke:#181818;stroke-width:1.0;"/><polygon fill="#181818" points="127.66,395.42,120.0895,401.7197,125.4468,399.9035,127.2631,405.2609,127.66,395.42" style="stroke:#181818;stroke-width:1.0;"/><text fill="#000000" font-family="sans-serif" font-size="13" lengthAdjust="spacing" textLength="7" x="95" y="649.8979">b</text></g><!--MD5=[ffcf430ef0926d567662670bfbb160f9]
link N_6 to N_4--><g id="link_N_6_N_4"><path d="M234.65,167.67 C286.83,179.85 392,213.73 392,289 C392,289 392,289 392,709 C392,764.81 330.03,803.3 290.06,822.31 " fill="none" id="N_6-to-N_4" style="stroke:#181818;stroke-width:1.0;"/><polygon fill="#181818" points="285.3,824.53,295.1472,824.3471,289.8306,822.4148,291.7628,817.0982,285.3,824.53" style="stroke:#181818;stroke-width:1.0;"/><text fill="#000000" font-family="sans-serif" font-size="13" lengthAdjust="spacing" textLength="7" x="393" y="520.8979">a</text></g><!--MD5=[13a3d64d50dccc3994c2f2db9898c904]
link N_6 to N_7--><g id="link_N_6_N_7"><path d="M220.85,186.19 C233.87,207.37 252.79,238.18 266.53,260.55 " fill="none" id="N_6-to-N_7" style="stroke:#181818;stroke-width:1.0;"/><polygon fill="#181818" points="269.2,264.9,267.8989,255.1375,266.5835,260.6393,261.0817,259.3239,269.2,264.9" style="stroke:#181818;stroke-width:1.0;"/><text fill="#000000" font-family="sans-serif" font-size="13" lengthAdjust="spacing" textLength="7" x="250" y="231.8979">c</text></g><!--MD5=[113bbaebc9f5ba75f3a0631276d5e93e]
link N_7 to N_9--><g id="link_N_7_N_9"><path d="M288.62,315.34 C293.97,343.49 302.76,389.8 308.46,419.85 " fill="none" id="N_7-to-N_9" style="stroke:#181818;stroke-width:1.0;"/><polygon fill="#181818" points="309.42,424.89,311.6794,415.3038,308.4917,419.9769,303.8185,416.7892,309.42,424.89" style="stroke:#181818;stroke-width:1.0;"/><text fill="#000000" font-family="sans-serif" font-size="13" lengthAdjust="spacing" textLength="7" x="304" y="376.3979">c</text></g><!--MD5=[113bbaebc9f5ba75f3a0631276d5e93e]
link N_7 to N_9--><g id="link_N_7_N_9"><path d="M277.97,315.1 C273.69,336.54 269.98,368.52 278,395 C280.7,403.92 285.41,412.71 290.55,420.52 " fill="none" id="N_7-to-N_9-1" style="stroke:#181818;stroke-width:1.0;"/><polygon fill="#181818" points="293.44,424.76,291.6531,415.0746,290.614,420.6352,285.0534,419.5962,293.44,424.76" style="stroke:#181818;stroke-width:1.0;"/><text fill="#000000" font-family="sans-serif" font-size="13" lengthAdjust="spacing" textLength="7" x="279" y="376.3979">d</text></g><!--MD5=[9306ea5a13c177014a0f55cec28472b4]
link N_9 to N_8--><g id="link_N_9_N_8"><path d="M300.48,475.19 C288.68,496.28 271.55,526.93 259.06,549.27 " fill="none" id="N_9-to-N_8" style="stroke:#181818;stroke-width:1.0;"/><polygon fill="#181818" points="256.47,553.9,264.3374,547.9752,258.8982,549.5292,257.3442,544.09,256.47,553.9" style="stroke:#181818;stroke-width:1.0;"/><text fill="#000000" font-family="sans-serif" font-size="13" lengthAdjust="spacing" textLength="7" x="283" y="520.8979">d</text></g><!--MD5=[1edf0e673d01280bc0f24e623f15174b]
link N_8 to N_1--><g id="link_N_8_N_1"><path d="M236.33,604.19 C230.54,625.2 222.15,655.67 216,677.99 " fill="none" id="N_8-to-N_1" style="stroke:#181818;stroke-width:1.0;"/><polygon fill="#181818" points="214.64,682.9,220.8843,675.2836,215.9664,678.0792,213.1709,673.1613,214.64,682.9" style="stroke:#181818;stroke-width:1.0;"/><text fill="#000000" font-family="sans-serif" font-size="13" lengthAdjust="spacing" textLength="7" x="228" y="649.8979">a</text></g><!--MD5=[86eae1469d1dbcfc488e36fed3af53d0]
link N_9 to N_4--><g id="link_N_9_N_4"><path d="M310.43,475.08 C300.44,542.6 272.17,733.56 261.31,806.85 " fill="none" id="N_9-to-N_4" style="stroke:#181818;stroke-width:1.0;"/><polygon fill="#181818" points="260.56,811.93,265.8532,803.6244,261.3031,806.9855,257.942,802.4355,260.56,811.93" style="stroke:#181818;stroke-width:1.0;"/><text fill="#000000" font-family="sans-serif" font-size="13" lengthAdjust="spacing" textLength="7" x="287" y="649.8979">a</text></g></g></svg>