<?xml version="1.0" encoding="UTF-8" standalone="no"?><svg xmlns="http://www.w3.org/2000/svg" xmlns:xlink="http://www.w3.org/1999/xlink" contentStyleType="text/css" height="597px" preserveAspectRatio="none" style="width:167px;height:597px;background:#FFFFFF;" version="1.1" viewBox="0 0 167 597" width="167px" zoomAndPan="magnify"><defs/><g><!--MD5=[43ce935807bdbf6ac6366862e6ff16ca]
cluster N_2--><g id="cluster_N_2"><path d="M19.5,130 L141.5,130 A12.5,12.5 0 0 1 154,142.5 L154,159.1201 L7,159.1201 L7,142.5 A12.5,12.5 0 0 1 19.5,130 " fill="#F1F1F1" style="stroke:#F1F1F1;stroke-width:1.0;"/><rect height="461" rx="12.5" ry="12.5" style="stroke:#181818;stroke-width:0.5;fill:none;" width="147" x="7" y="130"/><line style="stroke:#181818;stroke-width:0.5;fill:none;" x1="7" x2="154" y1="159.1201" y2="159.1201"/><text fill="#000000" font-family="sans-serif" font-size="14" lengthAdjust="spacing" textLength="37" x="62" y="150.0439">Radio</text></g><g id="N_2.N_2_1"><rect fill="#F1F1F1" height="50" rx="12.5" ry="12.5" style="stroke:#181818;stroke-width:0.5;" width="50" x="71" y="259"/><line style="stroke:#181818;stroke-width:0.5;" x1="71" x2="121" y1="288.1201" y2="288.1201"/><text fill="#000000" font-family="sans-serif" font-size="14" lengthAdjust="spacing" textLength="8" x="92" y="280.0439">1</text></g><g id="N_2.N_2_2"><rect fill="#F1F1F1" height="50" rx="12.5" ry="12.5" style="stroke:#181818;stroke-width:0.5;" width="50" x="56" y="388"/><line style="stroke:#181818;stroke-width:0.5;" x1="56" x2="106" y1="417.1201" y2="417.1201"/><text fill="#000000" font-family="sans-serif" font-size="14" lengthAdjust="spacing" textLength="8" x="77" y="409.0439">2</text></g><g id="N_2.N_2_3"><rect fill="#F1F1F1" height="50" rx="12.5" ry="12.5" style="stroke:#181818;stroke-width:0.5;" width="50" x="56" y="517"/><line style="stroke:#181818;stroke-width:0.5;" x1="56" x2="106" y1="546.1201" y2="546.1201"/><text fill="#000000" font-family="sans-serif" font-size="14" lengthAdjust="spacing" textLength="8" x="77" y="538.0439">3</text></g><ellipse cx="96" cy="187" fill="#F1F1F1" rx="11" ry="11" style="stroke:#181818;stroke-width:0.5;"/><text fill="#000000" font-family="sans-serif" font-size="14" lengthAdjust="spacing" textLength="9" x="91.5" y="193.4839">H</text><g id="N_1"><rect fill="#F1F1F1" height="50" rx="12.5" ry="12.5" style="stroke:#181818;stroke-width:0.5;" width="50" x="96" y="7"/><line style="stroke:#181818;stroke-width:0.5;" x1="96" x2="146" y1="36.1201" y2="36.1201"/><text fill="#000000" font-family="sans-serif" font-size="14" lengthAdjust="spacing" textLength="20" x="111" y="28.0439">CD</text></g><ellipse cx="51" cy="32" fill="#222222" rx="10" ry="10" style="stroke:none;stroke-width:1.0;"/><!--MD5=[5e6fe70d628607932926a9fd615a8eda]
link *historical*N_2 to N_2_1--><g id="link_*historical*N_2_N_2_1"><path d="M96,198.17 C96,211.29 96,234.69 96,253.6 " fill="none" id="*historical*N_2-to-N_2_1" style="stroke:#181818;stroke-width:1.0;"/><polygon fill="#181818" points="96,258.8,100,249.8,96,253.8,92,249.8,96,258.8" style="stroke:#181818;stroke-width:1.0;"/></g><!--MD5=[85ee8afd7a71d95eec51875e11c16e49]
link N_2_1 to N_2_2--><g id="link_N_2_1_N_2_2"><path d="M79.15,309.15 C73.86,318.11 68.69,328.62 66,339 C62.27,353.39 64.91,369.57 68.95,383.03 " fill="none" id="N_2_1-to-N_2_2" style="stroke:#181818;stroke-width:1.0;"/><polygon fill="#181818" points="70.5,387.86,71.555,378.0678,68.9704,383.0997,63.9385,380.5151,70.5,387.86" style="stroke:#181818;stroke-width:1.0;"/><text fill="#000000" font-family="sans-serif" font-size="13" lengthAdjust="spacing" textLength="8" x="67" y="354.8979">+</text></g><!--MD5=[6baceb3de16741fd2c71b5f2a676b2ff]
link N_2_2 to N_2_1--><g id="link_N_2_2_N_2_1"><path d="M83.85,387.9 C86.31,367.01 89.89,336.7 92.53,314.39 " fill="none" id="N_2_2-to-N_2_1" style="stroke:#181818;stroke-width:1.0;"/><polygon fill="#181818" points="93.14,309.19,88.1116,317.6585,92.5533,314.1555,96.0563,318.5972,93.14,309.19" style="stroke:#181818;stroke-width:1.0;"/><text fill="#000000" font-family="sans-serif" font-size="13" lengthAdjust="spacing" textLength="4" x="91" y="354.8979">-</text></g><!--MD5=[4da87cace1b49a9b0127d7a92b3f523a]
link N_2_2 to N_2_3--><g id="link_N_2_2_N_2_3"><path d="M72.78,438.17 C70.05,447.39 67.35,458.07 66,468 C64.03,482.49 66.72,498.41 70.34,511.67 " fill="none" id="N_2_2-to-N_2_3" style="stroke:#181818;stroke-width:1.0;"/><polygon fill="#181818" points="71.82,516.81,73.1745,507.0547,70.437,512.0051,65.4866,509.2676,71.82,516.81" style="stroke:#181818;stroke-width:1.0;"/><text fill="#000000" font-family="sans-serif" font-size="13" lengthAdjust="spacing" textLength="8" x="67" y="483.8979">+</text></g><!--MD5=[22c0e72bd6bc933074dd467f88677a1d]
link N_2_3 to N_2_2--><g id="link_N_2_3_N_2_2"><path d="M81,516.9 C81,496.01 81,465.7 81,443.39 " fill="none" id="N_2_3-to-N_2_2" style="stroke:#181818;stroke-width:1.0;"/><polygon fill="#181818" points="81,438.19,77,447.19,81,443.19,85,447.19,81,438.19" style="stroke:#181818;stroke-width:1.0;"/><text fill="#000000" font-family="sans-serif" font-size="13" lengthAdjust="spacing" textLength="4" x="82" y="483.8979">-</text></g><!--MD5=[a1e0d543606106285492e7dcf0375297]
link *start to N_1--><g id="link_*start_N_1"><path d="M61.12,32 C70.94,32 80.77,32 90.6,32 " fill="none" id="*start-to-N_1" style="stroke:#181818;stroke-width:1.0;"/><polygon fill="#181818" points="95.74,32,86.74,28,90.74,32,86.74,36,95.74,32" style="stroke:#181818;stroke-width:1.0;"/></g><!--MD5=[f4a464ff0846abf5bcb194ad5ed92c06]
link N_1 to *historical*N_2--><g id="link_N_1_*historical*N_2"><path d="M107.07,57.21 C102.61,66.26 98.24,76.81 96,87 C89.58,116.15 91.87,151.31 94.01,170.91 " fill="none" id="N_1-to-*historical*N_2" style="stroke:#181818;stroke-width:1.0;"/><polygon fill="#181818" points="94.6,176.01,97.5195,166.6038,94.015,171.0443,89.5744,167.5398,94.6,176.01" style="stroke:#181818;stroke-width:1.0;"/><text fill="#000000" font-family="sans-serif" font-size="13" lengthAdjust="spacing" textLength="8" x="97" y="102.8979">F</text></g><!--MD5=[f73418f33e71675f14f0c0acb8190792]
link N_2 to N_1--><g id="link_N_2_N_1"><path d="M140.3084,129.9794 C140.2919,129.8536 140.2753,129.7278 140.2588,129.602 C140.2256,129.3504 140.1923,129.0989 140.1589,128.8474 C140.0253,127.8415 139.8896,126.8366 139.7518,125.8339 C139.2006,121.8234 138.6163,117.85 138,114 C135.24,96.79 131.28,77.71 127.88,62.39 " fill="none" id="N_2-to-N_1" style="stroke:#181818;stroke-width:1.0;"/><polygon fill="#181818" points="126.75,57.34,124.8245,66.9988,127.8482,62.2179,132.6291,65.2416,126.75,57.34" style="stroke:#181818;stroke-width:1.0;"/><text fill="#000000" font-family="sans-serif" font-size="13" lengthAdjust="spacing" textLength="8" x="137" y="102.8979">F</text></g></g></svg>