<?xml version="1.0" encoding="UTF-8" standalone="no"?><svg xmlns="http://www.w3.org/2000/svg" xmlns:xlink="http://www.w3.org/1999/xlink" contentStyleType="text/css" height="610px" preserveAspectRatio="none" style="width:167px;height:610px;background:#FFFFFF;" version="1.1" viewBox="0 0 167 610" width="167px" zoomAndPan="magnify"><defs/><g><!--MD5=[43ce935807bdbf6ac6366862e6ff16ca]
cluster N_2--><g id="cluster_N_2"><path d="M19.5,129 L141.5,129 A12.5,12.5 0 0 1 154,141.5 L154,156.6094 L7,156.6094 L7,141.5 A12.5,12.5 0 0 1 19.5,129 " fill="#F1F1F1" style="stroke:#F1F1F1;stroke-width:1.0;"/><rect height="475" rx="12.5" ry="12.5" style="stroke:#33B474;stroke-width:0.5;fill:none;" width="147" x="7" y="129"/><line style="stroke:#33B474;stroke-width:0.5;fill:none;" x1="7" x2="154" y1="156.6094" y2="156.6094"/><text fill="#33B474" font-family="sans-serif" font-size="14" lengthAdjust="spacing" textLength="37" x="54" y="147.5332">Radio</text></g><g id="N_2.N_2_1"><rect fill="#F1F1F1" height="50" rx="12.5" ry="12.5" style="stroke:#BE8565;stroke-width:0.5;" width="50" x="71" y="274"/><line style="stroke:#BE8565;stroke-width:0.5;" x1="71" x2="121" y1="301.6094" y2="301.6094"/><text fill="#BE8565" font-family="sans-serif" font-size="14" lengthAdjust="spacing" textLength="8" x="92" y="293.5332">1</text></g><g id="N_2.N_2_2"><rect fill="#F1F1F1" height="50" rx="12.5" ry="12.5" style="stroke:#4D4EC6;stroke-width:0.5;" width="50" x="56" y="402"/><line style="stroke:#4D4EC6;stroke-width:0.5;" x1="56" x2="106" y1="429.6094" y2="429.6094"/><text fill="#4D4EC6" font-family="sans-serif" font-size="14" lengthAdjust="spacing" textLength="8" x="77" y="421.5332">2</text></g><g id="N_2.N_2_3"><rect fill="#F1F1F1" height="50" rx="12.5" ry="12.5" style="stroke:#6807A4;stroke-width:0.5;" width="50" x="56" y="530"/><line style="stroke:#6807A4;stroke-width:0.5;" x1="56" x2="106" y1="557.6094" y2="557.6094"/><text fill="#6807A4" font-family="sans-serif" font-size="14" lengthAdjust="spacing" textLength="8" x="77" y="549.5332">3</text></g><ellipse cx="96" cy="202" fill="#F1F1F1" rx="11" ry="11" style="stroke:#181818;stroke-width:0.5;"/><text fill="#000000" font-family="sans-serif" font-size="14" lengthAdjust="spacing" textLength="9" x="91.5" y="207.7285">H</text><g id="N_1"><rect fill="#F1F1F1" height="50" rx="12.5" ry="12.5" style="stroke:#9F358B;stroke-width:0.5;" width="50" x="96" y="7"/><line style="stroke:#9F358B;stroke-width:0.5;" x1="96" x2="146" y1="34.6094" y2="34.6094"/><text fill="#9F358B" font-family="sans-serif" font-size="14" lengthAdjust="spacing" textLength="20" x="111" y="26.5332">CD</text></g><ellipse cx="51" cy="32" fill="#222222" rx="10" ry="10" style="stroke:none;stroke-width:1.0;"/><!--MD5=[5e6fe70d628607932926a9fd615a8eda]
link *historical*N_2 to N_2_1--><g id="link_*historical*N_2_N_2_1"><path d="M96,213.17 C96,226.29 96,249.69 96,268.6 " fill="none" id="*historical*N_2-to-N_2_1" style="stroke:#181818;stroke-width:1.0;"/><polygon fill="#181818" points="96,273.8,100,264.8,96,268.8,92,264.8,96,273.8" style="stroke:#181818;stroke-width:1.0;"/></g><!--MD5=[85ee8afd7a71d95eec51875e11c16e49]
link N_2_1 to N_2_2--><g id="link_N_2_1_N_2_2"><path d="M79.15,324.15 C73.86,333.11 68.69,343.62 66,354 C62.38,367.97 64.88,383.63 68.8,396.78 " fill="none" id="N_2_1-to-N_2_2" style="stroke:#181818;stroke-width:1.0;"/><polygon fill="#181818" points="70.43,401.87,71.5117,392.0807,68.9134,397.1056,63.8886,394.5073,70.43,401.87" style="stroke:#181818;stroke-width:1.0;"/><text fill="#000000" font-family="sans-serif" font-size="13" lengthAdjust="spacing" textLength="8" x="67" y="368.4951">+</text></g><!--MD5=[6baceb3de16741fd2c71b5f2a676b2ff]
link N_2_2 to N_2_1--><g id="link_N_2_2_N_2_1"><path d="M83.88,401.78 C86.34,381.15 89.88,351.43 92.5,329.43 " fill="none" id="N_2_2-to-N_2_1" style="stroke:#181818;stroke-width:1.0;"/><polygon fill="#181818" points="93.11,324.29,88.0575,332.7441,92.5092,329.2538,95.9996,333.7054,93.11,324.29" style="stroke:#181818;stroke-width:1.0;"/><text fill="#000000" font-family="sans-serif" font-size="13" lengthAdjust="spacing" textLength="4" x="91" y="368.4951">-</text></g><!--MD5=[4da87cace1b49a9b0127d7a92b3f523a]
link N_2_2 to N_2_3--><g id="link_N_2_2_N_2_3"><path d="M71.74,452.18 C67.48,466.09 63.81,483.93 66,500 C67.12,508.22 69.16,516.96 71.38,524.96 " fill="none" id="N_2_2-to-N_2_3" style="stroke:#181818;stroke-width:1.0;"/><polygon fill="#181818" points="72.78,529.83,74.1268,520.0737,71.3932,525.0262,66.4407,522.2926,72.78,529.83" style="stroke:#181818;stroke-width:1.0;"/><text fill="#000000" font-family="sans-serif" font-size="13" lengthAdjust="spacing" textLength="8" x="67" y="496.4951">+</text></g><!--MD5=[22c0e72bd6bc933074dd467f88677a1d]
link N_2_3 to N_2_2--><g id="link_N_2_3_N_2_2"><path d="M81,529.78 C81,509.15 81,479.43 81,457.43 " fill="none" id="N_2_3-to-N_2_2" style="stroke:#181818;stroke-width:1.0;"/><polygon fill="#181818" points="81,452.29,77,461.29,81,457.29,85,461.29,81,452.29" style="stroke:#181818;stroke-width:1.0;"/><text fill="#000000" font-family="sans-serif" font-size="13" lengthAdjust="spacing" textLength="4" x="82" y="496.4951">-</text></g><!--MD5=[a1e0d543606106285492e7dcf0375297]
link *start to N_1--><g id="link_*start_N_1"><path d="M61.12,32 C70.94,32 80.77,32 90.6,32 " fill="none" id="*start-to-N_1" style="stroke:#181818;stroke-width:1.0;"/><polygon fill="#181818" points="95.74,32,86.74,28,90.74,32,86.74,36,95.74,32" style="stroke:#181818;stroke-width:1.0;"/></g><!--MD5=[f4a464ff0846abf5bcb194ad5ed92c06]
link N_1 to *historical*N_2--><g id="link_N_1_*historical*N_2"><path d="M107.07,57.21 C102.61,66.26 98.24,76.81 96,87 C88.35,121.75 91.44,163.91 93.96,185.94 " fill="none" id="N_1-to-*historical*N_2" style="stroke:#181818;stroke-width:1.0;"/><polygon fill="#181818" points="94.59,191.09,97.4796,181.6746,93.9892,186.1262,89.5375,182.6359,94.59,191.09" style="stroke:#181818;stroke-width:1.0;"/><text fill="#000000" font-family="sans-serif" font-size="13" lengthAdjust="spacing" textLength="8" x="97" y="101.4951">F</text></g><!--MD5=[f73418f33e71675f14f0c0acb8190792]
link N_2 to N_1--><g id="link_N_2_N_1"><path d="M140.1402,128.8358 C140.1216,128.6824 140.103,128.5291 140.0843,128.3758 C140.047,128.0692 140.0094,127.7628 139.9716,127.4565 C139.3675,122.5566 138.7113,117.7025 138,113 C135.43,95.97 131.48,77.12 128.03,62 " fill="none" id="N_2-to-N_1" style="stroke:#181818;stroke-width:1.0;"/><polygon fill="#181818" points="126.88,57.02,124.9875,66.6853,127.9949,61.8941,132.7861,64.9015,126.88,57.02" style="stroke:#181818;stroke-width:1.0;"/><text fill="#000000" font-family="sans-serif" font-size="13" lengthAdjust="spacing" textLength="8" x="137" y="101.4951">F</text></g></g></svg>